<svg width="138" height="40" viewBox="0 0 138 40" fill="none" xmlns="http://www.w3.org/2000/svg">
<path d="M6.27427 11.453C7.36805 11.5637 8.44746 11.7869 9.49532 12.1191L8.71066 5.29321L16.1218 4.45075C20.0451 4.00405 22.5404 5.68114 22.7915 7.99692C22.8703 8.64304 22.7825 9.29855 22.5365 9.90128C23.6597 9.40248 24.8488 9.0673 26.0675 8.906C26.5723 8.8426 27.0811 8.8164 27.5897 8.82763C27.7117 8.16597 27.7355 7.48998 27.6603 6.8214C27.1032 2.00566 22.4462 -0.576583 16.4435 0.109141L2.49219 1.6961L3.60641 11.4569C4.49288 11.3581 5.38752 11.3568 6.27427 11.453Z" fill="white"/>
<path d="M28.7041 31.4273C28.3165 33.1747 27.7608 34.8806 27.0446 36.5212L26.6797 37.4186C28.4983 36.892 30.2203 36.0771 31.78 35.0048C31.032 33.6052 30.01 32.3699 28.7747 31.3724L28.7041 31.4273Z" fill="white"/>
<path d="M26.1141 35.2235C25.9964 34.4633 25.859 33.7306 25.7217 33.0174C24.2923 33.5434 22.8032 33.8908 21.2884 34.0519L12.1039 35.0981L10.9582 25.0552C10.919 25.1649 10.8798 25.2746 10.8445 25.3882C10.0005 28.0329 9.58079 30.7942 9.60078 33.5699C9.60078 34.6436 9.63216 35.7407 9.66747 36.8026C9.66747 37.2924 9.69494 37.7822 9.70671 38.2759L9.73809 39.4515L9.02405 38.5071C7.9554 37.0605 7.03531 35.5102 6.27772 33.8795L6.19141 33.9853L6.87799 40L22.9636 38.1701C24.1661 38.0366 25.3552 37.8019 26.5182 37.4687L26.271 36.0228C26.2004 35.7407 26.1533 35.4821 26.1141 35.2235Z" fill="white"/>
<path d="M37.2703 23.9585C37.0766 21.9884 36.349 20.1083 35.1655 18.5204C33.982 16.9325 32.3876 15.6968 30.5535 14.9462L30.4947 15.4712L30.4005 16.3333L30.3534 16.7251L29.9611 16.6507C30.1533 16.786 30.2921 16.9843 30.3534 17.211C30.3663 17.3625 30.3389 17.5146 30.2742 17.6522C30.2094 17.7898 30.1096 17.9079 29.9847 17.9947C29.5061 18.3191 28.9494 18.5099 28.3722 18.5472L28.125 18.5746C30.3888 19.9147 31.8129 21.9915 32.0876 24.4131C32.2393 25.6936 32.0301 26.991 31.4834 28.1591C32.2266 30.0968 32.6839 32.1322 32.8408 34.2013C36.0697 31.4976 37.7097 27.7868 37.2703 23.9585Z" fill="white"/>
<path d="M9.3248 19.7449C8.85361 19.9867 8.35772 20.1772 7.84571 20.313L6.81387 20.5913C6.12337 20.7793 5.41325 20.9831 4.70312 21.1477L5.11507 24.7644C6.21899 22.862 7.6431 21.1639 9.3248 19.7449Z" fill="white"/>
<path d="M29.5704 9.99171C28.4821 9.57552 27.3019 9.45913 26.1531 9.65472C24.808 9.83849 23.5008 10.2353 22.2808 10.8302C21.3729 11.2682 20.5051 11.7848 19.6875 12.3741C19.9858 13.2485 20.1524 14.1623 20.1818 15.0857C20.2054 15.3991 20.2328 15.7165 20.2682 16.0339L21.4687 15.8928L22.7124 15.7439C23.2852 15.6813 23.8658 15.6186 24.4426 15.5676C25.7464 15.4249 27.062 15.4249 28.3659 15.5676C28.7582 15.6186 29.178 15.7048 29.5664 15.7871L29.692 15.8106L29.7391 15.3678C29.8097 14.7134 29.8842 14.0394 29.9784 13.3733C30.0608 12.7659 30.1706 12.1586 30.2766 11.5708C30.3236 11.324 30.3668 11.081 30.41 10.8381L30.3825 10.6108C30.1781 10.3297 29.8958 10.1144 29.5704 9.99171Z" fill="#CE97C4"/>
<path d="M27.9663 23.5551C25.8948 21.0042 23.2191 19.1233 19.7548 17.8107C19.4687 18.2197 19.0947 18.5597 18.6602 18.8059C18.8524 18.947 19.0525 19.0842 19.2212 19.2331C21.2339 20.867 22.862 23.0574 24.196 25.9336C25.4978 28.8206 26.3892 31.8751 26.8442 35.0086C27.3975 33.5839 27.8165 32.1107 28.0958 30.6082L28.1978 30.0479L28.6764 30.3614C30.0669 31.3228 31.2305 32.5758 32.0858 34.0329C31.8065 30.2043 30.37 26.5506 27.9663 23.5551Z" fill="#CE97C4"/>
<path d="M6.11986 32.9435L6.51219 32.5517L6.72797 33.0533C7.3347 34.4442 8.06749 35.7768 8.91719 37.0344C8.91719 36.9599 8.91719 36.8855 8.91719 36.811C8.8858 35.7452 8.85049 34.6441 8.85442 33.5548C8.83465 30.7008 9.2663 27.8615 10.1334 25.142C10.7616 23.0812 11.7983 21.1676 13.1818 19.5151C12.6675 19.4023 12.1849 19.1761 11.7694 18.8529C5.53528 22.9516 2.48686 29.946 3.60108 37.4066C3.7894 36.8698 3.99342 36.3212 4.21705 35.7844C4.65001 34.7174 5.29764 33.7505 6.11986 32.9435Z" fill="#CE97C4"/>
<path d="M1.84375 19.0026C2.82846 18.4848 3.88706 18.1214 4.98242 17.9251C6.87081 17.5365 8.78313 17.2747 10.7065 17.1414C10.7065 16.9925 10.6752 16.8475 10.6555 16.7025C10.5849 16.0599 10.5182 15.4565 10.4398 14.8373C10.3515 14.3265 10.3743 13.8026 10.5065 13.3013C9.12565 12.741 7.67293 12.3769 6.1908 12.2198C5.37834 12.1336 4.55902 12.1336 3.74657 12.2198C3.067 12.2955 2.39987 12.4574 1.76136 12.7018C1.1197 12.9006 0.550752 13.2835 0.125338 13.8029C0.0578969 13.8789 0.0153592 13.9737 0.00343674 14.0746C-0.0084857 14.1754 0.010778 14.2775 0.058641 14.3671C0.214687 14.6785 0.354799 14.9976 0.478437 15.3232C0.87077 16.3185 1.21995 17.3177 1.59266 18.3287L1.84375 19.0026Z" fill="#CE97C4"/>
<path d="M16.199 17.9992C16.5639 17.9639 16.9405 17.9248 17.3015 17.866C17.5388 17.8351 17.7677 17.7577 17.9751 17.6384C18.1825 17.519 18.3643 17.3599 18.51 17.1703C18.6558 16.9807 18.7627 16.7642 18.8246 16.5333C18.8865 16.3023 18.9022 16.0615 18.8708 15.8245C18.8041 15.3621 18.7531 14.8958 18.706 14.4452C18.6785 14.2023 18.655 13.9593 18.6236 13.7164C18.6085 13.4773 18.5452 13.2438 18.4374 13.0298C18.3295 12.8159 18.1794 12.6259 17.9962 12.4714C17.8129 12.3169 17.6002 12.2011 17.3709 12.1308C17.1416 12.0606 16.9004 12.0375 16.662 12.0628C15.995 12.1137 15.4065 12.1686 14.869 12.2274C14.3315 12.2862 13.7665 12.3684 13.2644 12.4546C12.8043 12.5226 12.3895 12.7688 12.1098 13.1398C11.8301 13.5109 11.7078 13.977 11.7696 14.4374C11.8441 14.9193 11.8951 15.4131 11.9461 15.8911L12.0167 16.5455C12.027 16.9941 12.2141 17.4206 12.5373 17.7324C12.8604 18.0442 13.2937 18.2161 13.743 18.2108C14.1796 18.223 14.6164 18.2008 15.0495 18.1442L15.2966 18.1207V18.0972L15.6576 18.0541L16.199 17.9992Z" fill="#BCAFD6"/>
<path d="M29.5489 17.3729C29.5678 17.358 29.5849 17.3409 29.5999 17.322C29.5829 17.2971 29.56 17.2769 29.5332 17.2632C29.2373 17.147 28.9294 17.0642 28.6151 17.0163C27.4666 16.8367 26.2998 16.8038 25.143 16.9184C24.1151 17.0085 23.1028 17.13 22.0279 17.2593H21.9102C22.1109 17.35 22.3216 17.4171 22.5379 17.4591C24.3469 17.8049 26.1928 17.9181 28.0305 17.7961C28.5666 17.8016 29.0931 17.6548 29.5489 17.3729Z" fill="#BCAFD6"/>
<path d="M6.62451 19.866L7.66027 19.5917C8.4208 19.3889 9.1394 19.0533 9.78279 18.6003C8.12036 18.749 6.47003 19.0108 4.84332 19.384C3.96795 19.5607 3.12675 19.8769 2.35201 20.3205C2.31321 20.3414 2.27862 20.3693 2.25 20.4028C2.29865 20.441 2.35291 20.4714 2.41086 20.4929C2.97416 20.6781 3.58077 20.6863 4.14889 20.5164C4.96494 20.3205 5.80846 20.0893 6.62451 19.866Z" fill="#BCAFD6"/>
<path d="M44.0807 33.3071C42.6915 32.5738 41.5412 31.4589 40.7655 30.094C39.9358 28.6012 39.5188 26.9147 39.5571 25.2077C39.5298 23.505 39.9592 21.826 40.8008 20.345C41.5864 18.9716 42.749 17.8512 44.1513 17.1162C45.6298 16.3766 47.2607 15.9916 48.9142 15.9916C50.5678 15.9916 52.1986 16.3766 53.6772 17.1162C55.0795 17.8512 56.2421 18.9716 57.0277 20.345C57.8627 21.8321 58.2853 23.5148 58.2518 25.2195C58.2854 26.9249 57.857 28.6078 57.012 30.0901C56.2074 31.4636 55.0274 32.5795 53.6105 33.3071C52.1347 34.0696 50.4932 34.456 48.8319 34.4317C47.1789 34.4591 45.5455 34.0725 44.0807 33.3071ZM51.535 28.5188C52.2726 27.7351 52.6453 26.6419 52.6453 25.2077C52.6453 23.7736 52.2844 22.6647 51.5664 21.8928C51.2242 21.5301 50.8114 21.2411 50.3533 21.0436C49.8951 20.8461 49.4014 20.7442 48.9025 20.7442C48.4035 20.7442 47.9098 20.8461 47.4517 21.0436C46.9936 21.2411 46.5807 21.5301 46.2385 21.8928C45.5284 22.6529 45.1753 23.7658 45.1753 25.2234C45.1753 26.6811 45.5245 27.7626 46.2228 28.5345C46.5469 28.9111 46.9502 29.2117 47.4038 29.4148C47.8575 29.618 48.3504 29.7188 48.8475 29.71C49.3508 29.7117 49.8488 29.6075 50.3091 29.4043C50.7695 29.2011 51.1818 28.9034 51.5193 28.5306L51.535 28.5188Z" fill="white"/>
<path d="M63.7838 33.3061C62.3946 32.5727 61.2443 31.4579 60.4686 30.093C59.639 28.6002 59.2219 26.9137 59.2602 25.2067C59.2248 23.5018 59.6475 21.8186 60.4843 20.3322C61.2683 18.9589 62.4296 17.8385 63.8309 17.1034C65.3101 16.3638 66.9416 15.9788 68.5958 15.9788C70.25 15.9788 71.8815 16.3638 73.3607 17.1034C74.762 17.8385 75.9232 18.9589 76.7073 20.3322C77.5441 21.8186 77.9668 23.5018 77.9313 25.2067C77.9669 26.9124 77.5385 28.5957 76.6916 30.0773C75.8956 31.4523 74.7239 32.5723 73.3136 33.3061C71.8366 34.0689 70.1937 34.4553 68.5311 34.4307C66.8794 34.4576 65.2474 34.071 63.7838 33.3061ZM71.2185 28.5178C71.9587 27.7341 72.3288 26.6304 72.3288 25.2067C72.3288 23.783 71.9705 22.678 71.2538 21.8918C70.9116 21.5291 70.4988 21.2401 70.0407 21.0426C69.5826 20.8451 69.0889 20.7432 68.5899 20.7432C68.0909 20.7432 67.5972 20.8451 67.1391 21.0426C66.681 21.2401 66.2682 21.5291 65.926 21.8918C65.2158 22.6519 64.8627 23.7648 64.8627 25.2224C64.8627 26.6801 65.2119 27.7615 65.9064 28.5335C66.2306 28.9099 66.6339 29.2103 67.0875 29.4135C67.5411 29.6166 68.034 29.7175 68.5311 29.709C69.037 29.7134 69.5382 29.6105 70.0015 29.4072C70.4647 29.2039 70.8795 28.9048 71.2185 28.5296V28.5178Z" fill="white"/>
<path d="M96.0422 18.3541C97.2976 19.7125 97.9254 21.5829 97.9254 23.9653V34.4432H92.4562V24.6863C92.5179 23.6683 92.1834 22.666 91.5225 21.8885C90.8432 21.249 89.945 20.8928 89.0116 20.8928C88.0781 20.8928 87.1799 21.249 86.5006 21.8885C85.8755 22.5547 85.5643 23.4873 85.5669 24.6863V34.4432H80.0742V16.5046H85.5669V18.8831C86.1441 18.0741 86.9195 17.4265 87.8189 17.0023C88.8193 16.5272 89.9167 16.2911 91.0242 16.3126C93.1167 16.3126 94.7893 16.9931 96.0422 18.3541Z" fill="white"/>
<path d="M101.052 13.7862C100.756 13.5211 100.521 13.1957 100.363 12.8319C100.205 12.4682 100.126 12.0747 100.134 11.6781C100.124 11.2766 100.201 10.8777 100.359 10.5085C100.518 10.1393 100.754 9.80857 101.052 9.53867C101.697 8.96249 102.541 8.65783 103.406 8.68837C104.265 8.65883 105.102 8.9637 105.74 9.53867C106.038 9.80857 106.274 10.1393 106.432 10.5085C106.591 10.8777 106.668 11.2766 106.658 11.6781C106.665 12.0747 106.587 12.4682 106.429 12.8319C106.27 13.1957 106.035 13.5211 105.74 13.7862C105.103 14.363 104.265 14.6682 103.406 14.6365C102.54 14.6691 101.696 14.3642 101.052 13.7862ZM106.152 16.5017V34.4402H100.659V16.5017H106.152Z" fill="white"/>
<path d="M118.354 21.0709H115.392V34.4444H109.899V21.0709H107.891V16.5059H109.888V15.9926C109.888 13.7826 110.521 12.1042 111.786 10.9574C113.052 9.81062 114.909 9.23723 117.358 9.23723C117.658 9.23248 117.957 9.24426 118.256 9.27249V13.9315C117.205 13.8688 116.467 14.0177 116.035 14.3821C115.604 14.7465 115.392 15.4009 115.392 16.3413V16.502H118.354V21.0709Z" fill="white"/>
<path d="M119.324 37.8926L121.235 33.6176C122.037 34.1387 122.954 34.4586 123.906 34.5502C124.185 34.5732 124.464 34.5192 124.714 34.3941C124.964 34.269 125.175 34.0777 125.323 33.841L118.488 16.7684H124.895L128.371 27.2502L131.655 16.7684H137.932L131.557 33.743C130.046 37.7947 128.418 39.4052 124.926 39.4052C122.959 39.3995 121.027 38.8779 119.324 37.8926Z" fill="white"/>
</svg>
