<svg width="702" height="204" viewBox="0 0 702 204" fill="none" xmlns="http://www.w3.org/2000/svg">
<path d="M32.5494 58.2414C38.107 58.8044 43.5917 59.9396 48.916 61.6289L44.929 26.9174L82.5862 22.6333C102.521 20.3617 115.2 28.8901 116.476 40.6665C116.876 43.9522 116.43 47.2856 115.18 50.3506C120.887 47.8141 126.929 46.1096 133.121 45.2894C135.686 44.967 138.272 44.8338 140.856 44.8909C141.476 41.5261 141.597 38.0886 141.215 34.6886C138.384 10.1993 114.721 -2.93208 84.2209 0.555009L13.332 8.62513L18.9936 58.2614C23.4978 57.7591 28.0436 57.7525 32.5494 58.2414Z" fill="#662D91"/>
<path d="M146.497 159.826C144.528 168.712 141.704 177.387 138.065 185.73L136.211 190.293C145.451 187.615 154.201 183.471 162.126 178.018C158.326 170.901 153.133 164.619 146.856 159.547L146.497 159.826Z" fill="#662D91"/>
<path d="M133.339 179.114C132.741 175.248 132.044 171.522 131.346 167.895C124.083 170.57 116.516 172.337 108.819 173.156L62.1514 178.476L56.3304 127.405C56.1311 127.963 55.9317 128.521 55.7523 129.099C51.4641 142.548 49.3313 156.59 49.4329 170.705C49.4329 176.165 49.5924 181.744 49.7718 187.144C49.7718 189.635 49.9113 192.126 49.9711 194.636L50.1306 200.614L46.5024 195.812C41.0725 188.456 36.3974 180.572 32.5479 172.279L32.1094 172.817L35.598 203.404L117.332 194.098C123.441 193.419 129.483 192.226 135.393 190.532L134.137 183.179C133.778 181.744 133.539 180.429 133.339 179.114Z" fill="#662D91"/>
<path d="M190.035 121.825C189.051 111.807 185.354 102.246 179.34 94.171C173.327 86.0959 165.225 79.812 155.906 75.9951L155.607 78.6652L155.129 83.049L154.889 85.0416L152.896 84.663C153.873 85.3514 154.578 86.3593 154.889 87.5125C154.955 88.2827 154.816 89.0565 154.487 89.756C154.158 90.4556 153.65 91.0563 153.016 91.4977C150.584 93.1475 147.755 94.1175 144.822 94.3073L143.566 94.4468C155.069 101.262 162.305 111.822 163.701 124.137C164.472 130.649 163.409 137.246 160.631 143.186C164.407 153.04 166.731 163.391 167.528 173.913C183.935 160.163 192.268 141.293 190.035 121.825Z" fill="#662D91"/>
<path d="M48.042 100.407C45.6478 101.637 43.1281 102.606 40.5265 103.297L35.2836 104.711C31.7751 105.668 28.1668 106.704 24.5586 107.541L26.6518 125.933C32.2609 116.258 39.497 107.623 48.042 100.407Z" fill="#662D91"/>
<path d="M150.892 50.8102C145.363 48.6938 139.366 48.1019 133.529 49.0965C126.694 50.0311 120.052 52.049 113.853 55.0744C109.24 57.3017 104.83 59.9287 100.676 62.9253C102.192 67.3719 103.038 72.019 103.188 76.7143C103.307 78.3084 103.447 79.9224 103.626 81.5364L109.726 80.8191L116.046 80.0619C118.956 79.7431 121.907 79.4243 124.837 79.1652C131.462 78.4397 138.147 78.4397 144.772 79.1652C146.766 79.4243 148.899 79.8626 150.872 80.2811L151.51 80.4006L151.749 78.149C152.108 74.8213 152.487 71.394 152.965 68.0065C153.384 64.918 153.942 61.8294 154.48 58.8405C154.72 57.5851 154.939 56.3497 155.158 55.1143L155.019 53.9585C153.98 52.5288 152.546 51.4344 150.892 50.8102Z" fill="#CE97C4"/>
<path d="M142.751 119.795C132.225 106.823 118.629 97.2583 101.027 90.583C99.5729 92.663 97.6727 94.3922 95.4648 95.6443C96.4417 96.3616 97.4583 97.059 98.3156 97.8162C108.542 106.125 116.815 117.264 123.593 131.89C130.208 146.571 134.737 162.105 137.049 178.039C139.861 170.794 141.99 163.303 143.409 155.662L143.927 152.813L146.359 154.407C153.424 159.296 159.336 165.668 163.682 173.078C162.263 153.608 154.964 135.028 142.751 119.795Z" fill="#CE97C4"/>
<path d="M31.7517 167.538L33.7452 165.545L34.8417 168.095C37.9245 175.169 41.6479 181.945 45.9654 188.34C45.9654 187.962 45.9654 187.583 45.9654 187.205C45.8059 181.785 45.6265 176.185 45.6464 170.646C45.546 156.132 47.7393 141.694 52.1452 127.864C55.337 117.385 60.6046 107.654 67.6347 99.2503C65.0212 98.6768 62.5692 97.5262 60.4581 95.8828C28.7814 116.726 13.2919 152.294 18.9535 190.233C19.9103 187.504 20.947 184.714 22.0832 181.984C24.2832 176.558 27.5739 171.641 31.7517 167.538Z" fill="#CE97C4"/>
<path d="M10.0207 96.6386C15.0242 94.0055 20.4031 92.1573 25.9687 91.1589C35.5639 89.1832 45.2807 87.8518 55.0539 87.1737C55.0539 86.4165 54.8944 85.6792 54.7947 84.9419C54.4359 81.674 54.097 78.6054 53.6983 75.4571C53.2499 72.8592 53.3655 70.1953 54.0372 67.646C47.0211 64.7963 39.6396 62.9451 32.1087 62.1463C27.9805 61.7077 23.8174 61.7077 19.6892 62.1463C16.2362 62.531 12.8464 63.3546 9.6021 64.5973C6.3417 65.6084 3.4508 67.5556 1.2892 70.1965C0.946526 70.5831 0.730386 71.0652 0.669806 71.5781C0.609227 72.0911 0.707108 72.6102 0.950307 73.0659C1.7432 74.6494 2.45513 76.2722 3.08335 77.9279C5.07685 82.9892 6.85107 88.0704 8.74489 93.2113L10.0207 96.6386Z" fill="#CE97C4"/>
<path d="M82.9495 91.5376C84.8034 91.3583 86.7172 91.159 88.5512 90.8602C89.7572 90.703 90.9204 90.3096 91.9742 89.7026C93.0279 89.0955 93.9516 88.2867 94.6922 87.3224C95.4329 86.3581 95.976 85.2573 96.2906 84.083C96.6051 82.9086 96.6848 81.6838 96.5252 80.4786C96.1863 78.1273 95.9271 75.7561 95.6879 73.4646C95.5484 72.2291 95.4288 70.9937 95.2693 69.7583C95.1927 68.5426 94.8708 67.355 94.3229 66.2669C93.775 65.1789 93.0124 64.213 92.0811 63.4273C91.1499 62.6417 90.0691 62.0525 88.904 61.6954C87.7389 61.3383 86.5136 61.2206 85.3018 61.3494C81.9128 61.6085 78.9226 61.8874 76.1915 62.1863C73.4604 62.4852 70.5898 62.9037 68.0381 63.342C65.7005 63.6878 63.5931 64.9394 62.1717 66.8263C60.7503 68.7132 60.1292 71.0836 60.4429 73.4247C60.8216 75.8756 61.0808 78.3863 61.3399 80.8173L61.6988 84.145C61.7511 86.4265 62.7015 88.5954 64.3436 90.1808C65.9858 91.7663 68.1872 92.6405 70.4702 92.6137C72.6884 92.6758 74.9081 92.5625 77.1085 92.2749L78.3644 92.1554V92.0358L80.1984 91.8166L82.9495 91.5376Z" fill="#BCAFD6"/>
<path d="M150.79 88.3495C150.886 88.2734 150.973 88.1865 151.049 88.0905C150.963 87.9641 150.846 87.8614 150.71 87.7916C149.207 87.2006 147.642 86.7796 146.045 86.5362C140.21 85.6226 134.281 85.4552 128.403 86.0381C123.18 86.4964 118.037 87.1141 112.575 87.7716H111.977C112.997 88.2331 114.067 88.5741 115.166 88.7879C124.358 90.546 133.737 91.1219 143.075 90.5015C145.799 90.5294 148.474 89.783 150.79 88.3495Z" fill="#BCAFD6"/>
<path d="M34.3252 101.022L39.588 99.6273C43.4524 98.5961 47.1037 96.8894 50.3729 94.5859C41.9258 95.3419 33.5403 96.6734 25.2747 98.5712C20.8268 99.4694 16.5525 101.077 12.616 103.334C12.4188 103.44 12.2431 103.582 12.0977 103.752C12.3449 103.946 12.6206 104.101 12.915 104.21C15.7772 105.152 18.8595 105.194 21.7462 104.33C25.8927 103.334 30.1787 102.158 34.3252 101.022Z" fill="#BCAFD6"/>
<path d="M224.642 169.371C217.583 165.641 211.738 159.972 207.797 153.031C203.581 145.44 201.462 136.864 201.657 128.183C201.518 119.524 203.7 110.986 207.976 103.455C211.968 96.4705 217.875 90.7733 225.001 87.0354C232.513 83.2746 240.8 81.3164 249.202 81.3164C257.604 81.3164 265.89 83.2746 273.403 87.0354C280.528 90.7733 286.436 96.4705 290.427 103.455C294.67 111.017 296.818 119.574 296.647 128.243C296.818 136.915 294.642 145.473 290.348 153.011C286.259 159.996 280.264 165.671 273.064 169.371C265.566 173.248 257.225 175.213 248.783 175.089C240.385 175.229 232.085 173.263 224.642 169.371ZM262.518 145.021C266.266 141.036 268.16 135.476 268.16 128.183C268.16 120.89 266.326 115.251 262.678 111.326C260.939 109.481 258.841 108.012 256.514 107.007C254.186 106.003 251.677 105.485 249.142 105.485C246.607 105.485 244.098 106.003 241.77 107.007C239.443 108.012 237.345 109.481 235.606 111.326C231.998 115.191 230.204 120.85 230.204 128.263C230.204 135.675 231.978 141.175 235.526 145.1C237.173 147.016 239.222 148.544 241.527 149.577C243.832 150.611 246.337 151.123 248.863 151.078C251.42 151.087 253.951 150.557 256.289 149.524C258.628 148.49 260.724 146.977 262.439 145.081L262.518 145.021Z" fill="#662D91"/>
<path d="M324.759 169.368C317.7 165.639 311.855 159.969 307.914 153.029C303.698 145.437 301.579 136.861 301.774 128.181C301.594 119.511 303.742 110.951 307.994 103.392C311.978 96.4089 317.878 90.7114 324.998 86.9732C332.514 83.2121 340.804 81.2539 349.209 81.2539C357.615 81.2539 365.904 83.2121 373.42 86.9732C380.541 90.7114 386.441 96.4089 390.425 103.392C394.677 110.951 396.825 119.511 396.645 128.181C396.826 136.854 394.648 145.415 390.345 152.949C386.301 159.941 380.347 165.636 373.181 169.368C365.676 173.247 357.328 175.212 348.88 175.087C340.488 175.224 332.196 173.258 324.759 169.368ZM362.536 145.018C366.297 141.033 368.178 135.421 368.178 128.181C368.178 120.941 366.357 115.322 362.715 111.323C360.977 109.479 358.879 108.009 356.551 107.005C354.223 106 351.715 105.482 349.179 105.482C346.644 105.482 344.136 106 341.808 107.005C339.48 108.009 337.382 109.479 335.644 111.323C332.035 115.189 330.241 120.848 330.241 128.26C330.241 135.673 332.015 141.173 335.544 145.098C337.192 147.012 339.241 148.54 341.545 149.573C343.85 150.606 346.355 151.119 348.88 151.076C351.451 151.098 353.998 150.575 356.352 149.541C358.706 148.507 360.813 146.986 362.536 145.078V145.018Z" fill="#662D91"/>
<path d="M488.635 93.3299C495.015 100.238 498.204 109.749 498.204 121.864V175.147H470.415V125.531C470.728 120.354 469.028 115.257 465.67 111.303C462.219 108.051 457.655 106.24 452.912 106.24C448.169 106.24 443.605 108.051 440.154 111.303C436.977 114.691 435.396 119.433 435.409 125.531V175.147H407.5V83.9247H435.409V96.0199C438.342 91.9059 442.282 88.6127 446.852 86.4553C451.935 84.0393 457.511 82.8387 463.139 82.9483C473.771 82.9483 482.27 86.4088 488.635 93.3299Z" fill="#662D91"/>
<path d="M514.118 70.1183C512.617 68.7701 511.424 67.115 510.619 65.2654C509.814 63.4157 509.417 61.4147 509.453 59.3979C509.404 57.3561 509.795 55.3275 510.6 53.4502C511.405 51.5728 512.605 49.8907 514.118 48.5182C517.398 45.5882 521.683 44.0389 526.079 44.1942C530.444 44.044 534.697 45.5944 537.94 48.5182C539.454 49.8907 540.654 51.5728 541.459 53.4502C542.264 55.3275 542.655 57.3561 542.605 59.3979C542.642 61.4147 542.245 63.4157 541.44 65.2654C540.635 67.115 539.441 68.7701 537.94 70.1183C534.703 73.0513 530.446 74.6031 526.079 74.4422C521.682 74.6081 517.392 73.0574 514.118 70.1183ZM540.034 83.9271V175.149H512.125V83.9271H540.034Z" fill="#662D91"/>
<path d="M602.034 107.14H586.983V175.149H559.074V107.14H548.867V83.9263H559.014V81.316C559.014 70.0776 562.23 61.5426 568.663 55.7108C575.095 49.8791 584.531 46.9632 596.97 46.9632C598.494 46.9391 600.018 46.999 601.535 47.1425V70.8348C596.193 70.516 592.445 71.2732 590.252 73.1263C588.059 74.9795 586.983 78.3072 586.983 83.0894V83.9064H602.034V107.14Z" fill="#662D91"/>
<path d="M606.934 192.704L616.642 170.965C620.72 173.615 625.377 175.242 630.218 175.707C631.633 175.825 633.053 175.55 634.322 174.914C635.592 174.278 636.662 173.304 637.414 172.101L602.688 85.2822H635.241L652.904 138.585L669.589 85.2822H701.485L669.091 171.603C661.416 192.206 653.143 200.396 635.401 200.396C625.402 200.367 615.586 197.715 606.934 192.704Z" fill="#662D91"/>
</svg>
