<svg width="138" height="41" viewBox="0 0 138 41" fill="none" xmlns="http://www.w3.org/2000/svg">
<path d="M6.27427 11.4862C7.36805 11.5969 8.44746 11.8201 9.49532 12.1523L8.71066 5.32642L16.1218 4.48395C20.0451 4.03725 22.5404 5.71434 22.7915 8.03013C22.8703 8.67624 22.7825 9.33175 22.5365 9.93448C23.6597 9.43568 24.8488 9.1005 26.0675 8.9392C26.5723 8.8758 27.0811 8.84961 27.5897 8.86083C27.7117 8.19917 27.7355 7.52318 27.6603 6.8546C27.1032 2.03886 22.4462 -0.54338 16.4435 0.142344L2.49219 1.7293L3.60641 11.4901C4.49288 11.3913 5.38752 11.39 6.27427 11.4862Z" fill="white"/>
<path d="M28.7041 31.4601C28.3165 33.2075 27.7608 34.9135 27.0446 36.5541L26.6797 37.4514C28.4983 36.9249 30.2203 36.1099 31.78 35.0376C31.032 33.638 30.01 32.4028 28.7747 31.4053L28.7041 31.4601Z" fill="white"/>
<path d="M26.1141 35.2572C25.9964 34.497 25.859 33.7643 25.7217 33.0511C24.2923 33.5771 22.8032 33.9245 21.2884 34.0856L12.1039 35.1318L10.9582 25.0889C10.919 25.1986 10.8798 25.3083 10.8445 25.4219C10.0005 28.0666 9.58079 30.8279 9.60078 33.6036C9.60078 34.6772 9.63216 35.7744 9.66747 36.8363C9.66747 37.3261 9.69494 37.8159 9.70671 38.3096L9.73809 39.4851L9.02405 38.5408C7.9554 37.0942 7.03531 35.5439 6.27772 33.9132L6.19141 34.019L6.87799 40.0337L22.9636 38.2038C24.1661 38.0703 25.3552 37.8356 26.5182 37.5024L26.271 36.0565C26.2004 35.7744 26.1533 35.5158 26.1141 35.2572Z" fill="white"/>
<path d="M37.2703 23.9919C37.0766 22.0218 36.349 20.1417 35.1655 18.5537C33.982 16.9658 32.3876 15.7301 30.5535 14.9795L30.4947 15.5046L30.4005 16.3666L30.3534 16.7585L29.9611 16.684C30.1533 16.8194 30.2921 17.0176 30.3534 17.2443C30.3663 17.3958 30.3389 17.548 30.2742 17.6855C30.2094 17.8231 30.1096 17.9412 29.9847 18.028C29.5061 18.3524 28.9494 18.5432 28.3722 18.5805L28.125 18.608C30.3888 19.9481 31.8129 22.0248 32.0876 24.4464C32.2393 25.7269 32.0301 27.0243 31.4834 28.1924C32.2266 30.1302 32.6839 32.1655 32.8408 34.2346C36.0697 31.5309 37.7097 27.8202 37.2703 23.9919Z" fill="white"/>
<path d="M9.3248 19.7783C8.85361 20.0202 8.35772 20.2106 7.84571 20.3465L6.81387 20.6247C6.12337 20.8128 5.41325 21.0165 4.70312 21.1811L5.11507 24.7978C6.21899 22.8954 7.6431 21.1974 9.3248 19.7783Z" fill="white"/>
<path d="M29.5704 10.025C28.4821 9.60885 27.3019 9.49246 26.1531 9.68805C24.808 9.87182 23.5008 10.2686 22.2808 10.8636C21.3729 11.3016 20.5051 11.8182 19.6875 12.4074C19.9858 13.2818 20.1524 14.1957 20.1818 15.119C20.2054 15.4325 20.2328 15.7498 20.2682 16.0672L21.4687 15.9262L22.7124 15.7773C23.2852 15.7146 23.8658 15.6519 24.4426 15.6009C25.7464 15.4583 27.062 15.4583 28.3659 15.6009C28.7582 15.6519 29.178 15.7381 29.5664 15.8204L29.692 15.8439L29.7391 15.4011C29.8097 14.7467 29.8842 14.0728 29.9784 13.4066C30.0608 12.7993 30.1706 12.1919 30.2766 11.6042C30.3236 11.3573 30.3668 11.1144 30.41 10.8714L30.3825 10.6441C30.1781 10.363 29.8958 10.1478 29.5704 10.025Z" fill="#CE97C4"/>
<path d="M27.9663 23.5882C25.8948 21.0373 23.2191 19.1564 19.7548 17.8438C19.4687 18.2528 19.0947 18.5928 18.6602 18.839C18.8524 18.9801 19.0525 19.1172 19.2212 19.2661C21.2339 20.9001 22.862 23.0905 24.196 25.9666C25.4978 28.8536 26.3892 31.9082 26.8442 35.0417C27.3975 33.617 27.8165 32.1438 28.0958 30.6413L28.1978 30.081L28.6764 30.3945C30.0669 31.3559 31.2305 32.6089 32.0858 34.066C31.8065 30.2374 30.37 26.5836 27.9663 23.5882Z" fill="#CE97C4"/>
<path d="M6.11986 32.9764L6.51219 32.5845L6.72797 33.0861C7.3347 34.477 8.06749 35.8096 8.91719 37.0672C8.91719 36.9928 8.91719 36.9183 8.91719 36.8439C8.8858 35.7781 8.85049 34.677 8.85442 33.5877C8.83465 30.7336 9.2663 27.8944 10.1334 25.1748C10.7616 23.114 11.7983 21.2005 13.1818 19.548C12.6675 19.4352 12.1849 19.2089 11.7694 18.8857C5.53528 22.9844 2.48686 29.9788 3.60108 37.4395C3.7894 36.9026 3.99342 36.3541 4.21705 35.8172C4.65001 34.7502 5.29764 33.7833 6.11986 32.9764Z" fill="#CE97C4"/>
<path d="M1.84375 19.036C2.82846 18.5182 3.88706 18.1547 4.98242 17.9584C6.87081 17.5699 8.78313 17.3081 10.7065 17.1747C10.7065 17.0258 10.6752 16.8808 10.6555 16.7358C10.5849 16.0932 10.5182 15.4898 10.4398 14.8707C10.3515 14.3598 10.3743 13.836 10.5065 13.3347C9.12565 12.7743 7.67293 12.4102 6.1908 12.2532C5.37834 12.1669 4.55902 12.1669 3.74657 12.2532C3.067 12.3288 2.39987 12.4908 1.76136 12.7351C1.1197 12.934 0.550752 13.3169 0.125338 13.8362C0.0578969 13.9122 0.0153592 14.007 0.00343674 14.1079C-0.0084857 14.2088 0.010778 14.3108 0.058641 14.4005C0.214687 14.7119 0.354799 15.031 0.478437 15.3566C0.87077 16.3518 1.21995 17.351 1.59266 18.362L1.84375 19.036Z" fill="#CE97C4"/>
<path d="M16.199 18.0323C16.5639 17.997 16.9405 17.9578 17.3015 17.8991C17.5388 17.8682 17.7677 17.7908 17.9751 17.6714C18.1825 17.5521 18.3643 17.393 18.51 17.2034C18.6558 17.0138 18.7627 16.7973 18.8246 16.5664C18.8865 16.3354 18.9022 16.0946 18.8708 15.8576C18.8041 15.3952 18.7531 14.9289 18.706 14.4783C18.6785 14.2353 18.655 13.9924 18.6236 13.7495C18.6085 13.5104 18.5452 13.2769 18.4374 13.0629C18.3295 12.8489 18.1794 12.659 17.9962 12.5045C17.8129 12.35 17.6002 12.2342 17.3709 12.1639C17.1416 12.0937 16.9004 12.0706 16.662 12.0959C15.995 12.1468 15.4065 12.2017 14.869 12.2605C14.3315 12.3192 13.7665 12.4015 13.2644 12.4877C12.8043 12.5557 12.3895 12.8019 12.1098 13.1729C11.8301 13.544 11.7078 14.0101 11.7696 14.4704C11.8441 14.9524 11.8951 15.4461 11.9461 15.9242L12.0167 16.5786C12.027 17.0272 12.2141 17.4537 12.5373 17.7655C12.8604 18.0773 13.2937 18.2492 13.743 18.2439C14.1796 18.2561 14.6164 18.2338 15.0495 18.1773L15.2966 18.1538V18.1303L15.6576 18.0872L16.199 18.0323Z" fill="#BCAFD6"/>
<path d="M29.5489 17.4061C29.5678 17.3912 29.5849 17.3741 29.5999 17.3552C29.5829 17.3303 29.56 17.3101 29.5332 17.2964C29.2373 17.1802 28.9294 17.0974 28.6151 17.0495C27.4666 16.8699 26.2998 16.837 25.143 16.9516C24.1151 17.0417 23.1028 17.1632 22.0279 17.2925H21.9102C22.1109 17.3832 22.3216 17.4503 22.5379 17.4923C24.3469 17.8381 26.1928 17.9513 28.0305 17.8293C28.5666 17.8348 29.0931 17.688 29.5489 17.4061Z" fill="#BCAFD6"/>
<path d="M6.62451 19.8994L7.66027 19.6251C8.4208 19.4224 9.1394 19.0867 9.78279 18.6338C8.12036 18.7824 6.47003 19.0443 4.84332 19.4175C3.96795 19.5941 3.12675 19.9103 2.35201 20.354C2.31321 20.3749 2.27862 20.4028 2.25 20.4363C2.29865 20.4744 2.35291 20.5048 2.41086 20.5264C2.97416 20.7116 3.58077 20.7198 4.14889 20.5499C4.96494 20.354 5.80846 20.1228 6.62451 19.8994Z" fill="#BCAFD6"/>
<path d="M44.0807 33.34C42.6915 32.6066 41.5412 31.4917 40.7655 30.1269C39.9358 28.634 39.5188 26.9476 39.5571 25.2406C39.5298 23.5379 39.9592 21.8588 40.8008 20.3778C41.5864 19.0044 42.749 17.8841 44.1513 17.149C45.6298 16.4095 47.2607 16.0244 48.9142 16.0244C50.5678 16.0244 52.1986 16.4095 53.6772 17.149C55.0795 17.8841 56.2421 19.0044 57.0277 20.3778C57.8627 21.8649 58.2853 23.5477 58.2518 25.2523C58.2854 26.9578 57.857 28.6406 57.012 30.1229C56.2074 31.4964 55.0274 32.6124 53.6105 33.34C52.1347 34.1025 50.4932 34.4888 48.8319 34.4645C47.1789 34.492 45.5455 34.1053 44.0807 33.34ZM51.535 28.5516C52.2726 27.768 52.6453 26.6747 52.6453 25.2406C52.6453 23.8064 52.2844 22.6975 51.5664 21.9256C51.2242 21.5629 50.8114 21.2739 50.3533 21.0764C49.8951 20.8789 49.4014 20.777 48.9025 20.777C48.4035 20.777 47.9098 20.8789 47.4517 21.0764C46.9936 21.2739 46.5807 21.5629 46.2385 21.9256C45.5284 22.6858 45.1753 23.7986 45.1753 25.2563C45.1753 26.7139 45.5245 27.7954 46.2228 28.5673C46.5469 28.9439 46.9502 29.2445 47.4038 29.4477C47.8575 29.6509 48.3504 29.7517 48.8475 29.7428C49.3508 29.7445 49.8488 29.6404 50.3091 29.4372C50.7695 29.234 51.1818 28.9362 51.5193 28.5634L51.535 28.5516Z" fill="white"/>
<path d="M63.7838 33.3391C62.3946 32.6057 61.2443 31.4908 60.4686 30.126C59.639 28.6331 59.2219 26.9467 59.2602 25.2397C59.2248 23.5348 59.6475 21.8516 60.4843 20.3652C61.2683 18.9919 62.4296 17.8715 63.8309 17.1364C65.3101 16.3968 66.9416 16.0117 68.5958 16.0117C70.25 16.0117 71.8815 16.3968 73.3607 17.1364C74.762 17.8715 75.9232 18.9919 76.7073 20.3652C77.5441 21.8516 77.9668 23.5348 77.9313 25.2397C77.9669 26.9454 77.5385 28.6287 76.6916 30.1103C75.8956 31.4852 74.7239 32.6052 73.3136 33.3391C71.8366 34.1019 70.1937 34.4882 68.5311 34.4637C66.8794 34.4906 65.2474 34.104 63.7838 33.3391ZM71.2185 28.5508C71.9587 27.7671 72.3288 26.6634 72.3288 25.2397C72.3288 23.816 71.9705 22.711 71.2538 21.9247C70.9116 21.562 70.4988 21.2731 70.0407 21.0755C69.5826 20.878 69.0889 20.7761 68.5899 20.7761C68.0909 20.7761 67.5972 20.878 67.1391 21.0755C66.681 21.2731 66.2682 21.562 65.926 21.9247C65.2158 22.6849 64.8627 23.7977 64.8627 25.2554C64.8627 26.713 65.2119 27.7945 65.9064 28.5664C66.2306 28.9428 66.6339 29.2433 67.0875 29.4464C67.5411 29.6496 68.034 29.7505 68.5311 29.742C69.037 29.7463 69.5382 29.6435 70.0015 29.4402C70.4647 29.2369 70.8795 28.9377 71.2185 28.5625V28.5508Z" fill="white"/>
<path d="M96.0422 18.3876C97.2976 19.746 97.9254 21.6164 97.9254 23.9988V34.4766H92.4562V24.7197C92.5179 23.7018 92.1834 22.6994 91.5225 21.922C90.8432 21.2825 89.945 20.9263 89.0116 20.9263C88.0781 20.9263 87.1799 21.2825 86.5006 21.922C85.8755 22.5881 85.5643 23.5207 85.5669 24.7197V34.4766H80.0742V16.5381H85.5669V18.9166C86.1441 18.1076 86.9195 17.46 87.8189 17.0357C88.8193 16.5606 89.9167 16.3245 91.0242 16.3461C93.1167 16.3461 94.7893 17.0266 96.0422 18.3876Z" fill="white"/>
<path d="M101.052 13.8197C100.756 13.5546 100.521 13.2291 100.363 12.8654C100.205 12.5017 100.126 12.1082 100.134 11.7116C100.124 11.31 100.201 10.9111 100.359 10.542C100.518 10.1728 100.754 9.84202 101.052 9.57212C101.697 8.99594 102.541 8.69127 103.406 8.72182C104.265 8.69228 105.102 8.99715 105.74 9.57212C106.038 9.84202 106.274 10.1728 106.432 10.542C106.591 10.9111 106.668 11.31 106.658 11.7116C106.665 12.1082 106.587 12.5017 106.429 12.8654C106.27 13.2291 106.035 13.5546 105.74 13.8197C105.103 14.3965 104.265 14.7016 103.406 14.67C102.54 14.7026 101.696 14.3977 101.052 13.8197ZM106.152 16.5352V34.4737H100.659V16.5352H106.152Z" fill="white"/>
<path d="M118.354 21.1042H115.392V34.4778H109.899V21.1042H107.891V16.5392H109.888V16.0259C109.888 13.8159 110.521 12.1375 111.786 10.9907C113.052 9.84395 114.909 9.27055 117.358 9.27055C117.658 9.26581 117.957 9.27758 118.256 9.30582V13.9648C117.205 13.9021 116.467 14.051 116.035 14.4154C115.604 14.7799 115.392 15.4342 115.392 16.3747V16.5353H118.354V21.1042Z" fill="white"/>
<path d="M119.324 37.926L121.235 33.651C122.037 34.172 122.954 34.4919 123.906 34.5836C124.185 34.6066 124.464 34.5526 124.714 34.4275C124.964 34.3024 125.175 34.111 125.323 33.8743L118.488 16.8018H124.895L128.371 27.2835L131.655 16.8018H137.932L131.557 33.7764C130.046 37.828 128.418 39.4385 124.926 39.4385C122.959 39.4328 121.027 38.9113 119.324 37.926Z" fill="white"/>
</svg>
