<svg width="70" height="69" viewBox="0 0 70 69" fill="none" xmlns="http://www.w3.org/2000/svg">
<rect x="1.59099" y="0.85674" width="66.8162" height="66.8162" rx="33.4081" stroke="#C2ABD3" stroke-width="1.71324"/>
<path d="M38.1389 46.543H32.9992V38.2624H31.9141C31.2516 38.2624 30.7148 37.7256 30.7148 37.0632V34.893C30.7148 34.2306 31.2516 33.6938 31.9141 33.6938H32.9992V30.8384C32.9992 28.4741 34.918 26.5553 37.2822 26.5553H40.3661C41.0285 26.5553 41.5653 27.0921 41.5653 27.7545V30.4958C41.5653 31.1582 41.0285 31.695 40.3661 31.695H38.1389V33.6938H40.2861C40.6516 33.6938 40.9828 33.8537 41.2113 34.1278C41.4397 34.4019 41.5311 34.7674 41.4625 35.1215L41.0285 37.2916C40.9143 37.8512 40.4232 38.251 39.8521 38.251H38.1389V46.543ZM34.7124 44.8298H36.4256V36.5492H39.4409L39.6693 35.407H36.4371V31.181C36.4371 30.5186 36.9739 29.9818 37.6363 29.9818H39.8635V28.2685H37.2822C35.866 28.2685 34.7124 29.4221 34.7124 30.8384V35.407H32.4281V36.5492H34.7124V44.8298Z" fill="#662D91"/>
<path d="M38.4234 46.5425H31.5705C25.3686 46.5425 22.7188 43.8927 22.7188 37.6907V30.8378C22.7188 24.6359 25.3686 21.9861 31.5705 21.9861H38.4234C44.6253 21.9861 47.2751 24.6359 47.2751 30.8378V37.6907C47.2751 43.8927 44.6253 46.5425 38.4234 46.5425ZM31.5705 23.6993C26.3051 23.6993 24.432 25.5725 24.432 30.8378V37.6907C24.432 42.9561 26.3051 44.8292 31.5705 44.8292H38.4234C43.6887 44.8292 45.5619 42.9561 45.5619 37.6907V30.8378C45.5619 25.5725 43.6887 23.6993 38.4234 23.6993H31.5705Z" fill="#662D91"/>
</svg>
