<svg width="53" height="53" viewBox="0 0 53 53" fill="none" xmlns="http://www.w3.org/2000/svg">
<rect x="1.11949" y="0.650735" width="50.7574" height="50.7574" rx="25.3787" stroke="#C2ABD3" stroke-width="1.30147"/>
<path d="M28.8819 35.3567H24.9775V29.0662H24.1532C23.65 29.0662 23.2422 28.6585 23.2422 28.1552V26.5067C23.2422 26.0034 23.65 25.5956 24.1532 25.5956H24.9775V23.4265C24.9775 21.6305 26.4351 20.1729 28.2312 20.1729H30.5738C31.0771 20.1729 31.4848 20.5806 31.4848 21.0839V23.1662C31.4848 23.6695 31.0771 24.0773 30.5738 24.0773H28.8819V25.5956H30.5131C30.7907 25.5956 31.0423 25.7171 31.2159 25.9254C31.3894 26.1336 31.4588 26.4112 31.4067 26.6802L31.077 28.3287C30.9903 28.7539 30.6172 29.0575 30.1834 29.0575H28.8819V35.3567ZM26.279 34.0552H27.5804V27.7648H29.871L30.0445 26.8971H27.5891V23.6868C27.5891 23.1836 27.9969 22.7758 28.5001 22.7758H30.192V21.4743H28.2312C27.1553 21.4743 26.279 22.3506 26.279 23.4265V26.8971H24.5437V27.7648H26.279V34.0552Z" fill="white"/>
<path d="M29.0981 35.3563H23.8922C19.1809 35.3563 17.168 33.3434 17.168 28.6321V23.4262C17.168 18.7148 19.1809 16.7019 23.8922 16.7019H29.0981C33.8094 16.7019 35.8224 18.7148 35.8224 23.4262V28.6321C35.8224 33.3434 33.8094 35.3563 29.0981 35.3563ZM23.8922 18.0034C19.8924 18.0034 18.4694 19.4263 18.4694 23.4262V28.6321C18.4694 32.6319 19.8924 34.0548 23.8922 34.0548H29.0981C33.098 34.0548 34.5209 32.6319 34.5209 28.6321V23.4262C34.5209 19.4263 33.098 18.0034 29.0981 18.0034H23.8922Z" fill="white"/>
</svg>
