<svg width="53" height="53" viewBox="0 0 53 53" fill="none" xmlns="http://www.w3.org/2000/svg">
<rect x="0.650735" y="0.650735" width="50.7574" height="50.7574" rx="25.3787" stroke="#C2ABD3" stroke-width="1.30147"/>
<path d="M28.6294 35.3563H23.4235C18.7122 35.3563 16.6992 33.3434 16.6992 28.6321V23.4262C16.6992 18.7148 18.7122 16.7019 23.4235 16.7019H28.6294C33.3407 16.7019 35.3536 18.7148 35.3536 23.4262V28.6321C35.3536 33.3434 33.3407 35.3563 28.6294 35.3563ZM23.4235 18.0034C19.4236 18.0034 18.0007 19.4263 18.0007 23.4262V28.6321C18.0007 32.6319 19.4236 34.0548 23.4235 34.0548H28.6294C32.6292 34.0548 34.0522 32.6319 34.0522 28.6321V23.4262C34.0522 19.4263 32.6292 18.0034 28.6294 18.0034H23.4235Z" fill="white"/>
<path d="M26.0312 29.7173C24.001 29.7173 22.3438 28.0601 22.3438 26.0298C22.3438 23.9995 24.001 22.3423 26.0312 22.3423C28.0615 22.3423 29.7188 23.9995 29.7188 26.0298C29.7188 28.0601 28.0615 29.7173 26.0312 29.7173ZM26.0312 23.6438C24.7124 23.6438 23.6452 24.711 23.6452 26.0298C23.6452 27.3486 24.7124 28.4158 26.0312 28.4158C27.3501 28.4158 28.4173 27.3486 28.4173 26.0298C28.4173 24.711 27.3501 23.6438 26.0312 23.6438Z" fill="white"/>
<path d="M30.3676 22.125C30.2549 22.125 30.1421 22.0989 30.0379 22.0556C29.9338 22.0122 29.8384 21.9514 29.7516 21.8734C29.6735 21.7866 29.6041 21.6912 29.5607 21.587C29.5174 21.4829 29.5 21.3701 29.5 21.2573C29.5 21.1445 29.5174 21.0317 29.5607 20.9276C29.6128 20.8148 29.6735 20.7281 29.7516 20.6413C29.795 20.6066 29.8384 20.5632 29.8818 20.5372C29.9338 20.5025 29.9859 20.4764 30.0379 20.4591C30.09 20.4331 30.1421 20.4157 30.2028 20.407C30.4804 20.3463 30.7754 20.4417 30.9837 20.6413C31.0618 20.7281 31.1225 20.8148 31.1659 20.9276C31.2093 21.0317 31.2353 21.1445 31.2353 21.2573C31.2353 21.3701 31.2093 21.4829 31.1659 21.587C31.1225 21.6912 31.0618 21.7866 30.9837 21.8734C30.8969 21.9514 30.8015 22.0122 30.6974 22.0556C30.5932 22.0989 30.4804 22.125 30.3676 22.125Z" fill="white"/>
</svg>
