<svg width="70" height="69" viewBox="0 0 70 69" fill="none" xmlns="http://www.w3.org/2000/svg">
<rect x="1.35662" y="0.85674" width="66.8162" height="66.8162" rx="33.4081" stroke="#C2ABD3" stroke-width="1.71324"/>
<path d="M38.189 46.5425H31.3361C25.1342 46.5425 22.4844 43.8927 22.4844 37.6907V30.8378C22.4844 24.6359 25.1342 21.9861 31.3361 21.9861H38.189C44.3909 21.9861 47.0408 24.6359 47.0408 30.8378V37.6907C47.0408 43.8927 44.3909 46.5425 38.189 46.5425ZM31.3361 23.6993C26.0707 23.6993 24.1976 25.5725 24.1976 30.8378V37.6907C24.1976 42.9561 26.0707 44.8292 31.3361 44.8292H38.189C43.4544 44.8292 45.3275 42.9561 45.3275 37.6907V30.8378C45.3275 25.5725 43.4544 23.6993 38.189 23.6993H31.3361Z" fill="#662D91"/>
<path d="M34.7682 39.1196C32.0956 39.1196 29.9141 36.9381 29.9141 34.2654C29.9141 31.5928 32.0956 29.4113 34.7682 29.4113C37.4409 29.4113 39.6224 31.5928 39.6224 34.2654C39.6224 36.9381 37.4409 39.1196 34.7682 39.1196ZM34.7682 31.1245C33.0322 31.1245 31.6273 32.5293 31.6273 34.2654C31.6273 36.0015 33.0322 37.4064 34.7682 37.4064C36.5043 37.4064 37.9092 36.0015 37.9092 34.2654C37.9092 32.5293 36.5043 31.1245 34.7682 31.1245Z" fill="#662D91"/>
<path d="M40.4781 29.125C40.3296 29.125 40.1811 29.0908 40.0441 29.0337C39.907 28.9766 39.7814 28.8966 39.6672 28.7938C39.5644 28.6796 39.473 28.554 39.4159 28.4169C39.3588 28.2798 39.3359 28.1314 39.3359 27.9829C39.3359 27.8344 39.3588 27.6859 39.4159 27.5489C39.4844 27.4004 39.5644 27.2862 39.6672 27.172C39.7243 27.1263 39.7814 27.0692 39.8385 27.0349C39.907 26.9892 39.9755 26.9549 40.0441 26.9321C40.1126 26.8978 40.1811 26.875 40.2611 26.8636C40.6266 26.7836 41.0149 26.9093 41.289 27.172C41.3918 27.2862 41.4718 27.4004 41.5289 27.5489C41.586 27.6859 41.6203 27.8344 41.6203 27.9829C41.6203 28.1314 41.586 28.2798 41.5289 28.4169C41.4718 28.554 41.3918 28.6796 41.289 28.7938C41.1748 28.8966 41.0492 28.9766 40.9121 29.0337C40.7751 29.0908 40.6266 29.125 40.4781 29.125Z" fill="#662D91"/>
</svg>
