<svg width="53" height="53" viewBox="0 0 53 53" fill="none" xmlns="http://www.w3.org/2000/svg">
<rect x="1.59214" y="0.650735" width="50.7574" height="50.7574" rx="25.3787" stroke="#C2ABD3" stroke-width="1.30147"/>
<path d="M26.9703 25.5875C25.825 25.5875 24.7491 25.145 23.9422 24.3294L18.9706 19.3578C18.5194 18.9066 18.3893 18.2385 18.6322 17.6572C18.8752 17.0759 19.4391 16.6941 20.0725 16.6941H21.2959C22.1983 16.6941 23.0486 17.0498 23.6819 17.6832L26.7881 20.7894C26.9182 20.9195 27.0224 20.9195 27.1525 20.7894L30.2587 17.6832C30.9007 17.0412 31.7423 16.6941 32.6447 16.6941H33.8681C34.5015 16.6941 35.0654 17.0759 35.3084 17.6572C35.5513 18.2385 35.4212 18.9066 34.97 19.3578L29.9984 24.3294C29.1915 25.145 28.1156 25.5875 26.9703 25.5875ZM20.0725 18.0042C19.925 18.0042 19.8556 18.1084 19.8296 18.1604C19.8035 18.2125 19.7775 18.3339 19.8816 18.4381L24.8532 23.4097C25.9812 24.5376 27.9507 24.5376 29.0787 23.4097L34.0503 18.4381C34.1544 18.3339 34.1284 18.2125 34.1023 18.1604C34.0763 18.1084 34.0156 18.0042 33.8594 18.0042H32.6361C32.0808 18.0042 31.5602 18.2212 31.1697 18.6116L28.0635 21.7178C27.4562 22.3251 26.467 22.3251 25.8597 21.7178L22.7535 18.6116C22.3631 18.2212 21.8425 18.0042 21.2872 18.0042H20.0725Z" fill="white"/>
<path d="M33.8681 35.3309H32.6447C31.7423 35.3309 30.892 34.9751 30.2587 34.3418L27.1525 31.2356C27.0224 31.1054 26.9182 31.1054 26.7881 31.2356L23.6819 34.3418C23.0399 34.9838 22.1983 35.3309 21.2959 35.3309H20.0725C19.4391 35.3309 18.8752 34.9491 18.6322 34.3678C18.3893 33.7865 18.5194 33.1184 18.9706 32.6672L23.9422 27.6956C24.7491 26.8887 25.825 26.4375 26.9703 26.4375C28.1156 26.4375 29.1915 26.88 29.9984 27.6956L34.97 32.6672C35.4212 33.1184 35.5513 33.7865 35.3084 34.3678C35.0654 34.9491 34.5015 35.3309 33.8681 35.3309ZM26.9703 29.8647C27.3694 29.8647 27.7685 30.0209 28.0722 30.3246L31.1784 33.4307C31.5688 33.8212 32.0894 34.0381 32.6447 34.0381H33.8681C34.0156 34.0381 34.085 33.934 34.111 33.8819C34.137 33.8299 34.1631 33.7084 34.059 33.6043L29.0874 28.6326C27.9594 27.5047 25.9899 27.5047 24.8619 28.6326L19.8903 33.6043C19.7862 33.7084 19.8122 33.8299 19.8383 33.8819C19.8643 33.934 19.925 34.0381 20.0812 34.0381H21.3045C21.8598 34.0381 22.3804 33.8212 22.7709 33.4307L25.8771 30.3246C26.1721 30.0122 26.5712 29.8647 26.9703 29.8647Z" fill="white"/>
</svg>
