<svg width="70" height="69" viewBox="0 0 70 69" fill="none" xmlns="http://www.w3.org/2000/svg">
<rect x="1.82537" y="0.85674" width="66.8162" height="66.8162" rx="33.4081" stroke="#C2ABD3" stroke-width="1.71324"/>
<path d="M35.2324 33.6832C33.7247 33.6832 32.3085 33.1007 31.2463 32.0271L24.7017 25.4825C24.1078 24.8886 23.9365 24.0091 24.2563 23.2439C24.5761 22.4786 25.3185 21.9761 26.1522 21.9761H27.7627C28.9506 21.9761 30.0699 22.4444 30.9036 23.2781L34.9925 27.3671C35.1638 27.5384 35.3009 27.5384 35.4723 27.3671L39.5611 23.2781C40.4063 22.4329 41.5142 21.9761 42.7021 21.9761H44.3126C45.1463 21.9761 45.8887 22.4786 46.2085 23.2439C46.5283 24.0091 46.357 24.8886 45.763 25.4825L39.2185 32.0271C38.1563 33.1007 36.74 33.6832 35.2324 33.6832ZM26.1522 23.7007C25.9581 23.7007 25.8667 23.8378 25.8325 23.9063C25.7982 23.9748 25.7639 24.1348 25.901 24.2718L32.4455 30.8164C33.9303 32.3012 36.523 32.3012 38.0078 30.8164L44.5524 24.2718C44.6894 24.1348 44.6552 23.9748 44.6209 23.9063C44.5866 23.8378 44.5067 23.7007 44.3011 23.7007H42.6907C41.9597 23.7007 41.2744 23.9863 40.7605 24.5002L36.6715 28.5892C35.872 29.3887 34.5699 29.3887 33.7704 28.5892L29.6815 24.5002C29.1676 23.9863 28.4823 23.7007 27.7513 23.7007H26.1522Z" fill="#662D91"/>
<path d="M44.3126 46.509H42.7021C41.5142 46.509 40.3949 46.0407 39.5611 45.2069L35.4723 41.118C35.3009 40.9467 35.1638 40.9467 34.9925 41.118L30.9036 45.2069C30.0584 46.0521 28.9506 46.509 27.7627 46.509H26.1522C25.3185 46.509 24.5761 46.0064 24.2563 45.2412C23.9365 44.4759 24.1078 43.5965 24.7017 43.0026L31.2463 36.458C32.3085 35.3958 33.7247 34.8019 35.2324 34.8019C36.74 34.8019 38.1563 35.3844 39.2185 36.458L45.763 43.0026C46.357 43.5965 46.5283 44.4759 46.2085 45.2412C45.8887 46.0064 45.1463 46.509 44.3126 46.509ZM35.2324 39.3134C35.7578 39.3134 36.2832 39.519 36.683 39.9187L40.7718 44.0077C41.2858 44.5216 41.9711 44.8072 42.7021 44.8072H44.3126C44.5067 44.8072 44.5981 44.6701 44.6323 44.6016C44.6666 44.5331 44.7009 44.3732 44.5638 44.2361L38.0193 37.6915C36.5345 36.2067 33.9418 36.2067 32.457 37.6915L25.9124 44.2361C25.7754 44.3732 25.8096 44.5331 25.8439 44.6016C25.8782 44.6701 25.9581 44.8072 26.1637 44.8072H27.7741C28.5051 44.8072 29.1904 44.5216 29.7043 44.0077L33.7933 39.9187C34.1816 39.5076 34.707 39.3134 35.2324 39.3134Z" fill="#662D91"/>
</svg>
