<svg width="257" height="67" viewBox="0 0 257 67" fill="none" xmlns="http://www.w3.org/2000/svg">
<rect x="0.71875" y="0.324951" width="255.845" height="66.4659" rx="11.7961" fill="black"/>
<path d="M30.3364 37.4719C30.0644 38.1003 29.7425 38.6788 29.3694 39.2105C28.8609 39.9355 28.4446 40.4373 28.1238 40.716C27.6264 41.1734 27.0935 41.4077 26.5228 41.421C26.1132 41.421 25.6191 41.3044 25.044 41.0679C24.467 40.8326 23.9368 40.716 23.452 40.716C22.9435 40.716 22.3981 40.8326 21.8148 41.0679C21.2306 41.3044 20.76 41.4277 20.4002 41.4399C19.853 41.4632 19.3075 41.2223 18.7631 40.716C18.4156 40.4129 17.9809 39.8933 17.4602 39.1573C16.9016 38.3712 16.4423 37.4597 16.0824 36.4206C15.6971 35.2981 15.5039 34.2112 15.5039 33.159C15.5039 31.9536 15.7644 30.914 16.2861 30.0428C16.6961 29.343 17.2415 28.791 17.9242 28.3858C18.6069 27.9806 19.3445 27.7741 20.1388 27.7609C20.5735 27.7609 21.1435 27.8953 21.8518 28.1595C22.5581 28.4247 23.0116 28.5591 23.2105 28.5591C23.3591 28.5591 23.863 28.4019 24.7171 28.0885C25.5247 27.7978 26.2064 27.6775 26.7649 27.7249C28.2781 27.847 29.4149 28.4435 30.171 29.5182C28.8176 30.3382 28.1482 31.4868 28.1615 32.9601C28.1737 34.1078 28.5901 35.0628 29.4083 35.821C29.7791 36.173 30.1932 36.445 30.6539 36.6382C30.554 36.9279 30.4486 37.2055 30.3364 37.4719ZM26.8659 23.8151C26.8659 24.7147 26.5373 25.5545 25.8822 26.3319C25.0918 27.256 24.1356 27.7901 23.0988 27.7058C23.0856 27.5979 23.0779 27.4843 23.0779 27.365C23.0779 26.5014 23.4538 25.5773 24.1214 24.8217C24.4547 24.4391 24.8786 24.121 25.3926 23.8672C25.9055 23.6172 26.3907 23.479 26.847 23.4553C26.8603 23.5756 26.8659 23.6958 26.8659 23.8151Z" fill="white"/>
<path d="M44.8279 41.5579L49.6478 26.2702H53.3954L58.2153 41.5579H55.5824L51.2084 27.8414H51.7817L47.4608 41.5579H44.8279ZM47.5139 38.2455V35.8568H55.5399V38.2455H47.5139ZM65.4323 41.8764C64.314 41.8764 63.3763 41.6109 62.6189 41.0801C61.8616 40.5493 61.2919 39.8274 60.9097 38.9144C60.5275 37.9943 60.3364 36.9645 60.3364 35.825C60.3364 34.6713 60.5275 33.638 60.9097 32.725C61.2919 31.8119 61.851 31.0936 62.5871 30.5698C63.3303 30.039 64.2468 29.7736 65.3368 29.7736C66.4196 29.7736 67.3574 30.039 68.1501 30.5698C68.9499 31.0936 69.5692 31.8119 70.008 32.725C70.4468 33.6309 70.6662 34.6642 70.6662 35.825C70.6662 36.9715 70.4504 38.0013 70.0186 38.9144C69.5869 39.8274 68.9782 40.5493 68.1926 41.0801C67.407 41.6109 66.4869 41.8764 65.4323 41.8764ZM59.9011 46.6538V30.0921H62.1624V38.1394H62.4809V46.6538H59.9011ZM65.0395 39.5832C65.7048 39.5832 66.2533 39.4169 66.6851 39.0842C67.1168 38.7516 67.4353 38.3021 67.6405 37.7359C67.8529 37.1626 67.959 36.5257 67.959 35.825C67.959 35.1314 67.8529 34.5015 67.6405 33.9352C67.4282 33.362 67.0991 32.909 66.6532 32.5763C66.2073 32.2366 65.6411 32.0667 64.9546 32.0667C64.3034 32.0667 63.7726 32.226 63.3621 32.5445C62.9516 32.8559 62.6473 33.2947 62.4491 33.8609C62.258 34.4201 62.1624 35.0747 62.1624 35.825C62.1624 36.5681 62.258 37.2228 62.4491 37.789C62.6473 38.3552 62.9551 38.7976 63.3727 39.1161C63.7974 39.4275 64.353 39.5832 65.0395 39.5832ZM78.3039 41.8764C77.1857 41.8764 76.2479 41.6109 75.4906 41.0801C74.7333 40.5493 74.1635 39.8274 73.7813 38.9144C73.3991 37.9943 73.208 36.9645 73.208 35.825C73.208 34.6713 73.3991 33.638 73.7813 32.725C74.1635 31.8119 74.7227 31.0936 75.4587 30.5698C76.2019 30.039 77.1184 29.7736 78.2084 29.7736C79.2913 29.7736 80.2291 30.039 81.0218 30.5698C81.8215 31.0936 82.4408 31.8119 82.8796 32.725C83.3185 33.6309 83.5379 34.6642 83.5379 35.825C83.5379 36.9715 83.322 38.0013 82.8903 38.9144C82.4585 39.8274 81.8498 40.5493 81.0642 41.0801C80.2786 41.6109 79.3585 41.8764 78.3039 41.8764ZM72.7728 46.6538V30.0921H75.0341V38.1394H75.3526V46.6538H72.7728ZM77.9111 39.5832C78.5764 39.5832 79.125 39.4169 79.5567 39.0842C79.9884 38.7516 80.3069 38.3021 80.5122 37.7359C80.7245 37.1626 80.8307 36.5257 80.8307 35.825C80.8307 35.1314 80.7245 34.5015 80.5122 33.9352C80.2998 33.362 79.9707 32.909 79.5248 32.5763C79.0789 32.2366 78.5127 32.0667 77.8262 32.0667C77.1751 32.0667 76.6442 32.226 76.2337 32.5445C75.8232 32.8559 75.5189 33.2947 75.3207 33.8609C75.1296 34.4201 75.0341 35.0747 75.0341 35.825C75.0341 36.5681 75.1296 37.2228 75.3207 37.789C75.5189 38.3552 75.8268 38.7976 76.2444 39.1161C76.669 39.4275 77.2246 39.5832 77.9111 39.5832ZM85.878 41.5579V25.9517H88.4365V41.5579H85.878ZM96.617 41.8764C95.4563 41.8764 94.4371 41.6251 93.5595 41.1226C92.6818 40.6201 91.9953 39.9229 91.4999 39.0311C91.0115 38.1394 90.7673 37.1131 90.7673 35.9524C90.7673 34.6996 91.008 33.6132 91.4893 32.6931C91.9705 31.7659 92.6394 31.0476 93.4958 30.538C94.3522 30.0284 95.343 29.7736 96.4684 29.7736C97.6574 29.7736 98.666 30.0532 99.4941 30.6123C100.329 31.1643 100.949 31.9464 101.352 32.9585C101.755 33.9706 101.908 35.1632 101.808 36.5363H99.2711V35.602C99.2641 34.3564 99.0446 33.4469 98.6129 32.8736C98.1812 32.3003 97.5017 32.0137 96.5745 32.0137C95.5271 32.0137 94.7485 32.3392 94.2389 32.9904C93.7293 33.6344 93.4745 34.5793 93.4745 35.825C93.4745 36.9857 93.7293 37.8846 94.2389 38.5216C94.7485 39.1585 95.4917 39.477 96.4684 39.477C97.0983 39.477 97.6397 39.339 98.0927 39.063C98.5528 38.7799 98.9066 38.3729 99.1544 37.8421L101.681 38.6065C101.242 39.6398 100.563 40.4431 99.6427 41.0164C98.7297 41.5897 97.7211 41.8764 96.617 41.8764ZM92.6677 36.5363V34.6041H100.556V36.5363H92.6677ZM106.942 41.5579L111.762 26.2702H115.509L120.329 41.5579H117.696L113.322 27.8414H113.895L109.575 41.5579H106.942ZM109.628 38.2455V35.8568H117.654V38.2455H109.628ZM127.546 41.8764C126.428 41.8764 125.49 41.6109 124.733 41.0801C123.975 40.5493 123.406 39.8274 123.023 38.9144C122.641 37.9943 122.45 36.9645 122.45 35.825C122.45 34.6713 122.641 33.638 123.023 32.725C123.406 31.8119 123.965 31.0936 124.701 30.5698C125.444 30.039 126.361 29.7736 127.451 29.7736C128.533 29.7736 129.471 30.039 130.264 30.5698C131.064 31.0936 131.683 31.8119 132.122 32.725C132.561 33.6309 132.78 34.6642 132.78 35.825C132.78 36.9715 132.564 38.0013 132.132 38.9144C131.701 39.8274 131.092 40.5493 130.306 41.0801C129.521 41.6109 128.601 41.8764 127.546 41.8764ZM122.015 46.6538V30.0921H124.276V38.1394H124.595V46.6538H122.015ZM127.153 39.5832C127.819 39.5832 128.367 39.4169 128.799 39.0842C129.231 38.7516 129.549 38.3021 129.754 37.7359C129.967 37.1626 130.073 36.5257 130.073 35.825C130.073 35.1314 129.967 34.5015 129.754 33.9352C129.542 33.362 129.213 32.909 128.767 32.5763C128.321 32.2366 127.755 32.0667 127.068 32.0667C126.417 32.0667 125.886 32.226 125.476 32.5445C125.065 32.8559 124.761 33.2947 124.563 33.8609C124.372 34.4201 124.276 35.0747 124.276 35.825C124.276 36.5681 124.372 37.2228 124.563 37.789C124.761 38.3552 125.069 38.7976 125.486 39.1161C125.911 39.4275 126.467 39.5832 127.153 39.5832ZM140.418 41.8764C139.299 41.8764 138.362 41.6109 137.604 41.0801C136.847 40.5493 136.277 39.8274 135.895 38.9144C135.513 37.9943 135.322 36.9645 135.322 35.825C135.322 34.6713 135.513 33.638 135.895 32.725C136.277 31.8119 136.836 31.0936 137.573 30.5698C138.316 30.039 139.232 29.7736 140.322 29.7736C141.405 29.7736 142.343 30.039 143.136 30.5698C143.935 31.0936 144.555 31.8119 144.993 32.725C145.432 33.6309 145.652 34.6642 145.652 35.825C145.652 36.9715 145.436 38.0013 145.004 38.9144C144.572 39.8274 143.964 40.5493 143.178 41.0801C142.392 41.6109 141.472 41.8764 140.418 41.8764ZM134.887 46.6538V30.0921H137.148V38.1394H137.466V46.6538H134.887ZM140.025 39.5832C140.69 39.5832 141.239 39.4169 141.67 39.0842C142.102 38.7516 142.421 38.3021 142.626 37.7359C142.838 37.1626 142.944 36.5257 142.944 35.825C142.944 35.1314 142.838 34.5015 142.626 33.9352C142.414 33.362 142.085 32.909 141.639 32.5763C141.193 32.2366 140.627 32.0667 139.94 32.0667C139.289 32.0667 138.758 32.226 138.348 32.5445C137.937 32.8559 137.633 33.2947 137.435 33.8609C137.243 34.4201 137.148 35.0747 137.148 35.825C137.148 36.5681 137.243 37.2228 137.435 37.789C137.633 38.3552 137.941 38.7976 138.358 39.1161C138.783 39.4275 139.338 39.5832 140.025 39.5832ZM157.476 41.8764C156.358 41.8764 155.35 41.6817 154.451 41.2924C153.559 40.9032 152.823 40.3476 152.242 39.6257C151.669 38.8967 151.305 38.0332 151.149 37.0352L153.803 36.6318C154.03 37.5378 154.493 38.2384 155.194 38.7339C155.902 39.2293 156.716 39.477 157.636 39.477C158.181 39.477 158.694 39.3921 159.175 39.2222C159.656 39.0524 160.046 38.8047 160.343 38.4791C160.647 38.1535 160.799 37.7536 160.799 37.2794C160.799 37.0671 160.764 36.8725 160.693 36.6955C160.622 36.5115 160.516 36.3487 160.375 36.2072C160.24 36.0656 160.063 35.9382 159.844 35.825C159.632 35.7047 159.384 35.602 159.101 35.5171L155.151 34.3493C154.812 34.2502 154.444 34.1193 154.047 33.9565C153.658 33.7866 153.286 33.5566 152.933 33.2664C152.586 32.9691 152.299 32.594 152.073 32.1411C151.853 31.681 151.744 31.1148 151.744 30.4424C151.744 29.4586 151.991 28.6341 152.487 27.9688C152.989 27.2964 153.662 26.7939 154.504 26.4612C155.353 26.1286 156.294 25.9658 157.328 25.9729C158.375 25.98 159.31 26.1604 160.131 26.5143C160.952 26.8611 161.638 27.3672 162.19 28.0325C162.742 28.6978 163.131 29.5011 163.358 30.4424L160.608 30.9202C160.495 30.3823 160.276 29.9258 159.95 29.5506C159.632 29.1684 159.239 28.8783 158.772 28.6801C158.312 28.4819 157.82 28.3758 157.296 28.3616C156.786 28.3545 156.312 28.4324 155.873 28.5952C155.442 28.7509 155.091 28.9774 154.822 29.2746C154.56 29.5719 154.429 29.9187 154.429 30.315C154.429 30.6901 154.543 30.998 154.769 31.2387C154.996 31.4722 155.275 31.6598 155.608 31.8013C155.948 31.9358 156.291 32.049 156.638 32.1411L159.377 32.9054C159.752 33.0045 160.173 33.139 160.64 33.3089C161.107 33.4787 161.557 33.7158 161.988 34.0202C162.42 34.3245 162.774 34.7244 163.05 35.2198C163.333 35.7153 163.475 36.3452 163.475 37.1096C163.475 37.9023 163.308 38.5994 162.976 39.201C162.65 39.7955 162.208 40.291 161.649 40.6873C161.09 41.0837 160.449 41.3809 159.727 41.5791C159.012 41.7773 158.262 41.8764 157.476 41.8764ZM172.281 41.5579C171.523 41.6994 170.78 41.7596 170.051 41.7383C169.329 41.7242 168.682 41.5932 168.108 41.3455C167.535 41.0907 167.1 40.6909 166.802 40.1459C166.541 39.6504 166.403 39.1444 166.388 38.6277C166.374 38.111 166.367 37.5271 166.367 36.876V26.9071H168.915V36.7274C168.915 37.1874 168.919 37.5908 168.926 37.9376C168.94 38.2845 169.014 38.5676 169.149 38.787C169.404 39.2116 169.81 39.4487 170.37 39.4983C170.929 39.5478 171.566 39.5195 172.281 39.4133V41.5579ZM164.286 32.0986V30.0921H172.281V32.0986H164.286ZM179.017 41.8764C177.871 41.8764 176.869 41.618 176.013 41.1014C175.156 40.5847 174.491 39.8734 174.017 38.9674C173.55 38.0544 173.316 37.0069 173.316 35.825C173.316 34.6218 173.557 33.5672 174.038 32.6613C174.519 31.7553 175.188 31.0476 176.045 30.538C176.901 30.0284 177.892 29.7736 179.017 29.7736C180.171 29.7736 181.176 30.0319 182.032 30.5486C182.889 31.0653 183.554 31.7801 184.028 32.6931C184.502 33.5991 184.739 34.643 184.739 35.825C184.739 37.014 184.499 38.065 184.018 38.9781C183.543 39.884 182.878 40.5953 182.022 41.112C181.165 41.6216 180.164 41.8764 179.017 41.8764ZM179.017 39.477C180.036 39.477 180.794 39.1373 181.289 38.4579C181.785 37.7784 182.032 36.9008 182.032 35.825C182.032 34.7138 181.781 33.8291 181.279 33.1709C180.776 32.5056 180.022 32.1729 179.017 32.1729C178.331 32.1729 177.764 32.3286 177.319 32.64C176.88 32.9444 176.554 33.3726 176.342 33.9246C176.13 34.4696 176.023 35.1031 176.023 35.825C176.023 36.9362 176.275 37.8244 176.777 38.4897C177.287 39.1479 178.033 39.477 179.017 39.477ZM186.866 41.5579V30.0921H189.128V32.8842L188.852 32.5232C188.993 32.1411 189.181 31.7943 189.414 31.4828C189.655 31.1643 189.941 30.9025 190.274 30.6972C190.557 30.5061 190.869 30.3575 191.208 30.2513C191.555 30.1381 191.909 30.0708 192.27 30.0496C192.631 30.0213 192.981 30.0355 193.321 30.0921V32.4808C192.981 32.3817 192.589 32.3498 192.143 32.3852C191.704 32.4206 191.307 32.5445 190.954 32.7568C190.6 32.9479 190.31 33.1921 190.083 33.4893C189.864 33.7866 189.701 34.1263 189.595 34.5085C189.489 34.8836 189.435 35.2906 189.435 35.7294V41.5579H186.866ZM200.14 41.8764C198.979 41.8764 197.96 41.6251 197.082 41.1226C196.205 40.6201 195.518 39.9229 195.023 39.0311C194.535 38.1394 194.29 37.1131 194.29 35.9524C194.29 34.6996 194.531 33.6132 195.012 32.6931C195.494 31.7659 196.162 31.0476 197.019 30.538C197.875 30.0284 198.866 29.7736 199.991 29.7736C201.18 29.7736 202.189 30.0532 203.017 30.6123C203.852 31.1643 204.472 31.9464 204.875 32.9585C205.278 33.9706 205.431 35.1632 205.331 36.5363H202.794V35.602C202.787 34.3564 202.568 33.4469 202.136 32.8736C201.704 32.3003 201.025 32.0137 200.098 32.0137C199.05 32.0137 198.272 32.3392 197.762 32.9904C197.252 33.6344 196.998 34.5793 196.998 35.825C196.998 36.9857 197.252 37.8846 197.762 38.5216C198.272 39.1585 199.015 39.477 199.991 39.477C200.621 39.477 201.163 39.339 201.616 39.063C202.076 38.7799 202.43 38.3729 202.677 37.8421L205.204 38.6065C204.765 39.6398 204.086 40.4431 203.166 41.0164C202.253 41.5897 201.244 41.8764 200.14 41.8764ZM196.191 36.5363V34.6041H204.079V36.5363H196.191Z" fill="white"/>
<path opacity="0.5" d="M221.337 35.8674V33.8609H233.419L230.552 30.9945L231.773 29.7736L236.869 34.8695L231.773 39.9654L230.552 38.7445L233.429 35.8674H221.337Z" fill="white"/>
</svg>
