<svg width="168" height="57" viewBox="0 0 168 57" fill="none" xmlns="http://www.w3.org/2000/svg">
<g clip-path="url(#clip0_5686_52155)">
<mask id="mask0_5686_52155" style="mask-type:luminance" maskUnits="userSpaceOnUse" x="0" y="0" width="168" height="57">
<path d="M167.53 0.0673828H0V56.0674H167.53V0.0673828Z" fill="white"/>
</mask>
<g mask="url(#mask0_5686_52155)">
<path d="M154.188 0.0673852H13.3485C12.8352 0.0673852 12.3279 0.0673852 11.8159 0.0701852C11.3873 0.0729852 10.9621 0.0811192 10.5294 0.0879652C9.5893 0.0990277 8.65147 0.181732 7.72392 0.335359C6.79776 0.492331 5.90053 0.788267 5.06271 1.21316C4.2259 1.64164 3.46128 2.19842 2.7966 2.86328C2.12843 3.52628 1.57145 4.29261 1.14709 5.13281C0.72156 5.97135 0.426497 6.86992 0.27209 7.79748C0.116215 8.72387 0.0323377 9.66094 0.02121 10.6003C0.008218 11.0295 0.006846 11.4602 0 11.8894V44.2495C0.006846 44.6842 0.008218 45.1053 0.02121 45.5401C0.0323412 46.4794 0.116219 47.4164 0.27209 48.3428C0.42607 49.2708 0.721152 50.1699 1.14709 51.0088C1.57125 51.8463 2.12831 52.6095 2.7966 53.2688C3.45876 53.9366 4.22387 54.4938 5.06271 54.919C5.90053 55.345 6.79764 55.6427 7.72392 55.8021C8.65159 55.9545 9.58936 56.0372 10.5294 56.0496C10.9621 56.0592 11.3873 56.0646 11.8159 56.0646C12.3279 56.0674 12.8352 56.0674 13.3485 56.0674H154.188C154.692 56.0674 155.203 56.0674 155.706 56.0646C156.133 56.0646 156.57 56.0592 156.997 56.0496C157.935 56.0379 158.871 55.9551 159.797 55.8021C160.726 55.6415 161.626 55.3439 162.468 54.919C163.306 54.4935 164.071 53.9364 164.733 53.2688C165.399 52.6069 165.957 51.8442 166.387 51.0088C166.809 50.1693 167.102 49.2703 167.253 48.3428C167.41 47.4163 167.497 46.4795 167.513 45.5401C167.519 45.1053 167.519 44.6842 167.519 44.2495C167.53 43.7408 167.53 43.235 167.53 42.7181V13.418C167.53 12.9053 167.53 12.3967 167.519 11.8894C167.519 11.4602 167.519 11.0295 167.513 10.6002C167.497 9.66076 167.41 8.72393 167.253 7.79742C167.101 6.87039 166.809 5.97188 166.387 5.13275C165.523 3.44866 164.152 2.07782 162.468 1.21303C161.626 0.789177 160.726 0.493322 159.797 0.335233C158.871 0.180929 157.935 0.0981961 156.997 0.0877692C156.57 0.0809372 156.133 0.0727332 155.706 0.0700032C155.203 0.0672032 154.692 0.0673852 154.188 0.0673852Z" fill="black"/>
<path d="M11.8232 54.84C11.3966 54.84 10.9804 54.8345 10.5572 54.825C9.68052 54.8136 8.80581 54.7373 7.94038 54.5967C7.13346 54.4577 6.35167 54.1992 5.62097 53.8296C4.89694 53.4632 4.23658 52.9826 3.66517 52.4064C3.08548 51.837 2.60287 51.1766 2.23645 50.4513C1.866 49.7213 1.60962 48.9389 1.47625 48.1312C1.33223 47.2634 1.2543 46.3859 1.24315 45.5062C1.23428 45.211 1.22266 44.2279 1.22266 44.2279V11.8871C1.22266 11.8871 1.23503 10.9191 1.24322 10.6347C1.2539 9.75653 1.33137 8.88037 1.47497 8.01388C1.60858 7.20398 1.86516 6.41928 2.23581 5.68692C2.60088 4.96216 3.08081 4.30124 3.65701 3.72979C4.23255 3.15291 4.89503 2.66988 5.62028 2.29833C6.34934 1.92997 7.12961 1.67327 7.93496 1.53682C8.80319 1.39481 9.68087 1.31803 10.5607 1.30713L11.8239 1.29004H155.7L156.978 1.30782C157.85 1.31818 158.72 1.39427 159.58 1.53545C160.393 1.6736 161.182 1.9321 161.919 2.30244C163.372 3.05122 164.554 4.23587 165.3 5.69034C165.665 6.41765 165.918 7.19593 166.049 7.99883C166.195 8.87243 166.276 9.75548 166.293 10.6409C166.297 11.0374 166.297 11.4633 166.297 11.8871C166.308 12.4121 166.308 12.9118 166.308 13.4156V42.7157C166.308 43.2243 166.308 43.7206 166.297 44.221C166.297 44.6763 166.297 45.0933 166.292 45.5226C166.275 46.3923 166.195 47.2596 166.052 48.1175C165.922 48.931 165.666 49.7195 165.296 50.4555C164.927 51.1729 164.447 51.8276 163.874 52.3955C163.303 52.9748 162.641 53.4582 161.915 53.827C161.18 54.1994 160.392 54.4589 159.58 54.5967C158.715 54.7381 157.84 54.8144 156.963 54.825C156.553 54.8345 156.123 54.84 155.707 54.84L154.189 54.8428L11.8232 54.84Z" fill="black"/>
<path d="M34.6772 28.4886C34.6922 27.3201 35.0026 26.1744 35.5794 25.158C36.1563 24.1417 36.9808 23.2878 37.9763 22.6757C37.3439 21.7725 36.5096 21.0292 35.5396 20.5048C34.5697 19.9804 33.4908 19.6895 32.3887 19.655C30.0378 19.4082 27.7587 21.0618 26.5607 21.0618C25.3395 21.0618 23.495 19.6795 21.5088 19.7204C20.224 19.7619 18.9719 20.1355 17.8745 20.8047C16.7771 21.474 15.8717 22.4161 15.2467 23.5393C12.5391 28.2271 14.5587 35.1166 17.1524 38.9059C18.45 40.7614 19.9666 42.834 21.9511 42.7605C23.8929 42.68 24.6182 41.5222 26.9622 41.5222C29.2845 41.5222 29.9649 42.7605 31.9896 42.7137C34.0733 42.68 35.3862 40.8501 36.6383 38.977C37.5707 37.6548 38.2881 36.1937 38.7641 34.6475C37.5535 34.1354 36.5204 33.2784 35.7937 32.1832C35.0669 31.088 34.6786 29.8031 34.6772 28.4886Z" fill="white"/>
<path d="M30.8538 17.1613C31.99 15.7974 32.5497 14.0444 32.4141 12.2744C30.6783 12.4567 29.075 13.2863 27.9235 14.5979C27.3605 15.2386 26.9293 15.984 26.6546 16.7915C26.3798 17.599 26.2669 18.4527 26.3223 19.3038C27.1905 19.3127 28.0494 19.1246 28.8344 18.7534C29.6193 18.3823 30.3098 17.838 30.8538 17.1613Z" fill="white"/>
<path d="M59.2242 38.0621H52.5974L51.006 42.7612H48.1992L54.476 25.376H57.3922L63.6692 42.7612H60.8144L59.2242 38.0621ZM53.2838 35.8938H58.5365L55.9471 28.2676H55.8747L53.2838 35.8938Z" fill="white"/>
<path d="M77.2248 36.4234C77.2248 40.3623 75.1167 42.893 71.9352 42.893C71.1296 42.9351 70.3281 42.7495 69.6222 42.3573C68.917 41.9651 68.3366 41.3822 67.9469 40.6754H67.8868V46.9535H65.2852V30.0851H67.8034V32.1933H67.8512C68.259 31.4899 68.8493 30.91 69.5598 30.5154C70.2703 30.1209 71.0747 29.9263 71.8873 29.9525C75.1044 29.9525 77.2248 32.4955 77.2248 36.4234ZM74.5508 36.4234C74.5508 33.8572 73.2243 32.1701 71.2007 32.1701C69.2133 32.1701 67.8757 33.8928 67.8757 36.4234C67.8757 38.9773 69.2133 40.6877 71.2007 40.6877C73.2243 40.6877 74.5508 39.0129 74.5508 36.4234Z" fill="white"/>
<path d="M91.174 36.4234C91.174 40.3623 89.0659 42.893 85.8844 42.893C85.0788 42.9351 84.2773 42.7495 83.5715 42.3573C82.8662 41.9651 82.2858 41.3822 81.8961 40.6754H81.836V46.9535H79.2344V30.0851H81.7526V32.1933H81.8005C82.2082 31.4899 82.7985 30.91 83.509 30.5154C84.2195 30.1208 85.024 29.9263 85.8365 29.9525C89.0536 29.9525 91.174 32.4955 91.174 36.4234ZM88.5 36.4234C88.5 33.8572 87.1735 32.1701 85.1505 32.1701C83.1625 32.1701 81.8255 33.8928 81.8255 36.4234C81.8255 38.9773 83.1625 40.6877 85.1505 40.6877C87.1735 40.6877 88.5 39.0129 88.5 36.4234Z" fill="white"/>
<path d="M100.394 37.918C100.586 39.6421 102.261 40.774 104.55 40.774C106.743 40.774 108.321 39.642 108.321 38.0875C108.321 36.7381 107.369 35.9302 105.116 35.3764L102.863 34.8336C99.6706 34.0625 98.1884 32.5696 98.1884 30.1469C98.1884 27.1473 100.803 25.0869 104.515 25.0869C108.188 25.0869 110.707 27.1473 110.791 30.1469H108.165C108.008 28.4119 106.573 27.3647 104.477 27.3647C102.382 27.3647 100.948 28.4242 100.948 29.9664C100.948 31.1955 101.863 31.9188 104.105 32.4724L106.02 32.9427C109.587 33.7863 111.069 35.2191 111.069 37.7621C111.069 41.0146 108.478 43.0517 104.357 43.0517C100.502 43.0517 97.8985 41.0625 97.7305 37.9179L100.394 37.918Z" fill="white"/>
<path d="M116.683 27.0869V30.0865H119.094V32.1469H116.683V39.1346C116.683 40.2201 117.166 40.726 118.226 40.726C118.512 40.721 118.797 40.7009 119.081 40.6658V42.7138C118.605 42.8028 118.121 42.8432 117.636 42.8342C115.07 42.8342 114.069 41.8703 114.069 39.4121V32.1469H112.227V30.0865H114.069V27.0869H116.683Z" fill="white"/>
<path d="M120.492 36.4248C120.492 32.4367 122.841 29.9307 126.503 29.9307C130.178 29.9307 132.516 32.4367 132.516 36.4248C132.516 40.4238 130.191 42.919 126.503 42.919C122.817 42.919 120.492 40.4238 120.492 36.4248ZM129.865 36.4248C129.865 33.6891 128.612 32.0744 126.503 32.0744C124.395 32.0744 123.143 33.7014 123.143 36.4248C123.143 39.1715 124.395 40.7738 126.503 40.7738C128.612 40.7738 129.865 39.1715 129.865 36.4248Z" fill="white"/>
<path d="M134.66 30.085H137.142V32.2424H137.202C137.37 31.5686 137.764 30.9732 138.319 30.5561C138.875 30.1391 139.557 29.9259 140.25 29.9524C140.55 29.9514 140.849 29.984 141.142 30.0495V32.4831C140.764 32.3675 140.369 32.3143 139.973 32.3259C139.595 32.3105 139.218 32.3772 138.868 32.5212C138.518 32.6652 138.204 32.8833 137.947 33.1603C137.689 33.4374 137.495 33.7669 137.376 34.1262C137.258 34.4855 137.219 34.8662 137.262 35.2421V42.7602H134.66V30.085Z" fill="white"/>
<path d="M153.137 39.0389C152.787 41.3398 150.546 42.919 147.679 42.919C143.992 42.919 141.703 40.4485 141.703 36.485C141.703 32.5092 144.004 29.9307 147.57 29.9307C151.077 29.9307 153.282 32.3397 153.282 36.1828V37.0742H144.329V37.2315C144.288 37.6979 144.347 38.1679 144.501 38.61C144.655 39.0522 144.902 39.4565 145.224 39.7961C145.547 40.1357 145.938 40.4027 146.372 40.5795C146.805 40.7564 147.271 40.8389 147.739 40.8217C148.354 40.8793 148.971 40.7369 149.498 40.4157C150.026 40.0945 150.436 39.6116 150.667 39.0389H153.137ZM144.342 35.2559H150.679C150.702 34.8364 150.639 34.4167 150.492 34.023C150.345 33.6293 150.119 33.2702 149.827 32.9681C149.535 32.666 149.184 32.4276 148.795 32.2677C148.407 32.1077 147.99 32.0298 147.57 32.0389C147.146 32.0364 146.726 32.1178 146.334 32.2784C145.942 32.4391 145.586 32.6757 145.285 32.9748C144.986 33.2739 144.748 33.6295 144.585 34.021C144.423 34.4125 144.34 34.8322 144.342 35.2559Z" fill="white"/>
<path d="M52.9548 12.2917C53.5003 12.2526 54.0477 12.335 54.5574 12.533C55.0672 12.731 55.5267 13.0397 55.9027 13.4367C56.2787 13.8338 56.5619 14.3094 56.7318 14.8291C56.9018 15.349 56.9543 15.9 56.8855 16.4425C56.8855 19.1112 55.4431 20.6453 52.9548 20.6453H49.9375V12.2917H52.9548ZM51.235 19.4639H52.81C53.1997 19.4872 53.5898 19.4233 53.9517 19.2768C54.3137 19.1304 54.6384 18.9051 54.9023 18.6173C55.1662 18.3295 55.3626 17.9865 55.4772 17.6132C55.5918 17.2399 55.6217 16.8458 55.5648 16.4595C55.6176 16.0747 55.5846 15.6831 55.4683 15.3126C55.3519 14.942 55.155 14.6018 54.8918 14.3163C54.6284 14.0308 54.3053 13.8071 53.9454 13.6611C53.5854 13.5152 53.1977 13.4507 52.81 13.4722H51.235V19.4639Z" fill="white"/>
<path d="M58.3539 17.4907C58.3142 17.0764 58.3615 16.6584 58.4928 16.2634C58.6246 15.8686 58.837 15.5055 59.117 15.1975C59.397 14.8895 59.7376 14.6435 60.1185 14.4751C60.4989 14.3067 60.9107 14.2197 61.3266 14.2197C61.7431 14.2197 62.1544 14.3067 62.5353 14.4751C62.9156 14.6435 63.2569 14.8895 63.5369 15.1975C63.8169 15.5055 64.0292 15.8686 64.1604 16.2634C64.2923 16.6584 64.3395 17.0764 64.2999 17.4907C64.3401 17.9053 64.2934 18.3239 64.1622 18.7194C64.0315 19.115 63.8192 19.4787 63.5392 19.7873C63.2592 20.0959 62.9174 20.3425 62.5365 20.5112C62.1555 20.68 61.7437 20.7672 61.3266 20.7672C60.9101 20.7672 60.4983 20.68 60.1174 20.5112C59.7359 20.3425 59.3946 20.0959 59.1146 19.7873C58.8346 19.4787 58.6223 19.115 58.4916 18.7194C58.3604 18.3239 58.3135 17.9053 58.3539 17.4907ZM63.02 17.4907C63.02 16.1241 62.4064 15.325 61.329 15.325C60.2475 15.325 59.639 16.1241 59.639 17.4907C59.639 18.8681 60.2475 19.6611 61.329 19.6611C62.4064 19.6611 63.02 18.8626 63.02 17.4907Z" fill="white"/>
<path d="M72.2045 20.6449H70.9136L69.611 16.0019H69.5124L68.2151 20.6449H66.937L65.1992 14.3408H66.461L67.5903 19.1512H67.6831L68.9792 14.3408H70.1727L71.4689 19.1512H71.5675L72.691 14.3408H73.9352L72.2045 20.6449Z" fill="white"/>
<path d="M75.3945 14.3398H76.5921V15.3413H76.6855C76.843 14.9816 77.109 14.6801 77.4461 14.4787C77.7833 14.2774 78.1747 14.1863 78.5667 14.2181C78.873 14.195 79.181 14.2413 79.4674 14.3534C79.7538 14.4656 80.0116 14.6407 80.221 14.8659C80.4304 15.0911 80.5868 15.3605 80.6784 15.6542C80.7694 15.948 80.7933 16.2585 80.7484 16.5628V20.6438H79.5041V16.8753C79.5041 15.8622 79.0643 15.3584 78.1438 15.3584C77.9355 15.3486 77.7279 15.3841 77.5348 15.4623C77.3411 15.5404 77.1673 15.6594 77.0244 15.8112C76.8815 15.9629 76.773 16.1438 76.7065 16.3413C76.6394 16.539 76.6166 16.7486 76.6388 16.9559V20.6439H75.3945V14.3398Z" fill="white"/>
<path d="M82.7305 11.8799H83.9747V20.6449H82.7305V11.8799Z" fill="white"/>
<path d="M85.7053 17.4908C85.6663 17.0764 85.7135 16.6584 85.8448 16.2636C85.976 15.8686 86.1889 15.5055 86.4689 15.1975C86.7489 14.8896 87.0896 14.6435 87.4705 14.4751C87.8508 14.3067 88.2627 14.2197 88.6792 14.2197C89.0951 14.2197 89.5069 14.3067 89.8873 14.4751C90.2682 14.6435 90.6094 14.8896 90.8894 15.1975C91.1688 15.5055 91.3818 15.8686 91.513 16.2636C91.6443 16.6584 91.6921 17.0764 91.6524 17.4908C91.6927 17.9055 91.6454 18.3241 91.5148 18.7196C91.3835 19.1151 91.1712 19.4789 90.8912 19.7875C90.6112 20.096 90.2699 20.3426 89.8884 20.5113C89.5075 20.6801 89.0957 20.7672 88.6792 20.7672C88.2621 20.7672 87.8503 20.6801 87.4693 20.5113C87.0884 20.3426 86.7466 20.096 86.4666 19.7875C86.1866 19.4789 85.9743 19.1151 85.843 18.7196C85.7123 18.3241 85.6651 17.9055 85.7053 17.4908ZM90.372 17.4908C90.372 16.1243 89.7578 15.3251 88.6803 15.3251C87.5994 15.3251 86.991 16.1243 86.991 17.4908C86.991 18.8683 87.5994 19.6612 88.6803 19.6612C89.7578 19.6612 90.372 18.8627 90.372 17.4908Z" fill="white"/>
<path d="M92.9609 18.8627C92.9609 17.7279 93.8062 17.0737 95.3059 16.9808L97.0134 16.8823V16.3382C97.0134 15.6723 96.5729 15.2964 95.723 15.2964C95.0283 15.2964 94.547 15.5514 94.4088 15.9971H93.2042C93.3314 14.9142 94.3504 14.2197 95.7802 14.2197C97.361 14.2197 98.2524 15.0065 98.2524 16.3382V20.6455H97.0542V19.7596H96.9562C96.7561 20.0773 96.4755 20.3364 96.143 20.5103C95.8105 20.6842 95.4372 20.7667 95.0627 20.7494C94.7979 20.7769 94.5301 20.7487 94.2775 20.6665C94.0244 20.5843 93.791 20.45 93.5933 20.2722C93.3949 20.0945 93.2369 19.8772 93.1278 19.6345C93.0187 19.3917 92.9621 19.1288 92.9609 18.8627ZM97.0134 18.324V17.797L95.4739 17.8954C94.6059 17.9535 94.2122 18.2488 94.2122 18.8046C94.2122 19.372 94.7045 19.7021 95.3812 19.7021C95.5795 19.7222 95.7796 19.7022 95.9704 19.6433C96.1605 19.5843 96.3373 19.4877 96.4895 19.3591C96.6418 19.2306 96.7666 19.0727 96.8564 18.8948C96.9469 18.717 96.9999 18.5229 97.0134 18.324Z" fill="white"/>
<path d="M99.8867 17.4901C99.8867 15.4982 100.911 14.2363 102.504 14.2363C102.898 14.2181 103.289 14.3125 103.631 14.5083C103.974 14.7042 104.253 14.9934 104.437 15.3423H104.53V11.8799H105.774V20.6449H104.582V19.649H104.483C104.285 19.9954 103.996 20.281 103.647 20.4749C103.298 20.6688 102.903 20.7635 102.504 20.7488C100.9 20.7489 99.8867 19.487 99.8867 17.4901ZM101.172 17.4901C101.172 18.8273 101.802 19.6319 102.856 19.6319C103.905 19.6319 104.553 18.8157 104.553 17.4956C104.553 16.1818 103.898 15.3539 102.856 15.3539C101.809 15.3539 101.172 16.164 101.172 17.4901Z" fill="white"/>
<path d="M110.92 17.4907C110.881 17.0764 110.928 16.6584 111.06 16.2634C111.191 15.8686 111.403 15.5055 111.683 15.1975C111.963 14.8895 112.305 14.6435 112.685 14.4751C113.065 14.3067 113.477 14.2197 113.894 14.2197C114.309 14.2197 114.721 14.3067 115.102 14.4751C115.482 14.6435 115.823 14.8895 116.103 15.1975C116.383 15.5055 116.596 15.8686 116.727 16.2634C116.859 16.6584 116.906 17.0764 116.866 17.4907C116.906 17.9053 116.86 18.3239 116.729 18.7194C116.598 19.115 116.386 19.4787 116.106 19.7873C115.826 20.0959 115.484 20.3425 115.103 20.5112C114.722 20.68 114.31 20.7672 113.894 20.7672C113.476 20.7672 113.065 20.68 112.684 20.5112C112.303 20.3425 111.961 20.0959 111.681 19.7873C111.401 19.4787 111.189 19.115 111.058 18.7194C110.927 18.3239 110.88 17.9053 110.92 17.4907ZM115.586 17.4907C115.586 16.1241 114.973 15.325 113.895 15.325C112.814 15.325 112.205 16.1241 112.205 17.4907C112.205 18.8681 112.814 19.6611 113.895 19.6611C114.973 19.6611 115.586 18.8626 115.586 17.4907Z" fill="white"/>
<path d="M118.539 14.3398H119.737V15.3413H119.83C119.987 14.9816 120.253 14.6801 120.591 14.4787C120.928 14.2774 121.319 14.1863 121.711 14.2181C122.017 14.195 122.325 14.2413 122.612 14.3534C122.898 14.4656 123.156 14.6407 123.366 14.8659C123.575 15.0911 123.731 15.3605 123.823 15.6542C123.914 15.948 123.938 16.2585 123.893 16.5628V20.6438H122.649V16.8753C122.649 15.8622 122.209 15.3584 121.288 15.3584C121.08 15.3486 120.872 15.3841 120.679 15.4623C120.486 15.5404 120.312 15.6594 120.169 15.8112C120.026 15.9629 119.917 16.1438 119.851 16.3413C119.784 16.539 119.761 16.7486 119.783 16.9559V20.6439H118.539V14.3398Z" fill="white"/>
<path d="M130.922 12.7705V14.3688H132.288V15.4167H130.922V18.6583C130.922 19.3187 131.194 19.6078 131.814 19.6078C131.972 19.6074 132.13 19.5977 132.288 19.5791V20.6155C132.064 20.6554 131.838 20.6767 131.611 20.679C130.227 20.679 129.677 20.1923 129.677 18.9769V15.4167H128.676V14.3687H129.677V12.7705H130.922Z" fill="white"/>
<path d="M133.988 11.8799H135.221V15.3539H135.32C135.486 14.9909 135.759 14.6876 136.103 14.4856C136.447 14.2834 136.845 14.1923 137.242 14.2246C137.548 14.208 137.852 14.2589 138.136 14.3738C138.419 14.4887 138.673 14.6647 138.881 14.8891C139.088 15.1136 139.244 15.381 139.335 15.6724C139.427 15.9638 139.454 16.272 139.413 16.5748V20.6449H138.168V16.8817C138.168 15.8748 137.699 15.3648 136.82 15.3648C136.606 15.3473 136.391 15.3767 136.19 15.451C135.989 15.5252 135.806 15.6426 135.655 15.7949C135.504 15.9471 135.388 16.1305 135.315 16.3323C135.242 16.5341 135.214 16.7494 135.233 16.9631V20.6449H133.988V11.8799Z" fill="white"/>
<path d="M146.667 18.9434C146.497 19.5196 146.132 20.018 145.632 20.3514C145.132 20.6848 144.532 20.832 143.935 20.7673C143.52 20.7782 143.107 20.6987 142.726 20.5341C142.344 20.3696 142.003 20.124 141.726 19.8144C141.449 19.5048 141.242 19.1387 141.121 18.7413C141 18.3439 140.966 17.9249 141.023 17.5134C140.967 17.1005 141.002 16.6806 141.123 16.2821C141.244 15.8836 141.449 15.5156 141.725 15.2034C142.001 14.8911 142.34 14.6416 142.72 14.4719C143.101 14.3023 143.513 14.2163 143.93 14.2198C145.684 14.2198 146.742 15.4182 146.742 17.3978V17.8319H142.29V17.9017C142.271 18.133 142.3 18.3659 142.376 18.5853C142.451 18.8048 142.572 19.006 142.73 19.176C142.888 19.346 143.08 19.4811 143.294 19.5727C143.507 19.6643 143.737 19.7102 143.969 19.7077C144.267 19.7434 144.568 19.6898 144.836 19.5537C145.103 19.4176 145.323 19.2052 145.469 18.9434L146.667 18.9434ZM142.29 16.9118H145.474C145.49 16.7002 145.461 16.4877 145.39 16.2879C145.319 16.0881 145.207 15.9054 145.06 15.7516C144.914 15.5978 144.738 15.4763 144.542 15.3948C144.346 15.3134 144.135 15.2739 143.923 15.2787C143.707 15.276 143.494 15.3164 143.295 15.3975C143.095 15.4787 142.914 15.5988 142.762 15.751C142.61 15.9033 142.49 16.0843 142.409 16.2837C142.328 16.483 142.288 16.6966 142.29 16.9118Z" fill="white"/>
</g>
</g>
<defs>
<clipPath id="clip0_5686_52155">
<rect width="168" height="56" fill="white" transform="translate(0 0.0673828)"/>
</clipPath>
</defs>
</svg>
