<svg width="39" height="90" viewBox="0 0 39 90" fill="none" xmlns="http://www.w3.org/2000/svg">
<path fill-rule="evenodd" clip-rule="evenodd" d="M24.1337 0.289491C25.631 -0.419787 27.4199 0.219082 28.1291 1.71645C30.3484 6.4015 35.3048 17.1036 36.4006 27.4953C36.9505 32.7105 36.5702 38.1924 34.0685 42.8634C33.6679 43.6116 33.218 44.3291 32.7179 45.0132C32.7998 51.1465 30.9692 57.4936 28.6166 63.1197C26.1709 68.9682 23.0639 74.264 20.5879 78.0776C19.3459 79.9905 18.2533 81.5448 17.4673 82.6259C17.0741 83.1666 16.7572 83.5896 16.5359 83.8808C16.4254 84.0264 16.3385 84.139 16.2782 84.217L16.2076 84.3078L16.1876 84.3331L16.1816 84.3408L16.1797 84.3434C16.1789 84.3443 16.1783 84.3451 13.8236 82.4861L16.1783 84.3451C15.1516 85.6455 13.2651 85.8674 11.9647 84.8408C10.6645 83.8143 10.4424 81.9283 11.4683 80.628M11.4683 80.628L11.482 80.6106L11.5358 80.5415C11.5849 80.4781 11.66 80.3807 11.7587 80.2507C11.9561 79.991 12.2477 79.6019 12.6143 79.0975C13.3479 78.0885 14.3793 76.6218 15.5555 74.8102C17.9156 71.1751 20.8213 66.2089 23.0812 60.8049C24.5057 57.3981 25.6364 53.9047 26.2397 50.5189C24.3992 51.4885 22.295 52.2604 19.9121 52.8088C12.9413 54.4131 7.53111 52.7235 4.14825 48.8361C0.922879 45.1299 0.0244285 39.9651 0.721109 35.4474C1.41342 30.958 3.81088 26.3545 8.11995 24.1725C12.6574 21.875 18.2231 22.7778 24.0028 27.159C26.9351 29.3819 29.0137 31.9788 30.4037 34.7969C30.6905 32.7434 30.6841 30.4997 30.4337 28.1245C29.4581 18.8739 24.9509 9.02277 22.7068 4.28496C21.9974 2.7876 22.6363 0.998767 24.1337 0.289491M26.5868 42.954C26.104 38.6713 24.2717 34.8919 20.3782 31.9405C15.7253 28.4134 12.6376 28.6104 10.8305 29.5254C8.79492 30.5562 7.15647 33.0842 6.65101 36.3619C6.14992 39.6113 6.89184 42.849 8.67438 44.8974C10.2994 46.7648 13.2647 48.1818 18.5665 46.9617C22.2374 46.1169 24.7987 44.6996 26.5868 42.954Z" fill="#7800F0"/>
<path fill-rule="evenodd" clip-rule="evenodd" d="M6.3327 65.8116C7.83185 65.1062 9.61907 65.7495 10.3245 67.2488C10.6892 68.0237 10.8695 68.928 10.9807 69.6653C11.1017 70.4666 11.1818 71.3742 11.2402 72.3047C11.332 73.7661 11.3786 75.4446 11.4236 77.066C11.4355 77.4957 11.4474 77.9214 11.4599 78.338C11.5217 80.3951 11.6003 82.2203 11.7691 83.5466C11.7871 83.6883 11.8053 83.8169 11.8233 83.9331C14.477 84.2496 17.9081 83.4567 21.8753 81.9893C24.012 81.1989 26.1387 80.2805 28.2185 79.3824C28.3002 79.347 28.382 79.3118 28.4636 79.2765C30.5733 78.3657 32.6882 77.4569 34.551 76.8359C36.1229 76.3119 37.8218 77.1615 38.3457 78.7332C38.8697 80.3051 38.0202 82.0041 36.4484 82.5281C34.8768 83.0519 33.0102 83.849 30.8418 84.7851C30.746 84.8265 30.6495 84.8681 30.5526 84.9099C28.5074 85.7933 26.2481 86.7692 23.9568 87.6167C19.3209 89.3315 13.7782 90.8396 8.95512 89.4615C7.9697 89.18 7.35369 88.5413 7.0164 88.0778C6.67862 87.6137 6.47195 87.1274 6.33939 86.7489C6.07383 85.9907 5.92035 85.1159 5.81705 84.3039C5.60619 82.6466 5.52333 80.5395 5.46258 78.5183C5.44895 78.0645 5.43639 77.6138 5.42399 77.1684C5.37926 75.5622 5.33651 74.0267 5.25201 72.6806C5.19843 71.8269 5.13153 71.1147 5.04791 70.5605C4.97709 70.0911 4.91295 69.8703 4.89608 69.8123C4.89072 69.7938 4.89014 69.7919 4.89563 69.8036C4.19015 68.3043 4.83354 66.5172 6.3327 65.8116Z" fill="#7800F0"/>
</svg>
