<svg width="136" height="122" viewBox="0 0 136 122" fill="none" xmlns="http://www.w3.org/2000/svg">
<g filter="url(#filter0_d_5811_60465)">
<path d="M120.35 76.2928C113.88 73.1828 109 76.1928 104.7 70.5528C101.6 67.0028 100.81 58.9328 99.0896 54.8028C98.7996 54.1028 98.5196 53.4328 98.2396 52.7828C98.1996 52.6728 98.1496 52.5528 98.1096 52.4328C98.0896 52.3728 98.0796 52.3128 98.0596 52.2528C98.0596 52.2528 98.0496 52.2528 98.0396 52.2528C97.9396 51.9928 97.8596 51.7428 97.7296 51.4728C97.6096 51.2228 97.4796 50.9828 97.3496 50.7428C94.0096 43.2928 91.2596 39.6228 84.2396 37.7528C84.6896 37.7228 85.1396 37.6928 85.5796 37.6428C89.9396 37.2128 101.91 34.6628 103.44 29.7128C105.04 23.8028 97.6196 19.6928 93.0396 19.8628C87.9396 19.9328 81.9196 23.0928 76.8796 27.1728C77.6096 26.1428 78.2596 25.1928 78.7696 24.4228C82.5296 18.6628 83.7896 7.19284 76.8096 3.59284C69.3696 -0.27716 63.1196 3.14284 62.3296 11.2728C61.7996 17.0628 62.0696 22.1428 63.6096 26.9628C58.7696 22.1028 52.5396 19.1728 45.5096 18.0828C33.3496 16.1928 35.5796 25.9728 36.6696 27.7328C39.1196 31.6228 44.4296 33.9328 50.2896 35.3428C49.5596 35.5228 48.8596 35.7228 48.2496 35.9728C39.9996 39.4228 41.8096 42.2228 38.6596 49.3528C33.8096 61.7228 30.5296 60.8328 19.6596 63.4328C8.07957 66.6528 0.979564 72.8528 2.11956 85.6328C3.43956 95.7328 10.6796 97.1928 22.0196 97.3028C21.1396 102.443 23.5296 106.493 28.6596 108.153C35.8896 109.983 39.5696 102.543 43.6896 100.823C51.9896 96.7028 53.3296 99.1328 63.2996 99.8128C63.6196 99.8328 63.9696 99.8528 64.3096 99.8628L64.2496 100.973L68.0996 101.233L68.1496 99.9628C75.3596 100.043 84.5096 99.9028 89.1396 102.903C95.5196 107.343 96.0396 119.403 107.13 113.473C110.59 111.703 111.66 105.763 115.17 103.323C119.3 101.603 122.4 105.153 125.95 102.053C133.14 94.5228 128.1 80.1528 120.35 76.2828V76.2928ZM93.6696 24.7328C101.62 28.1628 95.7996 32.3328 91.3796 33.7228C88.6196 34.5528 78.4096 34.9928 72.4496 35.8428C72.2496 35.8128 72.0596 35.7928 71.8596 35.7628C75.0296 33.5828 79.1296 29.6928 80.6596 28.6728C84.7196 25.5828 88.3196 22.2128 93.6796 24.7428L93.6696 24.7328ZM70.5996 6.56284C85.9796 4.11284 72.4396 23.9528 69.4896 32.5628C67.0296 24.1228 62.5196 7.86284 70.5996 6.56284ZM43.0296 26.3528C38.6796 19.5628 50.9496 23.0428 53.7296 24.6728C58.1296 27.0428 63.6596 31.3328 67.6696 35.2128C67.6696 35.2228 67.6896 35.2428 67.6996 35.2528C66.6496 35.1328 65.5796 35.0328 64.5196 34.9428C56.9896 33.5128 46.4196 31.2828 43.0296 26.3528Z" fill="white"/>
<path d="M120.35 76.2927C113.88 73.1827 109 76.1927 104.7 70.5527C101.6 67.0027 100.81 58.9327 99.0896 54.8027C93.9196 42.4227 91.5296 38.2527 78.2696 36.6827C70.3296 35.4727 55.1196 33.1127 48.2496 35.9827C39.9996 39.4327 41.8096 42.2327 38.6596 49.3627C33.8096 61.7327 30.5296 60.8427 19.6596 63.4427C8.07957 66.6627 0.979564 72.8627 2.11956 85.6427C3.43956 95.7427 10.6796 97.2027 22.0196 97.3127C21.1396 102.453 23.5296 106.503 28.6596 108.163C35.8896 109.993 39.5696 102.553 43.6896 100.833C51.9896 96.7127 53.3296 99.1427 63.2996 99.8227C70.6196 100.323 83.3896 99.1827 89.1496 102.913C95.5296 107.353 96.0496 119.413 107.14 113.483C110.6 111.713 111.67 105.773 115.18 103.333C119.31 101.613 122.41 105.163 125.96 102.063C133.15 94.5327 128.11 80.1627 120.36 76.2927H120.35Z" fill="#79A3AF"/>
<path d="M68.9682 37.7328C60.1082 37.1328 41.8882 36.0328 36.6682 27.7428C35.5882 25.9828 33.3582 16.2028 45.5082 18.0928C53.8282 19.3828 61.0382 23.2328 66.1282 29.8428C67.4682 31.3728 71.5382 35.2628 69.4882 37.0528C65.4882 32.7728 58.8282 27.4228 53.7282 24.6728C50.9482 23.0428 38.6782 19.5628 43.0282 26.3528C47.1882 32.4128 62.2182 34.3928 69.0982 35.8228" fill="#BF5252"/>
<path d="M68.0608 36.9528C72.4108 29.5428 84.1308 19.9928 93.0408 19.8728C97.6208 19.7028 105.041 23.8128 103.441 29.7228C101.901 34.6728 89.9408 37.2328 85.5808 37.6528C80.0108 38.2328 73.5408 37.8028 68.0508 37.1828C68.4208 35.2828 87.4608 34.8928 91.3908 33.7128C95.8108 32.3328 101.631 28.1528 93.6808 24.7228C88.3208 22.1928 84.7208 25.5628 80.6608 28.6528C78.3908 30.1828 70.4008 38.0628 68.2908 37.2028" fill="#BF5252"/>
<path d="M68.7913 36.7626C62.8313 28.9026 61.4313 21.1026 62.3313 11.3026C63.1213 3.17263 69.3713 -0.247375 76.8113 3.62262C83.7813 7.22262 82.5313 18.6926 78.7713 24.4526C76.6313 27.6726 72.1013 34.1026 69.1013 35.8326C67.0013 31.3626 88.6013 3.70262 70.6013 6.57262C61.1113 8.09262 68.9913 30.2826 70.5213 36.1626" fill="#BF5252"/>
<path d="M20.3694 81.8627C20.2794 83.1827 19.1394 84.1727 17.8194 84.0827C16.4994 83.9927 15.5094 82.8527 15.5994 81.5327C15.6894 80.2127 16.4794 79.3627 17.7894 79.4427C19.1094 79.5327 20.4594 80.5327 20.3694 81.8527V81.8627Z" fill="#E2E0D7"/>
<path d="M46.4593 90.2426C46.3693 91.5626 45.2293 92.5526 43.9093 92.4626C42.5893 92.3726 41.5993 91.2326 41.6893 89.9126C41.7793 88.5926 42.5593 87.7426 43.8793 87.8226C45.1993 87.9126 46.5493 88.9126 46.4593 90.2326V90.2426Z" fill="#E2E0D7"/>
<path d="M42.4397 70.7626C42.3497 72.0826 41.2097 73.0726 39.8897 72.9826C38.5697 72.8926 37.5797 71.7526 37.6697 70.4326C37.7597 69.1126 38.5497 68.2626 39.8597 68.3426C41.1797 68.4326 42.5297 69.4326 42.4397 70.7526V70.7626Z" fill="#E2E0D7"/>
<path d="M64.51 72.9229C64.42 74.2429 63.28 75.2329 61.96 75.1429C60.64 75.0529 59.6501 73.9129 59.7401 72.5929C59.8301 71.2729 60.62 70.4229 61.93 70.5129C63.25 70.6029 64.6 71.6029 64.51 72.9229Z" fill="#E2E0D7"/>
<path d="M55.471 48.5927C55.381 49.9127 54.241 50.9027 52.921 50.8127C51.601 50.7227 50.611 49.5827 50.701 48.2627C50.791 46.9427 51.571 46.0927 52.891 46.1727C54.211 46.2627 55.561 47.2627 55.471 48.5827V48.5927Z" fill="#E2E0D7"/>
<path d="M82.4593 54.6025C82.3693 55.9225 81.2293 56.9124 79.9093 56.8224C78.5893 56.7324 77.5993 55.5924 77.6893 54.2724C77.7793 52.9524 78.5693 52.1024 79.8793 52.1824C81.1993 52.2724 82.5493 53.2724 82.4593 54.5924V54.6025Z" fill="#E2E0D7"/>
<path d="M96.1507 69.3925C96.0607 70.7125 94.9207 71.7025 93.6007 71.6125C92.2807 71.5225 91.2907 70.3825 91.3807 69.0625C91.4707 67.7425 92.2607 66.8925 93.5707 66.9725C94.8907 67.0625 96.2407 68.0625 96.1507 69.3825V69.3925Z" fill="#E2E0D7"/>
<path d="M79.4515 89.1425C79.3615 90.4625 78.2215 91.4525 76.9015 91.3625C75.5815 91.2725 74.5915 90.1325 74.6815 88.8125C74.7715 87.4925 75.5615 86.6425 76.8715 86.7225C78.1915 86.8125 79.5415 87.8125 79.4515 89.1325V89.1425Z" fill="#E2E0D7"/>
<path d="M122.338 89.7128C122.248 91.0328 121.108 92.0228 119.788 91.9328C118.468 91.8428 117.478 90.7028 117.568 89.3828C117.658 88.0628 118.438 87.2128 119.758 87.2928C121.078 87.3828 122.428 88.3828 122.338 89.7028V89.7128Z" fill="#E2E0D7"/>
<path d="M103.08 97.7626C102.99 99.0826 101.85 100.073 100.53 99.9826C99.2104 99.8926 98.2204 98.7526 98.3104 97.4326C98.4004 96.1126 99.1904 95.2626 100.5 95.3426C101.82 95.4326 103.17 96.4326 103.08 97.7526V97.7626Z" fill="#E2E0D7"/>
<path d="M97.7294 51.4825C95.3894 46.6425 90.6493 43.5925 85.3793 44.2325C73.0093 45.2925 53.5694 78.5425 49.8594 85.3825C48.4694 87.9525 50.8993 90.6925 53.8093 88.9525C55.5893 87.9125 70.3493 62.8425 77.3193 56.3825C81.1393 52.8425 84.2893 48.2625 89.9693 51.2025C95.2593 53.8925 88.5693 61.4225 86.2493 65.3025C84.9593 67.4425 81.6793 70.4025 84.4993 73.2025C87.1093 75.7925 90.8193 70.6125 91.9293 68.2525C94.9493 61.9625 100.879 58.2925 97.7193 51.4825H97.7294Z" fill="#BE665E"/>
<path d="M51.4297 82.5923C53.2497 83.3923 55.0397 84.2223 56.8997 84.8723C57.6797 83.7223 58.5697 82.3623 59.5397 80.8923C57.5397 80.3523 55.6597 79.4923 53.7697 78.6323C52.8697 80.1223 52.0897 81.4623 51.4297 82.6023V82.5923Z" fill="white"/>
<path d="M57.5508 72.5724C59.4608 73.4724 61.3008 74.4924 63.2208 75.3124C64.0608 74.0424 64.9308 72.7524 65.8008 71.4524C63.8308 70.7524 61.9708 69.7024 60.0908 68.7324C59.2108 70.0324 58.3608 71.3224 57.5508 72.5724Z" fill="white"/>
<path d="M64.4883 62.4821C66.0883 63.7621 67.8583 64.8121 69.7483 65.7221C70.6983 64.4021 71.6283 63.1321 72.5083 61.9621C70.6283 61.1421 68.7983 60.1821 67.2183 58.9121C66.2983 60.0821 65.3783 61.2721 64.4883 62.4821Z" fill="white"/>
<path d="M75.7294 49.6025C74.6094 50.6125 73.4794 51.7325 72.3594 52.9225C73.3794 54.6425 74.6994 56.2225 76.1994 57.5125C76.5994 57.0925 76.9794 56.7025 77.3394 56.3725C78.0694 55.7025 78.7694 54.9925 79.4694 54.3025C77.9594 53.0925 76.5894 51.3525 75.7394 49.6025H75.7294Z" fill="white"/>
<path d="M89.7883 51.1123C90.0083 49.0023 90.2483 46.9123 90.6583 44.8523C89.2383 44.3323 87.6983 44.0823 86.0983 44.1723C85.7183 46.2323 85.4683 48.3123 85.2383 50.4023C86.5783 50.1023 88.0683 50.2623 89.7883 51.1123Z" fill="white"/>
<path d="M98.0605 52.2622C95.9305 52.4122 93.8205 52.6522 91.7405 53.0122C92.2705 54.3622 91.8305 56.0622 90.9805 57.8222C93.4505 57.3522 95.9405 57.0222 98.4705 56.8422C98.7605 55.4422 98.7005 53.9522 98.0705 52.2722L98.0605 52.2622Z" fill="white"/>
<path d="M86.2581 65.3022C86.1281 65.5222 85.9881 65.7422 85.8281 65.9722C87.8781 66.7122 89.9381 67.4322 92.0081 68.1022C92.7181 66.6422 93.5981 65.3222 94.4681 64.0622C92.4481 63.4122 90.4381 62.7222 88.4381 62.0122C87.6081 63.2422 86.8081 64.3822 86.2481 65.3022H86.2581Z" fill="white"/>
<path d="M67.56 35.8428L64.25 100.983L68.1 101.243L70.77 36.0328L67.56 35.8428Z" fill="#BF5252"/>
</g>
<defs>
<filter id="filter0_d_5811_60465" x="0" y="0" width="135.426" height="121.09" filterUnits="userSpaceOnUse" color-interpolation-filters="sRGB">
<feFlood flood-opacity="0" result="BackgroundImageFix"/>
<feColorMatrix in="SourceAlpha" type="matrix" values="0 0 0 0 0 0 0 0 0 0 0 0 0 0 0 0 0 0 127 0" result="hardAlpha"/>
<feOffset dx="2" dy="2"/>
<feGaussianBlur stdDeviation="2"/>
<feColorMatrix type="matrix" values="0 0 0 0 0 0 0 0 0 0 0 0 0 0 0 0 0 0 0.2 0"/>
<feBlend mode="normal" in2="BackgroundImageFix" result="effect1_dropShadow_5811_60465"/>
<feBlend mode="normal" in="SourceGraphic" in2="effect1_dropShadow_5811_60465" result="shape"/>
</filter>
</defs>
</svg>
