<svg width="148" height="194" viewBox="0 0 148 194" fill="none" xmlns="http://www.w3.org/2000/svg">
<g filter="url(#filter0_d_5811_59910)">
<path d="M99.84 46.3397L81.19 46.1897C91.35 43.2997 102.13 35.8297 107.97 31.1097C116.18 24.6197 118.89 12.6497 105.51 11.5497C92.53 10.3097 81.26 25.3798 74.43 34.4498C72.46 37.1898 69.97 40.3397 68.27 43.5797C67.54 40.2197 66.21 36.7797 65.2 33.8097C61.31 23.1397 54.94 5.43974 42.16 2.82974C29.05 -0.0202575 28.14 12.2197 34.09 20.8197C39.19 28.3697 50.09 41.9197 61.07 46.0297H60.86L57.95 46.0098L18.94 45.6998L13.46 45.6597L2.6 45.5697L2 68.3898L6.77 68.5997L6.96 183.42L134.09 187.11L135.99 74.3397L141.03 74.5597L141.76 46.6698L102 46.3497L99.84 46.3297V46.3397ZM105.42 18.6097C108.15 23.1197 92.6 34.2397 89.26 36.5497C83.39 40.7197 75.7 44.0097 68.68 46.0797C68.67 45.9597 68.65 45.8297 68.63 45.7097C76.45 37.6497 99.54 10.0497 105.41 18.6197L105.42 18.6097ZM50.38 31.4897C47.86 28.2997 36.23 13.1297 40.16 9.60974C48.17 3.21974 61.91 35.3697 67.21 45.8397C67.18 45.9197 67.15 45.9997 67.12 46.0797H66.87C66.87 46.0797 66.78 46.0397 66.73 46.0197L66.77 46.0797H66.46C60.61 42.1197 54.58 36.9397 50.38 31.4897Z" fill="white"/>
<path d="M69.1718 47.1197C55.8518 49.0197 40.4618 30.2398 34.0918 20.8198C28.1318 12.2198 29.0418 -0.0302529 42.1618 2.82975C54.9418 5.42975 61.3118 23.1397 65.2018 33.8097C66.7318 38.3197 69.0018 43.8997 68.8018 48.6597C65.4918 44.1097 49.1918 2.41974 40.1818 9.61974C36.2518 13.1397 47.8718 28.3097 50.4018 31.4997C55.1118 37.6197 62.1518 43.4097 68.6418 47.4997" fill="#627744"/>
<path d="M66.7423 46.0195C78.9223 51.7295 99.1223 38.2695 107.972 31.1095C116.182 24.6195 118.892 12.6495 105.512 11.5495C92.5323 10.3095 81.2623 25.3795 74.4323 34.4495C71.6523 38.3195 67.8423 42.9895 66.6523 47.5995C71.1423 44.2195 98.9123 9.09953 105.432 18.6195C108.162 23.1295 92.6123 34.2495 89.2723 36.5595C82.9723 41.0395 74.5623 44.5195 67.1523 46.5395" fill="#627744"/>
<path d="M6.78125 66.3398L6.98125 183.43L134.111 187.12L136.061 70.8098L6.78125 66.3398Z" fill="#BF5252"/>
<path d="M33.9108 89.5298C32.2308 89.5298 31.3008 90.8798 31.3008 92.4498C31.3008 94.0198 32.6608 95.2898 34.3408 95.2898C36.0208 95.2898 37.3808 94.0198 37.3808 92.4498C37.3808 90.8798 35.5808 89.5298 33.9108 89.5298ZM36.0908 92.8198C35.7108 93.7798 34.5308 94.4998 33.6408 94.1498C32.7408 93.7898 32.3208 92.7298 32.7008 91.7698C33.0808 90.8098 34.1108 90.3198 35.0108 90.6698C35.9108 91.0198 36.4708 91.8598 36.0908 92.8198Z" fill="white"/>
<path d="M35.8906 90.6301L43.3106 82.8101L43.9506 83.4601L36.3606 91.11L35.8906 90.6301Z" fill="white"/>
<path d="M40.3125 81.9502L40.7025 86.2902L44.8125 86.6802V85.7402L41.4125 85.5002L41.1825 81.9502H40.3125Z" fill="white"/>
<path d="M38.1016 84.0801L38.4916 88.4201L42.6016 88.8201V87.8701L39.2016 87.6301L38.9616 84.0801H38.1016Z" fill="white"/>
<path d="M32.5897 94.61L24.8997 102.12L24.4297 101.62L31.9597 94.0601L32.5897 94.61Z" fill="white"/>
<path d="M27.9605 103.2L27.5905 98.8502L23.4905 98.4302L23.4805 99.3802L26.8805 99.6302L27.1005 103.19L27.9605 103.2Z" fill="white"/>
<path d="M30.1909 101.07L29.8209 96.7301L25.7109 96.3101V97.2601L29.1009 97.5101L29.3209 101.07H30.1909Z" fill="white"/>
<path d="M36.713 93.0703L47.233 95.3903L47.003 96.2803L36.543 93.7103L36.713 93.0703Z" fill="white"/>
<path d="M46.4341 92.3701L42.9141 94.9501L44.6941 98.6701L45.5041 98.1801L43.9541 95.1501L46.8741 93.1201L46.4341 92.3701Z" fill="white"/>
<path d="M43.4614 91.5801L39.9414 94.1501L41.7214 97.8801L42.5314 97.3901L40.9814 94.3601L43.9114 92.3201L43.4614 91.5801Z" fill="white"/>
<path d="M31.6014 92.2902L21.1914 89.5801L21.3814 88.9102L31.7514 91.4601L31.6014 92.2902Z" fill="white"/>
<path d="M21.8602 92.75L25.3902 90.19L23.6302 86.46L22.8202 86.94L24.3502 89.98L21.4102 92L21.8602 92.75Z" fill="white"/>
<path d="M24.8211 93.56L28.3511 91L26.5911 87.27L25.7811 87.75L27.3111 90.79L24.3711 92.81L24.8211 93.56Z" fill="white"/>
<path d="M34.9017 95.0098L37.6517 105.44L36.7517 105.64L34.2617 95.1598L34.9017 95.0098Z" fill="white"/>
<path d="M39.9703 103.34L36.0603 101.39L33.5703 104.67L34.3703 105.17L36.3603 102.41L39.5103 104.08L39.9703 103.34Z" fill="white"/>
<path d="M39.3219 100.34L35.4219 98.3896L32.9219 101.67L33.7219 102.17L35.7119 99.4096L38.8619 101.08L39.3219 100.34Z" fill="white"/>
<path d="M33.2619 90.11L30.9219 79.62L31.6019 79.48L34.0619 89.87L33.2619 90.11Z" fill="white"/>
<path d="M28.4023 81.6599L32.2923 83.6299L34.8123 80.3599L34.0023 79.8599L32.0023 82.6099L28.8623 80.9199L28.4023 81.6599Z" fill="white"/>
<path d="M29.0312 84.6701L32.9213 86.6401L35.4413 83.3701L34.6413 82.8701L32.6313 85.6201L29.5013 83.9301L29.0312 84.6701Z" fill="white"/>
<path d="M32.903 151.53C31.223 151.53 30.293 152.88 30.293 154.45C30.293 156.02 31.653 157.29 33.333 157.29C35.013 157.29 36.373 156.02 36.373 154.45C36.373 152.88 34.573 151.53 32.893 151.53H32.903ZM35.083 154.82C34.703 155.78 33.523 156.5 32.633 156.15C31.733 155.8 31.313 154.73 31.693 153.77C32.073 152.81 33.103 152.32 34.003 152.67C34.903 153.02 35.463 153.86 35.083 154.82Z" fill="white"/>
<path d="M34.8828 152.63L42.2928 144.81L42.9428 145.47L35.3428 153.11L34.8828 152.63Z" fill="white"/>
<path d="M39.293 143.95L39.693 148.29L43.803 148.68V147.74L40.403 147.5L40.163 143.95H39.293Z" fill="white"/>
<path d="M37.082 146.08L37.482 150.42L41.582 150.82V149.87L38.192 149.63L37.952 146.08H37.082Z" fill="white"/>
<path d="M31.5819 156.61L23.8919 164.13L23.4219 163.62L30.9519 156.06L31.5819 156.61Z" fill="white"/>
<path d="M26.9527 165.2L26.5827 160.85L22.4827 160.43L22.4727 161.38L25.8627 161.64L26.0827 165.19L26.9527 165.2Z" fill="white"/>
<path d="M29.1714 163.08L28.8014 158.73L24.7014 158.31L24.6914 159.26L28.0914 159.52L28.3114 163.07L29.1714 163.08Z" fill="white"/>
<path d="M35.6952 155.07L46.2252 157.39L45.9952 158.28L35.5352 155.71L35.6952 155.07Z" fill="white"/>
<path d="M45.4145 154.37L41.8945 156.95L43.6745 160.67L44.4945 160.19L42.9445 157.15L45.8645 155.12L45.4145 154.37Z" fill="white"/>
<path d="M42.4436 153.58L38.9336 156.16L40.7036 159.88L41.5236 159.39L39.9736 156.36L42.8936 154.32L42.4436 153.58Z" fill="white"/>
<path d="M30.5836 154.29L20.1836 151.58L20.3736 150.91L30.7336 153.47L30.5836 154.29Z" fill="white"/>
<path d="M20.8423 154.75L24.3723 152.19L22.6223 148.46L21.8023 148.94L23.3323 151.98L20.4023 154L20.8423 154.75Z" fill="white"/>
<path d="M23.8033 155.56L27.3433 153L25.5833 149.27L24.7633 149.76L26.2933 152.8L23.3633 154.82L23.8033 155.56Z" fill="white"/>
<path d="M33.8961 157.02L36.6361 167.44L35.7461 167.64L33.2461 157.16L33.8961 157.02Z" fill="white"/>
<path d="M38.9547 165.34L35.0547 163.39L32.5547 166.67L33.3647 167.17L35.3547 164.41L38.4947 166.08L38.9547 165.34Z" fill="white"/>
<path d="M38.3062 162.34L34.4062 160.39L31.9062 163.67L32.7162 164.17L34.7062 161.41L37.8563 163.08L38.3062 162.34Z" fill="white"/>
<path d="M32.2541 152.11L29.9141 141.62L30.5941 141.48L33.0541 151.87L32.2541 152.11Z" fill="white"/>
<path d="M27.3945 143.66L31.2845 145.63L33.7945 142.36L32.9945 141.86L30.9945 144.61L27.8545 142.92L27.3945 143.66Z" fill="white"/>
<path d="M28.0234 146.67L31.9134 148.64L34.4334 145.37L33.6234 144.87L31.6234 147.62L28.4834 145.93L28.0234 146.67Z" fill="white"/>
<path d="M73.1217 125.439C71.4417 125.439 70.5117 126.789 70.5117 128.359C70.5117 129.929 71.8717 131.199 73.5517 131.199C75.2317 131.199 76.5917 129.929 76.5917 128.359C76.5917 126.789 74.7917 125.439 73.1117 125.439H73.1217ZM75.3017 128.719C74.9217 129.679 73.7417 130.399 72.8517 130.049C71.9517 129.699 71.5317 128.629 71.9117 127.669C72.2917 126.709 73.3217 126.219 74.2217 126.569C75.1217 126.919 75.6817 127.759 75.3017 128.719Z" fill="white"/>
<path d="M75.1016 126.539L82.5216 118.729L83.1616 119.379L75.5616 127.019L75.1016 126.539Z" fill="white"/>
<path d="M79.5117 117.859L79.9117 122.199L84.0217 122.599V121.649L80.6217 121.409L80.3817 117.859H79.5117Z" fill="white"/>
<path d="M77.3008 119.989L77.7008 124.329L81.8008 124.729V123.779L78.4108 123.539L78.1708 119.989H77.3008Z" fill="white"/>
<path d="M71.8006 130.519L64.1106 138.039L63.6406 137.529L71.1706 129.969L71.8006 130.519Z" fill="white"/>
<path d="M67.1714 139.109L66.8014 134.759L62.7014 134.339L62.6914 135.289L66.0914 135.549L66.3014 139.099L67.1714 139.109Z" fill="white"/>
<path d="M69.3902 136.989L69.0202 132.639L64.9202 132.219L64.9102 133.169L68.3102 133.429L68.5302 136.979L69.3902 136.989Z" fill="white"/>
<path d="M75.9139 128.98L86.4439 131.3L86.2139 132.19L75.7539 129.62L75.9139 128.98Z" fill="white"/>
<path d="M85.6333 128.28L82.1133 130.86L83.8933 134.58L84.7033 134.1L83.1633 131.06L86.0833 129.03L85.6333 128.28Z" fill="white"/>
<path d="M82.6723 127.49L79.1523 130.07L80.9323 133.79L81.7423 133.3L80.1923 130.27L83.1123 128.23L82.6723 127.49Z" fill="white"/>
<path d="M70.8023 128.2L60.4023 125.49L60.5923 124.82L70.9623 127.38L70.8023 128.2Z" fill="white"/>
<path d="M61.0611 128.66L64.5911 126.1L62.8411 122.37L62.0211 122.85L63.5511 125.89L60.6211 127.91L61.0611 128.66Z" fill="white"/>
<path d="M64.032 129.47L67.562 126.92L65.802 123.18L64.982 123.67L66.522 126.71L63.582 128.73L64.032 129.47Z" fill="white"/>
<path d="M74.1148 130.93L76.8548 141.35L75.9648 141.55L73.4648 131.07L74.1148 130.93Z" fill="white"/>
<path d="M79.1734 139.25L75.2734 137.3L72.7734 140.58L73.5834 141.08L75.5734 138.32L78.7134 139.99L79.1734 139.25Z" fill="white"/>
<path d="M78.525 136.25L74.625 134.3L72.125 137.58L72.935 138.08L74.925 135.32L78.075 136.99L78.525 136.25Z" fill="white"/>
<path d="M72.4728 126.03L70.1328 115.53L70.8128 115.39L73.2728 125.78L72.4728 126.03Z" fill="white"/>
<path d="M67.6133 117.57L71.5033 119.54L74.0233 116.27L73.2133 115.77L71.2133 118.52L68.0733 116.83L67.6133 117.57Z" fill="white"/>
<path d="M68.2422 120.58L72.1322 122.55L74.6522 119.28L73.8422 118.78L71.8422 121.53L68.7022 119.84L68.2422 120.58Z" fill="white"/>
<path d="M72.7397 88.8799C71.7297 88.8799 71.1797 89.6899 71.1797 90.6299C71.1797 91.5699 71.9997 92.3299 72.9997 92.3299C73.9997 92.3299 74.8197 91.5699 74.8197 90.6299C74.8197 89.6899 73.7397 88.8799 72.7397 88.8799ZM74.0397 90.8499C73.8097 91.4299 73.1097 91.8599 72.5697 91.6399C72.0297 91.4299 71.7797 90.7899 72.0097 90.2199C72.2397 89.6499 72.8597 89.3499 73.3897 89.5599C73.9297 89.7699 74.2597 90.2699 74.0397 90.8499Z" fill="white"/>
<path d="M73.9336 89.5401L78.3736 84.8501L78.7636 85.2401L74.2136 89.8201L73.9336 89.5401Z" fill="white"/>
<path d="M76.5742 84.3301L76.8142 86.9401L79.2742 87.1701V86.6101L77.2342 86.4601L77.0942 84.3301H76.5742Z" fill="white"/>
<path d="M75.2539 85.6099L75.4839 88.2099L77.9439 88.4499V87.8799L75.9139 87.7399L75.7739 85.6099H75.2539Z" fill="white"/>
<path d="M71.9525 91.9199L67.3425 96.4298L67.0625 96.1198L71.5725 91.5898L71.9525 91.9199Z" fill="white"/>
<path d="M69.1822 97.07L68.9522 94.46L66.4922 94.21V94.78L68.5322 94.93L68.6622 97.06L69.1822 97.07Z" fill="white"/>
<path d="M70.5103 95.7999L70.2903 93.1899L67.8303 92.9399L67.8203 93.5099L69.8603 93.6599L69.9903 95.7899L70.5103 95.7999Z" fill="white"/>
<path d="M74.4203 91L80.7203 92.39L80.5803 92.92L74.3203 91.38L74.4203 91Z" fill="white"/>
<path d="M80.2389 90.5801L78.1289 92.1301L79.1989 94.3601L79.6789 94.0601L78.7589 92.2501L80.5089 91.0301L80.2389 90.5801Z" fill="white"/>
<path d="M78.4616 90.1099L76.3516 91.6499L77.4216 93.8799L77.9116 93.5899L76.9816 91.7699L78.7316 90.5499L78.4616 90.1099Z" fill="white"/>
<path d="M71.3511 90.5302L65.1211 88.9102L65.2311 88.5103L71.4411 90.0403L71.3511 90.5302Z" fill="white"/>
<path d="M65.52 90.81L67.63 89.28L66.58 87.04L66.09 87.33L67.01 89.15L65.25 90.36L65.52 90.81Z" fill="white"/>
<path d="M67.2913 91.29L69.4113 89.76L68.3613 87.52L67.8713 87.81L68.7812 89.64L67.0312 90.85L67.2913 91.29Z" fill="white"/>
<path d="M73.3331 92.1699L74.9831 98.4099L74.4431 98.5299L72.9531 92.2499L73.3331 92.1699Z" fill="white"/>
<path d="M76.3713 97.1598L74.0312 95.9897L72.5312 97.9498L73.0213 98.2498L74.2113 96.5998L76.0913 97.5998L76.3713 97.1598Z" fill="white"/>
<path d="M75.9823 95.3599L73.6423 94.1899L72.1523 96.1499L72.6323 96.45L73.8223 94.7999L75.7023 95.7999L75.9823 95.3599Z" fill="white"/>
<path d="M72.3531 89.2299L70.9531 82.9399L71.3631 82.8599L72.8331 89.0799L72.3531 89.2299Z" fill="white"/>
<path d="M69.4414 84.1601L71.7714 85.3401L73.2814 83.3801L72.8014 83.0801L71.6014 84.7301L69.7114 83.7201L69.4414 84.1601Z" fill="white"/>
<path d="M69.8203 85.9599L72.1503 87.1499L73.6603 85.1899L73.1803 84.8799L71.9703 86.5299L70.0903 85.5199L69.8203 85.9599Z" fill="white"/>
<path d="M72.1108 164.26C71.1008 164.26 70.5508 165.07 70.5508 166.01C70.5508 166.95 71.3708 167.71 72.3708 167.71C73.3708 167.71 74.1908 166.95 74.1908 166.01C74.1908 165.07 73.1108 164.26 72.1108 164.26ZM73.4108 166.23C73.1808 166.81 72.4808 167.24 71.9408 167.02C71.4008 166.81 71.1508 166.17 71.3808 165.6C71.6108 165.03 72.2308 164.73 72.7608 164.94C73.3008 165.15 73.6308 165.65 73.4108 166.23Z" fill="white"/>
<path d="M73.3047 164.92L77.7447 160.24L78.1347 160.63L73.5847 165.21L73.3047 164.92Z" fill="white"/>
<path d="M75.9453 159.72L76.1853 162.32L78.6453 162.55V161.99L76.6153 161.84L76.4753 159.72H75.9453Z" fill="white"/>
<path d="M74.625 160.99L74.865 163.6L77.325 163.83V163.26L75.285 163.12L75.145 160.99H74.625Z" fill="white"/>
<path d="M71.3236 167.31L66.7236 171.81L66.4336 171.51L70.9436 166.97L71.3236 167.31Z" fill="white"/>
<path d="M68.5533 172.45L68.3333 169.84L65.8733 169.59L65.8633 170.16L67.9033 170.32L68.0333 172.45H68.5533Z" fill="white"/>
<path d="M69.8831 171.18L69.6631 168.57L67.2031 168.32V168.89L69.2331 169.05L69.3631 171.18H69.8831Z" fill="white"/>
<path d="M73.7914 166.38L80.0914 167.77L79.9614 168.3L73.6914 166.77L73.7914 166.38Z" fill="white"/>
<path d="M79.61 165.96L77.5 167.51L78.57 169.74L79.06 169.45L78.13 167.63L79.88 166.41L79.61 165.96Z" fill="white"/>
<path d="M77.8305 165.49L75.7305 167.03L76.7905 169.26L77.2805 168.97L76.3505 167.15L78.1005 165.93L77.8305 165.49Z" fill="white"/>
<path d="M70.7322 165.92L64.4922 164.29L64.6022 163.89L70.8222 165.42L70.7322 165.92Z" fill="white"/>
<path d="M64.8911 166.19L67.0011 164.66L65.9511 162.42L65.4611 162.71L66.3811 164.53L64.6211 165.74L64.8911 166.19Z" fill="white"/>
<path d="M66.6623 166.68L68.7823 165.14L67.7323 162.91L67.2423 163.2L68.1623 165.02L66.4023 166.23L66.6623 166.68Z" fill="white"/>
<path d="M72.7142 167.55L74.3542 173.79L73.8242 173.91L72.3242 167.63L72.7142 167.55Z" fill="white"/>
<path d="M75.7441 172.54L73.4041 171.37L71.9141 173.33L72.3941 173.63L73.5841 171.98L75.4741 172.98L75.7441 172.54Z" fill="white"/>
<path d="M75.3534 170.74L73.0234 169.57L71.5234 171.54L72.0034 171.83L73.1934 170.18L75.0834 171.18L75.3534 170.74Z" fill="white"/>
<path d="M71.7242 164.61L70.3242 158.32L70.7342 158.24L72.2042 164.47L71.7242 164.61Z" fill="white"/>
<path d="M68.8125 159.54L71.1425 160.73L72.6525 158.77L72.1725 158.46L70.9725 160.11L69.0925 159.1L68.8125 159.54Z" fill="white"/>
<path d="M69.1914 161.34L71.5214 162.53L73.0314 160.57L72.5514 160.27L71.3514 161.92L69.4714 160.9L69.1914 161.34Z" fill="white"/>
<path d="M116.681 127.3C115.671 127.3 115.121 128.11 115.121 129.05C115.121 129.99 115.941 130.75 116.941 130.75C117.941 130.75 118.761 129.99 118.761 129.05C118.761 128.11 117.681 127.3 116.681 127.3ZM117.981 129.27C117.751 129.84 117.051 130.28 116.511 130.06C115.971 129.85 115.721 129.21 115.951 128.64C116.181 128.07 116.801 127.77 117.331 127.98C117.871 128.19 118.201 128.69 117.981 129.27Z" fill="white"/>
<path d="M117.875 127.96L122.315 123.28L122.705 123.67L118.155 128.25L117.875 127.96Z" fill="white"/>
<path d="M120.516 122.76L120.756 125.36L123.216 125.6V125.03L121.186 124.89L121.036 122.76H120.516Z" fill="white"/>
<path d="M119.195 124.03L119.425 126.64L121.895 126.87V126.3L119.855 126.16L119.715 124.03H119.195Z" fill="white"/>
<path d="M115.894 130.35L111.284 134.85L111.004 134.55L115.514 130.01L115.894 130.35Z" fill="white"/>
<path d="M113.124 135.49L112.904 132.89L110.444 132.63L110.434 133.2L112.474 133.36L112.604 135.49H113.124Z" fill="white"/>
<path d="M114.452 134.22L114.232 131.61L111.772 131.36L111.762 131.93L113.802 132.09L113.932 134.22H114.452Z" fill="white"/>
<path d="M118.362 129.42L124.662 130.81L124.532 131.34L118.262 129.81L118.362 129.42Z" fill="white"/>
<path d="M124.18 129L122.07 130.55L123.14 132.78L123.63 132.49L122.7 130.67L124.45 129.45L124.18 129Z" fill="white"/>
<path d="M122.403 128.53L120.293 130.07L121.363 132.3L121.853 132.01L120.923 130.19L122.673 128.97L122.403 128.53Z" fill="white"/>
<path d="M115.293 128.96L109.062 127.33L109.173 126.93L115.393 128.46L115.293 128.96Z" fill="white"/>
<path d="M109.461 129.23L111.571 127.7L110.521 125.46L110.031 125.75L110.951 127.57L109.191 128.78L109.461 129.23Z" fill="white"/>
<path d="M111.233 129.72L113.353 128.18L112.303 125.95L111.813 126.24L112.733 128.06L110.973 129.27L111.233 129.72Z" fill="white"/>
<path d="M117.285 130.59L118.925 136.83L118.395 136.95L116.895 130.67L117.285 130.59Z" fill="white"/>
<path d="M120.313 135.58L117.973 134.41L116.473 136.38L116.963 136.67L118.153 135.02L120.033 136.02L120.313 135.58Z" fill="white"/>
<path d="M119.924 133.78L117.584 132.61L116.094 134.58L116.574 134.88L117.764 133.22L119.654 134.22L119.924 133.78Z" fill="white"/>
<path d="M116.295 127.65L114.895 121.36L115.305 121.28L116.775 127.51L116.295 127.65Z" fill="white"/>
<path d="M113.383 122.58L115.713 123.77L117.223 121.81L116.743 121.5L115.543 123.15L113.663 122.14L113.383 122.58Z" fill="white"/>
<path d="M113.762 124.39L116.092 125.57L117.602 123.61L117.122 123.31L115.912 124.96L114.032 123.94L113.762 124.39Z" fill="white"/>
<path d="M27.9702 119.22C26.9602 119.22 26.4102 120.03 26.4102 120.97C26.4102 121.91 27.2302 122.67 28.2302 122.67C29.2302 122.67 30.0502 121.91 30.0502 120.97C30.0502 120.03 28.9702 119.22 27.9702 119.22ZM29.2702 121.19C29.0402 121.76 28.3402 122.2 27.8002 121.98C27.2602 121.77 27.0102 121.13 27.2402 120.56C27.4702 119.99 28.0902 119.69 28.6202 119.9C29.1602 120.11 29.4902 120.61 29.2702 121.19Z" fill="white"/>
<path d="M29.1641 119.88L33.6041 115.2L33.9941 115.59L29.4441 120.17L29.1641 119.88Z" fill="white"/>
<path d="M31.8047 114.67L32.0447 117.28L34.5047 117.51V116.95L32.4747 116.8L32.3247 114.67H31.8047Z" fill="white"/>
<path d="M30.4844 115.95L30.7244 118.56L33.1844 118.79V118.22L31.1444 118.08L31.0044 115.95H30.4844Z" fill="white"/>
<path d="M27.183 122.27L22.573 126.77L22.293 126.47L26.803 121.93L27.183 122.27Z" fill="white"/>
<path d="M24.4127 127.41L24.1927 124.8L21.7327 124.55L21.7227 125.12L23.7627 125.28L23.8927 127.41H24.4127Z" fill="white"/>
<path d="M25.7408 126.14L25.5208 123.53L23.0608 123.28L23.0508 123.85L25.0908 124L25.2208 126.14H25.7408Z" fill="white"/>
<path d="M29.6508 121.34L35.9508 122.73L35.8208 123.26L29.5508 121.73L29.6508 121.34Z" fill="white"/>
<path d="M35.4694 120.92L33.3594 122.47L34.4294 124.7L34.9194 124.41L33.9894 122.59L35.7394 121.37L35.4694 120.92Z" fill="white"/>
<path d="M33.692 120.45L31.582 121.99L32.652 124.22L33.142 123.93L32.212 122.11L33.962 120.89L33.692 120.45Z" fill="white"/>
<path d="M26.5816 120.88L20.3516 119.25L20.4616 118.85L26.6816 120.38L26.5816 120.88Z" fill="white"/>
<path d="M20.7505 121.15L22.8605 119.62L21.8105 117.38L21.3205 117.67L22.2405 119.49L20.4805 120.7L20.7505 121.15Z" fill="white"/>
<path d="M22.5217 121.64L24.6417 120.1L23.5917 117.87L23.1017 118.16L24.0217 119.98L22.2617 121.19L22.5217 121.64Z" fill="white"/>
<path d="M28.5736 122.51L30.2136 128.75L29.6836 128.87L28.1836 122.59L28.5736 122.51Z" fill="white"/>
<path d="M31.6034 127.5L29.2634 126.33L27.7734 128.29L28.2534 128.59L29.4434 126.94L31.3334 127.94L31.6034 127.5Z" fill="white"/>
<path d="M31.2128 125.7L28.8728 124.53L27.3828 126.5L27.8628 126.79L29.0528 125.14L30.9428 126.14L31.2128 125.7Z" fill="white"/>
<path d="M27.5836 119.57L26.1836 113.28L26.5936 113.2L28.0636 119.43L27.5836 119.57Z" fill="white"/>
<path d="M24.6719 114.5L27.0019 115.69L28.5119 113.73L28.0319 113.42L26.8319 115.07L24.9519 114.06L24.6719 114.5Z" fill="white"/>
<path d="M25.0508 116.299L27.3808 117.489L28.8908 115.529L28.4108 115.229L27.2008 116.879L25.3308 115.859L25.0508 116.299Z" fill="white"/>
<path d="M108.442 158.59C106.762 158.59 105.832 159.94 105.832 161.51C105.832 163.08 107.192 164.35 108.872 164.35C110.552 164.35 111.912 163.08 111.912 161.51C111.912 159.94 110.112 158.59 108.432 158.59H108.442ZM110.622 161.87C110.242 162.83 109.062 163.55 108.172 163.2C107.272 162.85 106.852 161.78 107.232 160.82C107.612 159.86 108.642 159.37 109.542 159.72C110.442 160.07 111.002 160.91 110.622 161.87Z" fill="white"/>
<path d="M110.43 159.7L117.84 151.88L118.49 152.53L110.89 160.17L110.43 159.7Z" fill="white"/>
<path d="M114.84 151.01L115.24 155.36L119.35 155.75V154.8L115.95 154.57L115.71 151.01H114.84Z" fill="white"/>
<path d="M112.629 153.14L113.029 157.49L117.129 157.88V156.93L113.739 156.7L113.499 153.14H112.629Z" fill="white"/>
<path d="M107.129 163.68L99.4388 171.19L98.9688 170.69L106.499 163.12L107.129 163.68Z" fill="white"/>
<path d="M102.5 172.26L102.13 167.92L98.0295 167.5L98.0195 168.45L101.41 168.7L101.63 172.26H102.5Z" fill="white"/>
<path d="M104.718 170.14L104.348 165.79L100.248 165.38L100.238 166.33L103.638 166.58L103.858 170.14H104.718Z" fill="white"/>
<path d="M111.242 162.14L121.772 164.46L121.542 165.34L111.082 162.78L111.242 162.14Z" fill="white"/>
<path d="M120.961 161.439L117.441 164.019L119.221 167.739L120.031 167.249L118.491 164.219L121.411 162.179L120.961 161.439Z" fill="white"/>
<path d="M117.99 160.64L114.48 163.22L116.25 166.94L117.07 166.46L115.52 163.42L118.44 161.39L117.99 160.64Z" fill="white"/>
<path d="M106.13 161.36L95.7305 158.64L95.9205 157.98L106.28 160.53L106.13 161.36Z" fill="white"/>
<path d="M96.3892 161.82L99.9192 159.26L98.1692 155.53L97.3492 156.01L98.8792 159.05L95.9492 161.07L96.3892 161.82Z" fill="white"/>
<path d="M99.3502 162.63L102.89 160.07L101.13 156.34L100.31 156.82L101.84 159.86L98.9102 161.88L99.3502 162.63Z" fill="white"/>
<path d="M109.443 164.08L112.183 174.5L111.293 174.71L108.793 164.23L109.443 164.08Z" fill="white"/>
<path d="M114.502 172.409L110.602 170.459L108.102 173.739L108.912 174.239L110.902 171.479L114.042 173.149L114.502 172.409Z" fill="white"/>
<path d="M113.853 169.41L109.953 167.45L107.453 170.74L108.263 171.24L110.253 168.47L113.403 170.15L113.853 169.41Z" fill="white"/>
<path d="M107.801 159.18L105.461 148.69L106.141 148.55L108.601 158.94L107.801 159.18Z" fill="white"/>
<path d="M102.941 150.72L106.831 152.7L109.341 149.43L108.541 148.93L106.541 151.68L103.401 149.99L102.941 150.72Z" fill="white"/>
<path d="M103.57 153.73L107.46 155.71L109.98 152.43L109.17 151.93L107.17 154.68L104.03 153L103.57 153.73Z" fill="white"/>
<path d="M107.36 92.2798C105.68 92.2798 104.75 93.6298 104.75 95.1998C104.75 96.7698 106.11 98.0398 107.79 98.0398C109.47 98.0398 110.83 96.7698 110.83 95.1998C110.83 93.6298 109.03 92.2798 107.35 92.2798H107.36ZM109.54 95.5698C109.16 96.5298 107.98 97.2498 107.09 96.8998C106.19 96.5398 105.77 95.4798 106.15 94.5198C106.53 93.5598 107.56 93.0698 108.46 93.4198C109.36 93.7698 109.92 94.6098 109.54 95.5698Z" fill="white"/>
<path d="M109.34 93.3898L116.76 85.5698L117.4 86.2198L109.81 93.8598L109.34 93.3898Z" fill="white"/>
<path d="M113.75 84.6997L114.15 89.0497L118.26 89.4397V88.4897L114.86 88.2597L114.62 84.6997H113.75Z" fill="white"/>
<path d="M111.539 86.8296L111.939 91.1796L116.049 91.5696V90.6196L112.649 90.3896L112.409 86.8296H111.539Z" fill="white"/>
<path d="M106.039 97.3696L98.3489 104.88L97.8789 104.38L105.409 96.8096L106.039 97.3696Z" fill="white"/>
<path d="M101.41 105.949L101.04 101.609L96.9397 101.189L96.9297 102.139L100.33 102.389L100.54 105.949H101.41Z" fill="white"/>
<path d="M103.638 103.829L103.258 99.4893L99.1584 99.0693L99.1484 100.019L102.548 100.269L102.768 103.829H103.638Z" fill="white"/>
<path d="M110.152 95.8296L120.682 98.1496L120.452 99.0396L109.992 96.4696L110.152 95.8296Z" fill="white"/>
<path d="M119.873 95.1294L116.363 97.7094L118.133 101.429L118.953 100.939L117.403 97.9094L120.323 95.8694L119.873 95.1294Z" fill="white"/>
<path d="M116.911 94.3296L113.391 96.9096L115.171 100.63L115.981 100.15L114.431 97.1096L117.361 95.0796L116.911 94.3296Z" fill="white"/>
<path d="M105.041 95.0499L94.6406 92.3299L94.8306 91.6699L105.201 94.2199L105.041 95.0499Z" fill="white"/>
<path d="M95.2994 95.5097L98.8394 92.9497L97.0794 89.2197L96.2594 89.6997L97.7894 92.7397L94.8594 94.7597L95.2994 95.5097Z" fill="white"/>
<path d="M98.2703 96.3198L101.8 93.7598L100.04 90.0298L99.2303 90.5098L100.76 93.5498L97.8203 95.5698L98.2703 96.3198Z" fill="white"/>
<path d="M108.349 97.7695L111.089 108.19L110.199 108.4L107.699 97.9196L108.349 97.7695Z" fill="white"/>
<path d="M113.412 106.099L109.512 104.149L107.012 107.429L107.822 107.929L109.812 105.169L112.962 106.839L113.412 106.099Z" fill="white"/>
<path d="M112.771 103.1L108.861 101.14L106.371 104.43L107.171 104.93L109.161 102.17L112.311 103.84L112.771 103.1Z" fill="white"/>
<path d="M106.711 92.8698L104.371 82.3798L105.051 82.2397L107.511 92.6298L106.711 92.8698Z" fill="white"/>
<path d="M101.852 84.4196L105.742 86.3896L108.262 83.1196L107.452 82.6196L105.452 85.3696L102.312 83.6796L101.852 84.4196Z" fill="white"/>
<path d="M102.48 87.4196L106.37 89.3996L108.89 86.1196L108.09 85.6196L106.08 88.3696L102.94 86.6896L102.48 87.4196Z" fill="white"/>
<path opacity="0.5" d="M6.8125 68.5195L135.512 102.29L135.993 73.7095L18.5725 59.0396L6.8125 68.5195Z" fill="#A03C3C"/>
<path d="M2.61172 45.5698L141.772 46.6798L141.042 74.5698L2.01172 68.3898L2.61172 45.5698Z" fill="#7D965E"/>
<path d="M13.4625 45.6597L12.5625 68.8596L18.7225 69.1297L19.2225 45.6997L13.4625 45.6597Z" fill="#E2E0D7"/>
<path d="M32.1314 45.8096L31.1914 69.6896L37.3714 69.9596L37.8814 45.8496L32.1314 45.8096Z" fill="#E2E0D7"/>
<path d="M55.0911 45.9897L54.1211 70.7097L60.3411 70.9798L60.8611 46.0298L55.0911 45.9897Z" fill="#E2E0D7"/>
<path d="M79.7639 46.1797L78.7539 71.7997L84.8339 72.0697L85.3839 46.2297L79.7639 46.1797Z" fill="#E2E0D7"/>
<path d="M99.8425 46.3398L98.8125 72.6898L104.863 72.9598L105.423 46.3899L99.8425 46.3398Z" fill="#E2E0D7"/>
<path d="M121.912 46.5195L120.852 73.6696L126.882 73.9395L127.462 46.5595L121.912 46.5195Z" fill="#E2E0D7"/>
</g>
<defs>
<filter id="filter0_d_5811_59910" x="0" y="0.40625" width="147.773" height="192.713" filterUnits="userSpaceOnUse" color-interpolation-filters="sRGB">
<feFlood flood-opacity="0" result="BackgroundImageFix"/>
<feColorMatrix in="SourceAlpha" type="matrix" values="0 0 0 0 0 0 0 0 0 0 0 0 0 0 0 0 0 0 127 0" result="hardAlpha"/>
<feOffset dx="2" dy="2"/>
<feGaussianBlur stdDeviation="2"/>
<feColorMatrix type="matrix" values="0 0 0 0 0 0 0 0 0 0 0 0 0 0 0 0 0 0 0.2 0"/>
<feBlend mode="normal" in2="BackgroundImageFix" result="effect1_dropShadow_5811_59910"/>
<feBlend mode="normal" in="SourceGraphic" in2="effect1_dropShadow_5811_59910" result="shape"/>
</filter>
</defs>
</svg>
