<svg width="168" height="57" viewBox="0 0 168 57" fill="none" xmlns="http://www.w3.org/2000/svg">
<g clip-path="url(#clip0_5736_49250)">
<mask id="mask0_5736_49250" style="mask-type:luminance" maskUnits="userSpaceOnUse" x="0" y="0" width="168" height="57">
<path d="M167.53 0.0673828H0V56.0674H167.53V0.0673828Z" fill="white"/>
</mask>
<g mask="url(#mask0_5736_49250)">
<path d="M154.188 0.0673852H13.3485C12.8352 0.0673852 12.3279 0.0673852 11.8159 0.0701852C11.3873 0.0729852 10.9621 0.0811192 10.5294 0.0879652C9.5893 0.0990277 8.65147 0.181732 7.72392 0.335359C6.79776 0.492331 5.90053 0.788267 5.06271 1.21316C4.2259 1.64164 3.46128 2.19842 2.7966 2.86328C2.12843 3.52628 1.57145 4.29261 1.14709 5.13281C0.72156 5.97135 0.426497 6.86992 0.27209 7.79748C0.116215 8.72387 0.0323377 9.66094 0.02121 10.6003C0.008218 11.0295 0.006846 11.4602 0 11.8894V44.2495C0.006846 44.6842 0.008218 45.1053 0.02121 45.5401C0.0323412 46.4794 0.116219 47.4164 0.27209 48.3428C0.42607 49.2708 0.721152 50.1699 1.14709 51.0088C1.57125 51.8463 2.12831 52.6095 2.7966 53.2688C3.45876 53.9366 4.22387 54.4938 5.06271 54.919C5.90053 55.345 6.79764 55.6427 7.72392 55.8021C8.65159 55.9545 9.58936 56.0372 10.5294 56.0496C10.9621 56.0592 11.3873 56.0646 11.8159 56.0646C12.3279 56.0674 12.8352 56.0674 13.3485 56.0674H154.188C154.692 56.0674 155.203 56.0674 155.706 56.0646C156.133 56.0646 156.57 56.0592 156.997 56.0496C157.935 56.0379 158.871 55.9551 159.797 55.8021C160.726 55.6415 161.626 55.3439 162.468 54.919C163.306 54.4935 164.071 53.9364 164.733 53.2688C165.399 52.6069 165.957 51.8442 166.387 51.0088C166.809 50.1693 167.102 49.2703 167.253 48.3428C167.41 47.4163 167.497 46.4795 167.513 45.5401C167.519 45.1053 167.519 44.6842 167.519 44.2495C167.53 43.7408 167.53 43.235 167.53 42.7181V13.418C167.53 12.9053 167.53 12.3967 167.519 11.8894C167.519 11.4602 167.519 11.0295 167.513 10.6002C167.497 9.66076 167.41 8.72393 167.253 7.79742C167.101 6.87039 166.809 5.97188 166.387 5.13275C165.523 3.44866 164.152 2.07782 162.468 1.21303C161.626 0.789177 160.726 0.493322 159.797 0.335233C158.871 0.180929 157.935 0.0981961 156.997 0.0877692C156.57 0.0809372 156.133 0.0727332 155.706 0.0700032C155.203 0.0672032 154.692 0.0673852 154.188 0.0673852Z" fill="black"/>
<path d="M11.8232 54.84C11.3966 54.84 10.9804 54.8345 10.5572 54.825C9.68052 54.8136 8.80581 54.7373 7.94038 54.5967C7.13346 54.4577 6.35167 54.1992 5.62097 53.8296C4.89694 53.4632 4.23658 52.9826 3.66517 52.4064C3.08548 51.837 2.60287 51.1766 2.23645 50.4513C1.866 49.7213 1.60962 48.9389 1.47625 48.1312C1.33223 47.2634 1.2543 46.3859 1.24315 45.5062C1.23428 45.211 1.22266 44.2279 1.22266 44.2279V11.8871C1.22266 11.8871 1.23503 10.9191 1.24322 10.6347C1.2539 9.75653 1.33137 8.88037 1.47497 8.01388C1.60858 7.20398 1.86516 6.41928 2.23581 5.68692C2.60088 4.96216 3.08081 4.30124 3.65701 3.72979C4.23255 3.15291 4.89503 2.66988 5.62028 2.29833C6.34934 1.92997 7.12961 1.67327 7.93496 1.53682C8.80319 1.39481 9.68087 1.31803 10.5607 1.30713L11.8239 1.29004H155.7L156.978 1.30782C157.85 1.31818 158.72 1.39427 159.58 1.53545C160.393 1.6736 161.182 1.9321 161.919 2.30244C163.372 3.05122 164.554 4.23587 165.3 5.69034C165.665 6.41765 165.918 7.19593 166.049 7.99883C166.195 8.87243 166.276 9.75548 166.293 10.6409C166.297 11.0374 166.297 11.4633 166.297 11.8871C166.308 12.4121 166.308 12.9118 166.308 13.4156V42.7157C166.308 43.2243 166.308 43.7206 166.297 44.221C166.297 44.6763 166.297 45.0933 166.292 45.5226C166.275 46.3923 166.195 47.2596 166.052 48.1175C165.922 48.931 165.666 49.7195 165.296 50.4555C164.927 51.1729 164.447 51.8276 163.874 52.3955C163.303 52.9748 162.641 53.4582 161.915 53.827C161.18 54.1994 160.392 54.4589 159.58 54.5967C158.715 54.7381 157.84 54.8144 156.963 54.825C156.553 54.8345 156.123 54.84 155.707 54.84L154.189 54.8428L11.8232 54.84Z" fill="black"/>
<path d="M27.0337 28.2655L15.0283 16.6126C14.8764 16.9251 14.8013 17.2694 14.8092 17.6168V38.9179C14.8092 39.3257 14.893 39.6649 15.0359 39.9355L27.0337 28.2655ZM27.7293 27.5909L31.4262 23.995L17.3284 16.2067C16.9913 16.0046 16.6083 15.8918 16.2155 15.8789C16.055 15.8786 15.8957 15.9063 15.7448 15.9609L27.7293 27.5909ZM36.64 26.8763L32.318 24.4885L28.4306 28.2712L32.318 32.0443L36.64 29.6547C38.0235 28.8924 38.0235 27.6404 36.64 26.8763ZM27.7369 28.9477L15.7791 40.5815C16.206 40.7225 16.7415 40.6558 17.3284 40.3338L31.4338 32.5341L27.7369 28.9477Z" fill="white"/>
<path d="M56.6711 41.2189C55.7473 41.2189 54.8796 41.0539 54.068 40.7239C53.2629 40.3872 52.5536 39.8957 51.94 39.2492C51.3329 38.6027 50.8578 37.8115 50.5147 36.8755C50.1716 35.9327 50 34.8553 50 33.6431C50 32.0539 50.2903 30.697 50.871 29.5724C51.4517 28.4411 52.2468 27.5758 53.2563 26.9765C54.2659 26.3704 55.4042 26.0674 56.6711 26.0674C58.4263 26.0674 59.8152 26.4849 60.838 27.3199C61.8674 28.1482 62.5635 29.3132 62.9264 30.8149L60.4916 31.2088C60.221 30.3468 59.7789 29.66 59.1653 29.1482C58.5516 28.6297 57.7697 28.3704 56.8195 28.3704C55.8627 28.3569 55.0676 28.5691 54.4342 29.0068C53.8007 29.4445 53.3223 30.0606 52.999 30.8553C52.6823 31.6499 52.5239 32.5792 52.5239 33.6431C52.5239 34.7071 52.6823 35.633 52.999 36.4209C53.3157 37.2021 53.7908 37.8115 54.4243 38.2492C55.0643 38.6869 55.8627 38.9125 56.8195 38.926C57.5388 38.9327 58.1689 38.8014 58.71 38.532C59.2511 38.2559 59.6932 37.8418 60.0363 37.2896C60.3794 36.7307 60.6104 36.0337 60.7291 35.1987H58.2151V33.2896H63.2629C63.2761 33.3973 63.286 33.5556 63.2926 33.7644C63.2992 33.9731 63.3025 34.0977 63.3025 34.1381C63.3025 35.5118 63.0353 36.734 62.5008 37.8048C61.9729 38.8687 61.2141 39.7037 60.2243 40.3098C59.2346 40.9159 58.0501 41.2189 56.6711 41.2189Z" fill="white"/>
<path d="M69.8137 41.2189C68.7447 41.2189 67.811 40.9731 67.0126 40.4815C66.2142 39.9899 65.594 39.3132 65.1519 38.4512C64.7164 37.5825 64.4986 36.5859 64.4986 35.4613C64.4986 34.3165 64.723 33.3132 65.1717 32.4512C65.6204 31.5893 66.2439 30.9159 67.0423 30.431C67.8407 29.9462 68.7645 29.7037 69.8137 29.7037C70.8892 29.7037 71.8262 29.9495 72.6246 30.4411C73.4231 30.9327 74.0433 31.6128 74.4854 32.4815C74.9275 33.3435 75.1486 34.3367 75.1486 35.4613C75.1486 36.5926 74.9242 37.5926 74.4755 38.4613C74.0334 39.3233 73.4132 40 72.6147 40.4916C71.8163 40.9765 70.8826 41.2189 69.8137 41.2189ZM69.8137 38.9361C70.7639 38.9361 71.4699 38.6128 71.9318 37.9664C72.3937 37.3199 72.6246 36.4849 72.6246 35.4613C72.6246 34.4041 72.3904 33.5623 71.9219 32.9361C71.4534 32.3031 70.7507 31.9866 69.8137 31.9866C69.1736 31.9866 68.6458 32.1347 68.2301 32.431C67.8209 32.7206 67.5174 33.128 67.3195 33.6532C67.1215 34.1718 67.0225 34.7745 67.0225 35.4613C67.0225 36.5186 67.2568 37.3637 67.7253 37.9967C68.2004 38.6229 68.8965 38.9361 69.8137 38.9361Z" fill="white"/>
<path d="M81.8526 41.2189C80.7836 41.2189 79.8499 40.9731 79.0515 40.4815C78.2531 39.9899 77.6328 39.3132 77.1907 38.4512C76.7552 37.5825 76.5375 36.5859 76.5375 35.4613C76.5375 34.3165 76.7618 33.3132 77.2105 32.4512C77.6592 31.5893 78.2828 30.9159 79.0812 30.431C79.8796 29.9462 80.8034 29.7037 81.8526 29.7037C82.9281 29.7037 83.8651 29.9495 84.6635 30.4411C85.4619 30.9327 86.0822 31.6128 86.5243 32.4815C86.9664 33.3435 87.1874 34.3367 87.1874 35.4613C87.1874 36.5926 86.9631 37.5926 86.5144 38.4613C86.0723 39.3233 85.452 40 84.6536 40.4916C83.8552 40.9765 82.9215 41.2189 81.8526 41.2189ZM81.8526 38.9361C82.8027 38.9361 83.5088 38.6128 83.9707 37.9664C84.4326 37.3199 84.6635 36.4849 84.6635 35.4613C84.6635 34.4041 84.4293 33.5623 83.9608 32.9361C83.4923 32.3031 82.7895 31.9866 81.8526 31.9866C81.2125 31.9866 80.6846 32.1347 80.2689 32.431C79.8598 32.7206 79.5563 33.128 79.3583 33.6532C79.1604 34.1718 79.0614 34.7745 79.0614 35.4613C79.0614 36.5186 79.2957 37.3637 79.7641 37.9967C80.2392 38.6229 80.9354 38.9361 81.8526 38.9361Z" fill="white"/>
<path d="M93.6638 46.0674C93.0699 46.0674 92.4992 45.9731 91.9515 45.7846C91.4104 45.596 90.9221 45.3233 90.4866 44.9664C90.0511 44.6162 89.6948 44.192 89.4177 43.6936L91.615 42.5825C91.8195 42.9798 92.1065 43.2728 92.4761 43.4613C92.8522 43.6566 93.2514 43.7543 93.6737 43.7543C94.1686 43.7543 94.6107 43.6633 95 43.4815C95.3893 43.3064 95.6895 43.0438 95.9007 42.6936C96.1184 42.3502 96.2207 41.9192 96.2075 41.4007V38.2997H96.5044V30.0068H98.5928V41.4411C98.5928 41.7172 98.5797 41.9798 98.5533 42.229C98.5335 42.4849 98.4972 42.734 98.4444 42.9765C98.286 43.6835 97.9825 44.2627 97.5338 44.7138C97.0851 45.1718 96.5275 45.5118 95.8611 45.734C95.2012 45.9563 94.4688 46.0674 93.6638 46.0674ZM93.4559 41.2189C92.4728 41.2189 91.615 40.9664 90.8825 40.4613C90.1501 39.9563 89.5826 39.2694 89.1801 38.4007C88.7776 37.532 88.5764 36.5522 88.5764 35.4613C88.5764 34.3569 88.7776 33.3738 89.1801 32.5118C89.5892 31.6431 90.1666 30.9596 90.9122 30.4613C91.6579 29.9563 92.5354 29.7037 93.545 29.7037C94.5612 29.7037 95.4124 29.9563 96.0986 30.4613C96.7915 30.9596 97.316 31.6431 97.6724 32.5118C98.0287 33.3805 98.2068 34.3637 98.2068 35.4613C98.2068 36.5455 98.0287 37.5253 97.6724 38.4007C97.316 39.2694 96.7849 39.9563 96.0788 40.4613C95.3728 40.9664 94.4985 41.2189 93.4559 41.2189ZM93.8222 39.0371C94.4622 39.0371 94.9769 38.8889 95.3662 38.5926C95.7621 38.2896 96.0491 37.8687 96.2273 37.33C96.4121 36.7913 96.5044 36.1684 96.5044 35.4613C96.5044 34.7475 96.4121 34.1246 96.2273 33.5926C96.0491 33.0539 95.7687 32.6364 95.386 32.3401C95.0033 32.0371 94.5084 31.8856 93.9013 31.8856C93.2613 31.8856 92.7334 32.0472 92.3177 32.3704C91.902 32.6869 91.5952 33.1179 91.3972 33.6633C91.1993 34.2021 91.1003 34.8014 91.1003 35.4613C91.1003 36.128 91.196 36.734 91.3873 37.2795C91.5853 37.8182 91.8855 38.2458 92.288 38.5623C92.6905 38.8788 93.2019 39.0371 93.8222 39.0371Z" fill="white"/>
<path d="M101.368 40.9159V26.0674H103.754V40.9159H101.368Z" fill="white"/>
<path d="M111.38 41.2189C110.298 41.2189 109.348 40.9798 108.53 40.5017C107.712 40.0236 107.072 39.3603 106.61 38.5118C106.154 37.6633 105.927 36.6869 105.927 35.5825C105.927 34.3906 106.151 33.3569 106.6 32.4815C107.048 31.5994 107.672 30.9159 108.47 30.431C109.269 29.9462 110.193 29.7037 111.242 29.7037C112.35 29.7037 113.291 29.9697 114.063 30.5017C114.841 31.027 115.419 31.7711 115.795 32.734C116.171 33.697 116.313 34.8317 116.22 36.1381H113.855V35.2492C113.848 34.064 113.644 33.1987 113.241 32.6532C112.839 32.1078 112.205 31.8351 111.341 31.8351C110.364 31.8351 109.638 32.1448 109.163 32.7644C108.688 33.3771 108.451 34.2761 108.451 35.4613C108.451 36.5657 108.688 37.4209 109.163 38.027C109.638 38.633 110.331 38.9361 111.242 38.9361C111.829 38.9361 112.334 38.8048 112.756 38.5421C113.185 38.2728 113.515 37.8856 113.746 37.3805L116.102 38.1078C115.692 39.091 115.059 39.8553 114.201 40.4007C113.35 40.9462 112.41 41.2189 111.38 41.2189ZM107.698 36.1381V34.2997H115.052V36.1381H107.698Z" fill="white"/>
<path d="M121.996 40.9159V26.3704H127.885C128.024 26.3704 128.202 26.3771 128.419 26.3906C128.637 26.3973 128.838 26.4176 129.023 26.4512C129.848 26.5792 130.528 26.8586 131.062 27.2896C131.603 27.7206 132.002 28.266 132.26 28.926C132.524 29.5792 132.656 30.3064 132.656 31.1078C132.656 31.9024 132.524 32.6297 132.26 33.2896C131.996 33.9428 131.593 34.4849 131.052 34.9159C130.518 35.3468 129.841 35.6263 129.023 35.7543C128.838 35.7812 128.634 35.8014 128.41 35.8149C128.192 35.8283 128.017 35.8351 127.885 35.8351H124.381V40.9159H121.996ZM124.381 33.5623H127.786C127.918 33.5623 128.066 33.5556 128.231 33.5421C128.396 33.5287 128.548 33.5017 128.687 33.4613C129.083 33.3603 129.393 33.1819 129.617 32.926C129.848 32.6701 130.01 32.3805 130.102 32.0573C130.201 31.734 130.251 31.4176 130.251 31.1078C130.251 30.798 130.201 30.4815 130.102 30.1583C130.01 29.8283 129.848 29.5354 129.617 29.2795C129.393 29.0236 129.083 28.8452 128.687 28.7441C128.548 28.7037 128.396 28.6802 128.231 28.6734C128.066 28.66 127.918 28.6532 127.786 28.6532H124.381V33.5623Z" fill="white"/>
<path d="M134.639 40.9159V26.0674H137.024V40.9159H134.639Z" fill="white"/>
<path d="M142.78 41.2189C142.008 41.2189 141.355 41.0707 140.82 40.7745C140.286 40.4714 139.88 40.0707 139.603 39.5724C139.332 39.0741 139.197 38.5253 139.197 37.926C139.197 37.4007 139.283 36.9293 139.454 36.5118C139.626 36.0876 139.89 35.7239 140.246 35.4209C140.602 35.1112 141.064 34.8586 141.632 34.6633C142.061 34.5219 142.562 34.394 143.136 34.2795C143.717 34.165 144.344 34.0606 145.017 33.9664C145.697 33.8654 146.406 33.7576 147.145 33.6431L146.294 34.1381C146.3 33.3839 146.135 32.8283 145.799 32.4714C145.462 32.1145 144.895 31.9361 144.096 31.9361C143.615 31.9361 143.149 32.0505 142.701 32.2795C142.252 32.5085 141.939 32.9024 141.761 33.4613L139.583 32.7644C139.847 31.8418 140.348 31.1011 141.087 30.5421C141.833 29.9832 142.836 29.7037 144.096 29.7037C145.047 29.7037 145.881 29.862 146.601 30.1785C147.326 30.495 147.864 31.0135 148.214 31.734C148.405 32.1179 148.521 32.5118 148.56 32.9159C148.6 33.3132 148.62 33.7475 148.62 34.2189V40.9159H146.531V38.5522L146.878 38.9361C146.396 39.7239 145.832 40.3031 145.185 40.6734C144.545 41.0371 143.743 41.2189 142.78 41.2189ZM143.255 39.2795C143.796 39.2795 144.258 39.1819 144.641 38.9866C145.023 38.7913 145.327 38.5522 145.551 38.2694C145.782 37.9866 145.937 37.7206 146.017 37.4714C146.142 37.1617 146.211 36.8081 146.224 36.4108C146.244 36.0068 146.254 35.6802 146.254 35.431L146.987 35.6532C146.267 35.7677 145.65 35.8687 145.136 35.9563C144.621 36.0438 144.179 36.128 143.809 36.2088C143.44 36.2829 143.113 36.367 142.829 36.4613C142.552 36.5623 142.318 36.6802 142.127 36.8149C141.935 36.9495 141.787 37.1044 141.681 37.2795C141.582 37.4546 141.533 37.66 141.533 37.8957C141.533 38.165 141.599 38.4041 141.731 38.6128C141.863 38.8149 142.054 38.9765 142.305 39.0977C142.562 39.2189 142.879 39.2795 143.255 39.2795Z" fill="white"/>
<path d="M151.805 45.7644L153.863 39.9967L153.903 41.6936L149.241 30.0068H151.726L155.031 38.6532H154.398L157.615 30.0068H160L154.042 45.7644H151.805Z" fill="white"/>
<path d="M53.0173 12.2917C53.5628 12.2526 54.1102 12.335 54.6199 12.533C55.1297 12.731 55.5892 13.0397 55.9652 13.4367C56.3412 13.8338 56.6244 14.3094 56.7943 14.8291C56.9643 15.349 57.0168 15.9 56.948 16.4425C56.948 19.1112 55.5056 20.6453 53.0173 20.6453H50V12.2917H53.0173ZM51.2975 19.4639H52.8725C53.2622 19.4872 53.6523 19.4233 54.0142 19.2768C54.3762 19.1304 54.7009 18.9051 54.9648 18.6173C55.2287 18.3295 55.4251 17.9865 55.5397 17.6132C55.6543 17.2399 55.6842 16.8458 55.6273 16.4595C55.6801 16.0747 55.6471 15.6831 55.5308 15.3126C55.4144 14.942 55.2175 14.6018 54.9543 14.3163C54.6909 14.0308 54.3678 13.8071 54.0079 13.6611C53.6479 13.5152 53.2602 13.4507 52.8725 13.4722H51.2975V19.4639Z" fill="white"/>
<path d="M58.3539 17.4907C58.3142 17.0764 58.3615 16.6584 58.4928 16.2634C58.6246 15.8686 58.837 15.5055 59.117 15.1975C59.397 14.8895 59.7376 14.6435 60.1185 14.4751C60.4989 14.3067 60.9107 14.2197 61.3266 14.2197C61.7431 14.2197 62.1544 14.3067 62.5353 14.4751C62.9156 14.6435 63.2569 14.8895 63.5369 15.1975C63.8169 15.5055 64.0292 15.8686 64.1604 16.2634C64.2923 16.6584 64.3395 17.0764 64.2999 17.4907C64.3401 17.9053 64.2934 18.3239 64.1622 18.7194C64.0315 19.115 63.8192 19.4787 63.5392 19.7873C63.2592 20.0959 62.9174 20.3425 62.5365 20.5112C62.1555 20.68 61.7437 20.7672 61.3266 20.7672C60.9101 20.7672 60.4983 20.68 60.1174 20.5112C59.7359 20.3425 59.3946 20.0959 59.1146 19.7873C58.8346 19.4787 58.6223 19.115 58.4916 18.7194C58.3604 18.3239 58.3135 17.9053 58.3539 17.4907ZM63.02 17.4907C63.02 16.1241 62.4064 15.325 61.329 15.325C60.2475 15.325 59.639 16.1241 59.639 17.4907C59.639 18.8681 60.2475 19.6611 61.329 19.6611C62.4064 19.6611 63.02 18.8626 63.02 17.4907Z" fill="white"/>
<path d="M72.2045 20.6449H70.9136L69.611 16.0019H69.5124L68.2151 20.6449H66.937L65.1992 14.3408H66.461L67.5903 19.1512H67.6831L68.9792 14.3408H70.1727L71.4689 19.1512H71.5675L72.691 14.3408H73.9352L72.2045 20.6449Z" fill="white"/>
<path d="M75.3945 14.3398H76.5921V15.3413H76.6855C76.843 14.9816 77.109 14.6801 77.4461 14.4787C77.7833 14.2774 78.1747 14.1863 78.5667 14.2181C78.873 14.195 79.181 14.2413 79.4674 14.3534C79.7538 14.4656 80.0116 14.6407 80.221 14.8659C80.4304 15.0911 80.5868 15.3605 80.6784 15.6542C80.7694 15.948 80.7933 16.2585 80.7484 16.5628V20.6438H79.5041V16.8753C79.5041 15.8622 79.0643 15.3584 78.1438 15.3584C77.9355 15.3486 77.7279 15.3841 77.5348 15.4623C77.3411 15.5404 77.1673 15.6594 77.0244 15.8112C76.8815 15.9629 76.773 16.1438 76.7065 16.3413C76.6394 16.539 76.6166 16.7486 76.6388 16.9559V20.6439H75.3945V14.3398Z" fill="white"/>
<path d="M82.7305 11.8799H83.9747V20.6449H82.7305V11.8799Z" fill="white"/>
<path d="M85.7053 17.4908C85.6663 17.0764 85.7135 16.6584 85.8448 16.2636C85.976 15.8686 86.1889 15.5055 86.4689 15.1975C86.7489 14.8896 87.0896 14.6435 87.4705 14.4751C87.8508 14.3067 88.2627 14.2197 88.6792 14.2197C89.0951 14.2197 89.5069 14.3067 89.8873 14.4751C90.2682 14.6435 90.6094 14.8896 90.8894 15.1975C91.1688 15.5055 91.3818 15.8686 91.513 16.2636C91.6443 16.6584 91.6921 17.0764 91.6524 17.4908C91.6927 17.9055 91.6454 18.3241 91.5148 18.7196C91.3835 19.1151 91.1712 19.4789 90.8912 19.7875C90.6112 20.096 90.2699 20.3426 89.8884 20.5113C89.5075 20.6801 89.0957 20.7672 88.6792 20.7672C88.2621 20.7672 87.8503 20.6801 87.4693 20.5113C87.0884 20.3426 86.7466 20.096 86.4666 19.7875C86.1866 19.4789 85.9743 19.1151 85.843 18.7196C85.7123 18.3241 85.6651 17.9055 85.7053 17.4908ZM90.372 17.4908C90.372 16.1243 89.7578 15.3251 88.6803 15.3251C87.5994 15.3251 86.991 16.1243 86.991 17.4908C86.991 18.8683 87.5994 19.6612 88.6803 19.6612C89.7578 19.6612 90.372 18.8627 90.372 17.4908Z" fill="white"/>
<path d="M92.9609 18.8627C92.9609 17.7279 93.8062 17.0737 95.3059 16.9808L97.0134 16.8823V16.3382C97.0134 15.6723 96.5729 15.2964 95.723 15.2964C95.0283 15.2964 94.547 15.5514 94.4088 15.9971H93.2042C93.3314 14.9142 94.3504 14.2197 95.7802 14.2197C97.361 14.2197 98.2524 15.0065 98.2524 16.3382V20.6455H97.0542V19.7596H96.9562C96.7561 20.0773 96.4755 20.3364 96.143 20.5103C95.8105 20.6842 95.4372 20.7667 95.0627 20.7494C94.7979 20.7769 94.5301 20.7487 94.2775 20.6665C94.0244 20.5843 93.791 20.45 93.5933 20.2722C93.3949 20.0945 93.2369 19.8772 93.1278 19.6345C93.0187 19.3917 92.9621 19.1288 92.9609 18.8627ZM97.0134 18.324V17.797L95.4739 17.8954C94.6059 17.9535 94.2122 18.2488 94.2122 18.8046C94.2122 19.372 94.7045 19.7021 95.3812 19.7021C95.5795 19.7222 95.7796 19.7022 95.9704 19.6433C96.1605 19.5843 96.3373 19.4877 96.4895 19.3591C96.6418 19.2306 96.7666 19.0727 96.8564 18.8948C96.9469 18.717 96.9999 18.5229 97.0134 18.324Z" fill="white"/>
<path d="M99.8867 17.4901C99.8867 15.4982 100.911 14.2363 102.504 14.2363C102.898 14.2181 103.289 14.3125 103.631 14.5083C103.974 14.7042 104.253 14.9934 104.437 15.3423H104.53V11.8799H105.774V20.6449H104.582V19.649H104.483C104.285 19.9954 103.996 20.281 103.647 20.4749C103.298 20.6688 102.903 20.7635 102.504 20.7488C100.9 20.7489 99.8867 19.487 99.8867 17.4901ZM101.172 17.4901C101.172 18.8273 101.802 19.6319 102.856 19.6319C103.905 19.6319 104.553 18.8157 104.553 17.4956C104.553 16.1818 103.898 15.3539 102.856 15.3539C101.809 15.3539 101.172 16.164 101.172 17.4901Z" fill="white"/>
<path d="M111.014 17.3383C110.974 16.924 111.022 16.506 111.153 16.1111C111.285 15.7162 111.497 15.3532 111.777 15.0452C112.057 14.7372 112.398 14.4911 112.779 14.3227C113.159 14.1544 113.571 14.0674 113.987 14.0674C114.403 14.0674 114.815 14.1544 115.195 14.3227C115.576 14.4911 115.917 14.7372 116.197 15.0452C116.477 15.3532 116.689 15.7162 116.821 16.1111C116.952 16.506 117 16.924 116.96 17.3383C117 17.753 116.954 18.1716 116.822 18.5671C116.692 18.9627 116.479 19.3264 116.199 19.6349C115.919 19.9435 115.577 20.1902 115.197 20.3589C114.816 20.5276 114.404 20.6148 113.987 20.6148C113.57 20.6148 113.158 20.5276 112.777 20.3589C112.397 20.1902 112.055 19.9435 111.775 19.6349C111.495 19.3264 111.282 18.9627 111.152 18.5671C111.02 18.1716 110.974 17.753 111.014 17.3383ZM115.68 17.3383C115.68 15.9718 115.066 15.1727 113.989 15.1727C112.908 15.1727 112.299 15.9718 112.299 17.3383C112.299 18.7157 112.908 19.5087 113.989 19.5087C115.066 19.5087 115.68 18.7102 115.68 17.3383Z" fill="white"/>
<path d="M118.539 14.3398H119.737V15.3413H119.83C119.987 14.9816 120.253 14.6801 120.591 14.4787C120.928 14.2774 121.319 14.1863 121.711 14.2181C122.017 14.195 122.325 14.2413 122.612 14.3534C122.898 14.4656 123.156 14.6407 123.366 14.8659C123.575 15.0911 123.731 15.3605 123.823 15.6542C123.914 15.948 123.938 16.2585 123.893 16.5628V20.6438H122.649V16.8753C122.649 15.8622 122.209 15.3584 121.288 15.3584C121.08 15.3486 120.872 15.3841 120.679 15.4623C120.486 15.5404 120.312 15.6594 120.169 15.8112C120.026 15.9629 119.917 16.1438 119.851 16.3413C119.784 16.539 119.761 16.7486 119.783 16.9559V20.6439H118.539V14.3398Z" fill="white"/>
</g>
</g>
<defs>
<clipPath id="clip0_5736_49250">
<rect width="168" height="56" fill="white" transform="translate(0 0.0673828)"/>
</clipPath>
</defs>
</svg>
