<svg width="257" height="67" viewBox="0 0 257 67" fill="none" xmlns="http://www.w3.org/2000/svg">
<rect x="0.4375" y="0.324951" width="255.845" height="66.4659" rx="11.7961" fill="black"/>
<path d="M44.7863 34.1477L37.3548 26.9344C37.2607 27.1278 37.2142 27.341 37.2191 27.556V40.7417C37.2191 40.9941 37.271 41.2041 37.3595 41.3716L44.7863 34.1477ZM45.2168 33.7301L47.5053 31.5042L38.7785 26.6831C38.5699 26.558 38.3328 26.4882 38.0896 26.4802C37.9903 26.48 37.8917 26.4972 37.7983 26.5309L45.2168 33.7301ZM50.7327 33.2877L48.0573 31.8097L45.6509 34.1512L48.0573 36.4868L50.7327 35.0076C51.5891 34.5358 51.5891 33.7608 50.7327 33.2877ZM45.2216 34.57L37.8195 41.7715C38.0838 41.8588 38.4152 41.8175 38.7785 41.6181L47.51 36.79L45.2216 34.57Z" fill="white"/>
<path d="M73.4589 41.8764C72.468 41.8764 71.5373 41.703 70.6667 41.3561C69.8033 41.0023 69.0424 40.4856 68.3842 39.8061C67.733 39.1267 67.2235 38.2951 66.8554 37.3113C66.4874 36.3204 66.3034 35.188 66.3034 33.914C66.3034 32.2437 66.6148 30.8175 67.2376 29.6356C67.8604 28.4465 68.7133 27.537 69.7962 26.9071C70.8791 26.2702 72.1 25.9517 73.4589 25.9517C75.3415 25.9517 76.8314 26.3905 77.9284 27.2681C79.0325 28.1386 79.7792 29.3631 80.1685 30.9414L77.5568 31.3554C77.2666 30.4495 76.7924 29.7276 76.1342 29.1897C75.476 28.6447 74.6373 28.3722 73.6181 28.3722C72.5919 28.3581 71.739 28.581 71.0595 29.041C70.3801 29.5011 69.867 30.1487 69.5202 30.9839C69.1804 31.819 69.0106 32.7957 69.0106 33.914C69.0106 35.0323 69.1804 36.0054 69.5202 36.8335C69.8599 37.6545 70.3695 38.2951 71.0489 38.7551C71.7355 39.2152 72.5919 39.4523 73.6181 39.4664C74.3896 39.4735 75.0655 39.3355 75.6459 39.0524C76.2262 38.7622 76.7004 38.3269 77.0685 37.7466C77.4365 37.1591 77.6842 36.4266 77.8116 35.5489H75.115V33.5424H80.5294C80.5436 33.6557 80.5542 33.822 80.5613 34.0414C80.5684 34.2608 80.5719 34.3917 80.5719 34.4342C80.5719 35.8781 80.2853 37.1626 79.712 38.288C79.1457 39.4063 78.3318 40.2839 77.2702 40.9209C76.2085 41.5579 74.9381 41.8764 73.4589 41.8764ZM87.5559 41.8764C86.4093 41.8764 85.4078 41.618 84.5514 41.1014C83.695 40.5847 83.0297 39.8734 82.5555 38.9674C82.0884 38.0544 81.8548 37.0069 81.8548 35.825C81.8548 34.6218 82.0955 33.5672 82.5767 32.6613C83.058 31.7553 83.7269 31.0476 84.5833 30.538C85.4397 30.0284 86.4305 29.7736 87.5559 29.7736C88.7095 29.7736 89.7146 30.0319 90.5709 30.5486C91.4273 31.0653 92.0926 31.7801 92.5668 32.6931C93.041 33.5991 93.2781 34.643 93.2781 35.825C93.2781 37.014 93.0375 38.065 92.5562 38.9781C92.082 39.884 91.4167 40.5953 90.5603 41.112C89.7039 41.6216 88.7024 41.8764 87.5559 41.8764ZM87.5559 39.477C88.5751 39.477 89.3324 39.1373 89.8278 38.4579C90.3232 37.7784 90.5709 36.9008 90.5709 35.825C90.5709 34.7138 90.3197 33.8291 89.8172 33.1709C89.3147 32.5056 88.5609 32.1729 87.5559 32.1729C86.8693 32.1729 86.3031 32.3286 85.8572 32.64C85.4184 32.9444 85.0929 33.3726 84.8805 33.9246C84.6682 34.4696 84.562 35.1031 84.562 35.825C84.562 36.9362 84.8133 37.8244 85.3158 38.4897C85.8254 39.1479 86.5721 39.477 87.5559 39.477ZM100.469 41.8764C99.3224 41.8764 98.3209 41.618 97.4645 41.1014C96.6081 40.5847 95.9428 39.8734 95.4686 38.9674C95.0015 38.0544 94.7679 37.0069 94.7679 35.825C94.7679 34.6218 95.0086 33.5672 95.4899 32.6613C95.9711 31.7553 96.64 31.0476 97.4964 30.538C98.3528 30.0284 99.3436 29.7736 100.469 29.7736C101.623 29.7736 102.628 30.0319 103.484 30.5486C104.34 31.0653 105.006 31.7801 105.48 32.6931C105.954 33.5991 106.191 34.643 106.191 35.825C106.191 37.014 105.951 38.065 105.469 38.9781C104.995 39.884 104.33 40.5953 103.473 41.112C102.617 41.6216 101.616 41.8764 100.469 41.8764ZM100.469 39.477C101.488 39.477 102.245 39.1373 102.741 38.4579C103.236 37.7784 103.484 36.9008 103.484 35.825C103.484 34.7138 103.233 33.8291 102.73 33.1709C102.228 32.5056 101.474 32.1729 100.469 32.1729C99.7824 32.1729 99.2162 32.3286 98.7703 32.64C98.3315 32.9444 98.006 33.3726 97.7936 33.9246C97.5813 34.4696 97.4751 35.1031 97.4751 35.825C97.4751 36.9362 97.7264 37.8244 98.2289 38.4897C98.7385 39.1479 99.4852 39.477 100.469 39.477ZM113.138 46.9723C112.501 46.9723 111.889 46.8732 111.301 46.675C110.721 46.4768 110.197 46.1902 109.73 45.8151C109.263 45.447 108.881 45.0011 108.583 44.4774L110.94 43.3096C111.16 43.7272 111.468 44.035 111.864 44.2332C112.267 44.4385 112.696 44.5411 113.149 44.5411C113.679 44.5411 114.154 44.4455 114.571 44.2544C114.989 44.0704 115.311 43.7944 115.537 43.4264C115.771 43.0654 115.88 42.6124 115.866 42.0675V38.8082H116.185V30.0921H118.425V42.1099C118.425 42.4001 118.411 42.6761 118.382 42.938C118.361 43.207 118.322 43.4688 118.266 43.7236C118.096 44.4668 117.77 45.0755 117.289 45.5497C116.808 46.0309 116.21 46.3884 115.495 46.6219C114.787 46.8555 114.001 46.9723 113.138 46.9723ZM112.915 41.8764C111.86 41.8764 110.94 41.6109 110.155 41.0801C109.369 40.5493 108.76 39.8274 108.329 38.9144C107.897 38.0013 107.681 36.9715 107.681 35.825C107.681 34.6642 107.897 33.6309 108.329 32.725C108.767 31.8119 109.387 31.0936 110.187 30.5698C110.986 30.039 111.928 29.7736 113.011 29.7736C114.1 29.7736 115.013 30.039 115.75 30.5698C116.493 31.0936 117.055 31.8119 117.438 32.725C117.82 33.638 118.011 34.6713 118.011 35.825C118.011 36.9645 117.82 37.9943 117.438 38.9144C117.055 39.8274 116.486 40.5493 115.728 41.0801C114.971 41.6109 114.033 41.8764 112.915 41.8764ZM113.308 39.5832C113.994 39.5832 114.546 39.4275 114.964 39.1161C115.389 38.7976 115.696 38.3552 115.888 37.789C116.086 37.2228 116.185 36.5681 116.185 35.825C116.185 35.0747 116.086 34.4201 115.888 33.8609C115.696 33.2947 115.396 32.8559 114.985 32.5445C114.575 32.226 114.044 32.0667 113.393 32.0667C112.706 32.0667 112.14 32.2366 111.694 32.5763C111.248 32.909 110.919 33.362 110.707 33.9352C110.494 34.5015 110.388 35.1314 110.388 35.825C110.388 36.5257 110.491 37.1626 110.696 37.7359C110.908 38.3021 111.23 38.7516 111.662 39.0842C112.094 39.4169 112.642 39.5832 113.308 39.5832ZM121.402 41.5579V25.9517H123.961V41.5579H121.402ZM132.141 41.8764C130.98 41.8764 129.961 41.6251 129.083 41.1226C128.206 40.6201 127.519 39.9229 127.024 39.0311C126.536 38.1394 126.291 37.1131 126.291 35.9524C126.291 34.6996 126.532 33.6132 127.013 32.6931C127.495 31.7659 128.163 31.0476 129.02 30.538C129.876 30.0284 130.867 29.7736 131.992 29.7736C133.181 29.7736 134.19 30.0532 135.018 30.6123C135.853 31.1643 136.473 31.9464 136.876 32.9585C137.279 33.9706 137.432 35.1632 137.332 36.5363H134.795V35.602C134.788 34.3564 134.569 33.4469 134.137 32.8736C133.705 32.3003 133.026 32.0137 132.099 32.0137C131.051 32.0137 130.273 32.3392 129.763 32.9904C129.253 33.6344 128.999 34.5793 128.999 35.825C128.999 36.9857 129.253 37.8846 129.763 38.5216C130.273 39.1585 131.016 39.477 131.992 39.477C132.622 39.477 133.164 39.339 133.617 39.063C134.077 38.7799 134.431 38.3729 134.678 37.8421L137.205 38.6065C136.766 39.6398 136.087 40.4431 135.167 41.0164C134.254 41.5897 133.245 41.8764 132.141 41.8764ZM128.192 36.5363V34.6041H136.08V36.5363H128.192ZM143.527 41.5579V26.2702H149.844C149.993 26.2702 150.184 26.2772 150.417 26.2914C150.651 26.2985 150.867 26.3197 151.065 26.3551C151.95 26.4896 152.679 26.7833 153.252 27.2362C153.832 27.6892 154.261 28.2625 154.537 28.9561C154.82 29.6426 154.961 30.407 154.961 31.2493C154.961 32.0844 154.82 32.8488 154.537 33.5424C154.254 34.229 153.822 34.7987 153.241 35.2517C152.668 35.7047 151.943 35.9984 151.065 36.1328C150.867 36.1612 150.647 36.1824 150.407 36.1965C150.173 36.2107 149.986 36.2178 149.844 36.2178H146.086V41.5579H143.527ZM146.086 33.8291H149.738C149.88 33.8291 150.039 33.822 150.216 33.8078C150.393 33.7937 150.555 33.7654 150.704 33.7229C151.129 33.6167 151.461 33.4292 151.702 33.1602C151.95 32.8913 152.123 32.5869 152.222 32.2472C152.328 31.9075 152.381 31.5748 152.381 31.2493C152.381 30.9237 152.328 30.5911 152.222 30.2513C152.123 29.9045 151.95 29.5966 151.702 29.3277C151.461 29.0587 151.129 28.8712 150.704 28.765C150.555 28.7226 150.393 28.6978 150.216 28.6907C150.039 28.6766 149.88 28.6695 149.738 28.6695H146.086V33.8291ZM157.088 41.5579V25.9517H159.647V41.5579H157.088ZM165.821 41.8764C164.993 41.8764 164.292 41.7206 163.719 41.4092C163.145 41.0907 162.71 40.6696 162.413 40.1459C162.123 39.6221 161.978 39.0453 161.978 38.4154C161.978 37.8633 162.07 37.3679 162.254 36.9291C162.438 36.4832 162.721 36.101 163.103 35.7825C163.485 35.4569 163.981 35.1915 164.589 34.9863C165.049 34.8376 165.587 34.7032 166.203 34.5828C166.826 34.4625 167.498 34.3528 168.22 34.2537C168.949 34.1476 169.71 34.0343 170.503 33.914L169.59 34.4342C169.597 33.6415 169.42 33.0576 169.059 32.6825C168.698 32.3074 168.089 32.1198 167.233 32.1198C166.716 32.1198 166.217 32.2401 165.736 32.4808C165.255 32.7214 164.918 33.1355 164.727 33.7229L162.392 32.9904C162.675 32.0207 163.213 31.2422 164.005 30.6548C164.805 30.0673 165.881 29.7736 167.233 29.7736C168.252 29.7736 169.147 29.9399 169.919 30.2726C170.697 30.6052 171.274 31.1502 171.649 31.9075C171.854 32.3109 171.978 32.725 172.021 33.1496C172.063 33.5672 172.084 34.0237 172.084 34.5191V41.5579H169.844V39.0736L170.216 39.477C169.699 40.3051 169.094 40.9138 168.401 41.3031C167.714 41.6853 166.854 41.8764 165.821 41.8764ZM166.33 39.838C166.911 39.838 167.406 39.7354 167.817 39.5301C168.227 39.3249 168.553 39.0736 168.793 38.7763C169.041 38.4791 169.207 38.1995 169.292 37.9376C169.427 37.6121 169.501 37.2405 169.515 36.8229C169.537 36.3983 169.547 36.055 169.547 35.7931L170.333 36.0267C169.561 36.147 168.9 36.2532 168.347 36.3452C167.795 36.4372 167.321 36.5257 166.925 36.6106C166.529 36.6884 166.178 36.7769 165.874 36.876C165.577 36.9822 165.325 37.106 165.12 37.2476C164.915 37.3891 164.756 37.5519 164.642 37.7359C164.536 37.92 164.483 38.1358 164.483 38.3835C164.483 38.6666 164.554 38.9179 164.695 39.1373C164.837 39.3496 165.042 39.5195 165.311 39.6469C165.587 39.7743 165.927 39.838 166.33 39.838ZM175.501 46.6538L177.709 40.5918L177.752 42.3753L172.751 30.0921H175.416L178.962 39.1798H178.282L181.733 30.0921H184.291L177.9 46.6538H175.501Z" fill="white"/>
<path opacity="0.5" d="M199.556 35.8674V33.8609H211.637L208.771 30.9945L209.992 29.7736L215.088 34.8695L209.992 39.9654L208.771 38.7445L211.648 35.8674H199.556Z" fill="white"/>
</svg>
