<svg width="146" height="91" viewBox="0 0 146 91" fill="none" xmlns="http://www.w3.org/2000/svg">
<g filter="url(#filter0_d_5862_61494)">
<path d="M136.34 43.79H135.32L136.33 6.12003H35.59V5.20004L32 5.04004L31.99 6.12003H5L6.73001 43.79H5.34003L5.25 48.79L6.96002 48.77L8.33002 78.79L31.35 79.03L31.34 80.7L36 81.04L35.99 79.08L134.34 80.12L135.21 47.63L136.5 47.62L136.34 43.79Z" fill="white" stroke="white" stroke-width="6" stroke-linecap="round" stroke-linejoin="round"/>
<path d="M5 6.12012H136.33L134.34 80.1201L8.33002 78.7901L5 6.12012Z" fill="#7D965E"/>
<path d="M103.922 46.2501L136.332 6.12012L134.342 80.1201L103.922 46.2501Z" fill="#8BA06D"/>
<path d="M5.25 6.12012L40.92 46.5001L8.58002 78.7901L5.25 6.12012Z" fill="#8BA06D"/>
<path d="M31.9998 5.04004L31.3398 80.7L35.9998 81.04L35.5898 5.20004L31.9998 5.04004Z" fill="#474744"/>
<path d="M32.6133 45.89C33.7033 37.01 40.9333 23.03 49.3933 19.22C53.7033 17.16 62.4933 18.01 63.4133 24.31C63.9933 29.68 53.6233 37.0799 49.6433 39.2999C44.5633 42.1699 38.2033 44.43 32.7033 46.13C32.2633 44.16 50.2833 35.89 53.5533 33.14C57.2033 29.98 61.0333 23.58 52.0133 23.6C45.8433 23.41 43.8033 28.11 41.2033 32.75C39.6733 35.15 35.3033 46 32.9333 46.04" fill="#474744"/>
<path d="M33.3717 45.99C34.1217 37.08 29.9017 21.91 22.4017 16.45C18.6117 13.55 9.82166 12.58 7.64166 18.57C5.97166 23.7 14.6117 33.07 18.0617 36.05C22.4517 39.9 28.2116 43.41 33.2516 46.19C34.0816 44.35 18.1316 32.57 15.5016 29.21C12.5716 25.37 10.1317 18.32 18.9517 20.19C25.0317 21.26 26.0616 26.29 27.6616 31.36C28.6716 34.03 30.7317 45.53 33.0417 46.06" fill="#474744"/>
<path d="M77.75 36.83L109.42 17.75L126.09 37.67L93.42 56.17L77.75 36.83Z" fill="#738954"/>
<path d="M77.75 36.83L107.92 14.25L124.59 34.17L93.42 56.17L77.75 36.83Z" fill="white"/>
<path d="M5.34003 43.79H136.34L136.5 47.62L5.25 48.79L5.34003 43.79Z" fill="#474744"/>
</g>
<path d="M99.3786 35.6897C99.3586 35.5697 99.3386 35.4797 99.3286 35.4097C99.3186 35.3397 99.3086 35.2897 99.3086 35.2697C99.2886 35.0997 99.3086 34.9897 99.3486 34.9597C99.3986 34.9197 99.4786 34.9197 99.6086 34.9597C99.6586 34.9697 99.7286 34.9897 99.8086 35.0097C99.8886 35.0397 99.9886 35.0697 100.099 35.1197C100.419 35.2397 100.759 35.3797 101.109 35.5397C101.459 35.6997 101.839 35.8897 102.229 36.0897C102.589 36.2797 102.939 36.4697 103.269 36.6697C103.599 36.8697 103.939 37.0697 104.259 37.2797L105.109 37.7897C105.109 37.7897 105.179 37.8297 105.209 37.8397C105.239 37.8497 105.269 37.8597 105.299 37.8697C105.329 37.8697 105.359 37.8697 105.399 37.8697C105.439 37.8697 105.479 37.8597 105.539 37.8497C105.579 37.8397 105.609 37.8297 105.629 37.8297C105.649 37.8297 105.669 37.8297 105.689 37.8297C105.709 37.8297 105.719 37.8397 105.729 37.8497C105.739 37.8597 105.759 37.8797 105.769 37.8997C105.829 37.9697 105.829 38.0297 105.799 38.0797C105.759 38.1397 105.709 38.1997 105.619 38.2597L104.789 38.9397C104.709 38.9997 104.649 39.0397 104.589 39.0597C104.529 39.0797 104.479 39.0597 104.419 38.9797C104.369 38.9097 104.379 38.8097 104.449 38.6697C104.529 38.5297 104.529 38.4197 104.469 38.3397C104.449 38.3097 104.389 38.2597 104.289 38.1897C104.199 38.1197 104.069 38.0397 103.899 37.9297C103.819 37.8797 103.719 37.8197 103.609 37.7497C103.499 37.6897 103.369 37.6097 103.229 37.5397L103.079 37.4497L100.889 39.2297C100.889 39.2297 100.969 39.4697 101.149 39.9197C101.269 40.2397 101.359 40.4397 101.439 40.5397C101.559 40.6897 101.709 40.7597 101.889 40.7397C102.069 40.6997 102.169 40.7097 102.219 40.7597C102.269 40.8197 102.279 40.8797 102.259 40.9397C102.239 40.9997 102.179 41.0597 102.099 41.1197C102.059 41.1497 102.029 41.1697 101.999 41.1897C101.969 41.2097 101.949 41.2297 101.939 41.2397L101.549 41.5597C101.549 41.5597 101.499 41.6097 101.479 41.6297C101.459 41.6497 101.439 41.6597 101.419 41.6797C101.329 41.7597 101.249 41.7997 101.169 41.8297C101.099 41.8497 101.039 41.8297 100.979 41.7697C100.929 41.7097 100.919 41.6197 100.959 41.5197C101.009 41.3797 101.009 41.2397 100.959 41.0997L100.639 40.2097L99.3686 35.6997L99.3786 35.6897ZM102.689 37.1997L102.479 37.0897L99.9086 35.8197L100.719 38.7997L102.689 37.1997Z" fill="#BF5252"/>
<path d="M102.898 33.1997C102.838 33.1197 102.768 33.0797 102.698 33.0797C102.658 33.0797 102.628 33.0797 102.588 33.0797C102.548 33.0797 102.508 33.0997 102.458 33.1197C102.358 33.1597 102.298 33.1497 102.258 33.0997C102.248 33.0897 102.238 33.0697 102.238 33.0397C102.238 33.0197 102.238 32.9897 102.238 32.9697C102.238 32.9497 102.238 32.9197 102.258 32.8997C102.278 32.8797 102.268 32.8597 102.278 32.8497C102.308 32.7797 102.338 32.7197 102.368 32.6597C102.398 32.5997 102.428 32.5397 102.458 32.4897C102.548 32.3297 102.628 32.2197 102.678 32.1797C102.748 32.1297 102.808 32.1097 102.858 32.1497C102.908 32.1897 102.968 32.2497 103.048 32.3397L106.298 36.3397C106.298 36.3397 106.368 36.4297 106.408 36.4797C106.448 36.5297 106.498 36.5797 106.538 36.6197C106.588 36.6597 106.628 36.6897 106.678 36.7197C106.728 36.7397 106.778 36.7497 106.828 36.7397L106.938 36.7197C107.008 36.6997 107.058 36.6997 107.058 36.6997C107.098 36.6997 107.138 36.7297 107.168 36.7697C107.218 36.8297 107.238 36.8797 107.238 36.9197C107.238 36.9597 107.188 36.9997 107.108 37.0697L106.328 37.6997C106.258 37.7497 106.208 37.7797 106.168 37.7897C106.128 37.7897 106.078 37.7597 106.028 37.6997C105.988 37.6497 105.988 37.5697 106.028 37.4697L106.098 37.3097C106.098 37.3097 106.098 37.1997 106.058 37.1297C106.028 37.0597 105.988 36.9997 105.938 36.9397C105.898 36.8997 105.858 36.8597 105.838 36.8297C105.818 36.7997 105.798 36.7797 105.788 36.7597L102.908 33.2197L102.898 33.1997Z" fill="#BF5252"/>
<path d="M104.479 32.3501C104.389 32.2401 104.359 32.1201 104.369 32.0001C104.389 31.8801 104.449 31.7701 104.559 31.6801C104.669 31.5901 104.779 31.5601 104.899 31.5601C105.019 31.5601 105.119 31.6201 105.209 31.7301C105.309 31.8501 105.349 31.9701 105.329 32.0901C105.319 32.2101 105.249 32.3301 105.119 32.4301C105.019 32.5101 104.899 32.5501 104.779 32.5301C104.659 32.5101 104.559 32.4501 104.469 32.3401L104.479 32.3501ZM107.899 36.4001C107.829 36.4601 107.769 36.4901 107.709 36.5101C107.649 36.5301 107.599 36.5101 107.549 36.4401C107.489 36.3701 107.499 36.2801 107.569 36.1901C107.639 36.0901 107.659 36.0001 107.639 35.9101C107.619 35.8201 107.549 35.7101 107.439 35.5701L106.289 34.1501L106.189 34.0201C106.139 33.9501 106.089 33.9 106.039 33.86C105.999 33.82 105.949 33.7901 105.909 33.7801C105.859 33.7601 105.819 33.7601 105.759 33.7801C105.709 33.7901 105.639 33.8201 105.569 33.8501C105.519 33.8701 105.469 33.8901 105.429 33.9001C105.389 33.9001 105.349 33.9001 105.319 33.8501C105.299 33.8301 105.289 33.8101 105.289 33.7901C105.289 33.7701 105.289 33.7501 105.289 33.7201C105.289 33.6901 105.299 33.6601 105.319 33.6201C105.339 33.5801 105.359 33.5301 105.399 33.4701C105.429 33.4001 105.449 33.3501 105.469 33.3101C105.489 33.2701 105.509 33.2301 105.519 33.2101C105.529 33.1901 105.549 33.1501 105.559 33.1201C105.579 33.0801 105.589 33.0501 105.609 33.0101C105.629 32.9701 105.649 32.9401 105.659 32.9101C105.679 32.8801 105.689 32.8601 105.709 32.8501C105.739 32.8301 105.769 32.81 105.789 32.8C105.809 32.79 105.839 32.8 105.869 32.8C105.899 32.8 105.939 32.83 105.979 32.86C106.019 32.89 106.079 32.9401 106.149 33.0001C106.199 33.0501 106.259 33.1001 106.319 33.1701C106.379 33.2301 106.429 33.3 106.479 33.36C106.529 33.42 106.579 33.48 106.629 33.55C106.679 33.61 106.729 33.6701 106.779 33.7401L107.869 35.0901C107.869 35.0901 107.919 35.1701 107.949 35.2001C107.969 35.2301 107.999 35.2601 108.019 35.2801C108.109 35.3901 108.189 35.4601 108.259 35.4901C108.279 35.5101 108.309 35.5101 108.349 35.4901C108.389 35.4701 108.449 35.4601 108.499 35.4401C108.549 35.4201 108.609 35.4101 108.659 35.4101C108.709 35.4101 108.739 35.4301 108.769 35.4801C108.819 35.5401 108.829 35.5901 108.809 35.6401C108.789 35.6901 108.739 35.75 108.669 35.8L107.909 36.4201L107.899 36.4001Z" fill="#BF5252"/>
<path d="M108.388 31.1901C108.238 31.3101 108.138 31.4602 108.088 31.6402C108.038 31.8202 108.028 32.0101 108.048 32.2101C108.068 32.4101 108.138 32.6101 108.228 32.8201C108.318 33.0301 108.448 33.2201 108.588 33.4001C108.848 33.7201 109.168 33.9201 109.538 34.0101C109.918 34.0901 110.268 34.0101 110.588 33.7401C110.748 33.6101 110.878 33.4501 110.968 33.2701C111.068 33.0801 111.118 32.8901 111.118 32.6901C111.118 32.6001 111.118 32.5501 111.118 32.5201C111.128 32.4501 111.158 32.4001 111.198 32.3601C111.278 32.3001 111.348 32.3102 111.408 32.3902C111.428 32.4202 111.448 32.4601 111.458 32.5001C111.468 32.5501 111.478 32.6001 111.488 32.6601C111.488 32.7201 111.488 32.7801 111.488 32.8401C111.488 32.9001 111.488 32.9601 111.468 33.0101C111.398 33.5001 111.168 33.9001 110.798 34.2001C110.338 34.5701 109.858 34.7201 109.348 34.6402C109.088 34.5901 108.848 34.5001 108.628 34.3601C108.408 34.2201 108.198 34.0401 108.008 33.8101C107.618 33.3301 107.438 32.8001 107.478 32.2101C107.508 31.6201 107.758 31.1301 108.238 30.7401C108.378 30.6301 108.518 30.5401 108.678 30.4801C108.838 30.4201 108.988 30.3801 109.158 30.3701C109.278 30.3601 109.388 30.3702 109.498 30.3902C109.608 30.4202 109.698 30.4701 109.758 30.5501C109.788 30.5801 109.808 30.6201 109.818 30.6601C109.828 30.7001 109.838 30.7401 109.838 30.7901C109.838 30.8301 109.838 30.8701 109.818 30.9101C109.808 30.9501 109.778 30.9801 109.758 31.0001C109.718 31.0301 109.688 31.0501 109.648 31.0701C109.618 31.0801 109.578 31.0901 109.548 31.0901C109.498 31.0801 109.458 31.0701 109.418 31.0601C109.378 31.0501 109.348 31.0401 109.308 31.0401C109.208 31.0201 109.118 31.0001 109.028 30.9901C108.948 30.9901 108.878 30.9801 108.818 30.9901C108.748 30.9901 108.668 31.0201 108.598 31.0501C108.528 31.0801 108.448 31.1301 108.368 31.1901H108.388Z" fill="#BF5252"/>
<path d="M111.958 31.1599C112.098 31.2699 112.238 31.3599 112.398 31.4099C112.558 31.4699 112.708 31.4899 112.868 31.4899C113.028 31.4899 113.188 31.4599 113.348 31.3999C113.508 31.3399 113.658 31.2499 113.798 31.1399C114.038 30.9399 114.208 30.7099 114.308 30.4399C114.338 30.3099 114.368 30.1799 114.408 30.0399C114.438 29.8999 114.478 29.7699 114.508 29.6399C114.538 29.6099 114.578 29.5999 114.618 29.5999C114.658 29.5999 114.698 29.6199 114.728 29.6599C114.798 29.7399 114.818 29.8799 114.808 30.0799C114.808 30.1599 114.798 30.2299 114.788 30.3099C114.778 30.3899 114.758 30.4599 114.728 30.5299C114.658 30.7599 114.568 30.9599 114.458 31.1399C114.338 31.3199 114.188 31.4799 114.018 31.6299C113.568 31.9999 113.068 32.1599 112.538 32.1199C111.998 32.0799 111.548 31.8399 111.178 31.3899C110.978 31.1399 110.828 30.8699 110.748 30.5899C110.668 30.3099 110.638 30.0099 110.668 29.6999C110.728 29.0699 111.008 28.5499 111.508 28.1499C111.788 27.9299 112.058 27.7999 112.338 27.7699C112.518 27.7499 112.698 27.7699 112.878 27.8199C113.058 27.8799 113.198 27.9699 113.308 28.1099C113.488 28.3299 113.568 28.5999 113.528 28.8999C113.498 29.1499 113.408 29.4099 113.248 29.6899C113.188 29.7999 113.108 29.9199 113.018 30.0399C112.928 30.1599 112.828 30.2799 112.718 30.4199C112.648 30.4999 112.568 30.5899 112.468 30.6999C112.368 30.8099 112.248 30.9399 112.108 31.0799L111.988 31.1999L111.958 31.1599ZM112.738 28.4999C112.668 28.4099 112.588 28.3499 112.508 28.3099C112.428 28.2699 112.338 28.2499 112.258 28.2499C112.178 28.2499 112.078 28.2699 111.988 28.3099C111.898 28.3499 111.808 28.3999 111.718 28.4699C111.338 28.7799 111.148 29.1799 111.158 29.6499C111.178 30.0799 111.348 30.4899 111.678 30.8999C111.908 30.6699 112.098 30.4699 112.258 30.2899C112.418 30.1099 112.538 29.9399 112.638 29.7899C112.978 29.2599 113.008 28.8299 112.738 28.4999Z" fill="#BF5252"/>
<path d="M87.9696 39.8503C87.9696 39.8503 88.0296 39.8902 88.0796 39.8802C88.1296 39.8802 88.1896 39.8502 88.2496 39.8302C88.3196 39.8002 88.3596 39.7802 88.3996 39.7802C88.4296 39.7802 88.4696 39.8002 88.4996 39.8402C88.5296 39.8802 88.5396 39.9202 88.5396 39.9602C88.5396 40.0002 88.4896 40.0502 88.4096 40.1102L87.6596 40.7202C87.5996 40.7702 87.5496 40.8002 87.4996 40.8102C87.4596 40.8202 87.4096 40.8102 87.3696 40.7502C87.3496 40.7302 87.3396 40.7102 87.3396 40.6902C87.3396 40.6702 87.3396 40.6502 87.3396 40.6302C87.3396 40.6102 87.3496 40.5903 87.3696 40.5703C87.3896 40.5503 87.3896 40.5302 87.3996 40.5202C87.4396 40.4702 87.4596 40.4202 87.4796 40.3802C87.4896 40.3402 87.4996 40.3203 87.4996 40.2903C87.4996 40.2503 87.4396 40.1703 87.3296 40.0403L85.0996 37.2903L85.0296 37.2003C84.9596 37.1103 84.8996 37.0602 84.8596 37.0502C84.7896 37.0302 84.7096 37.0702 84.5996 37.1502C84.5596 37.1902 84.5096 37.2302 84.4596 37.2802C84.4096 37.3302 84.3496 37.3903 84.2896 37.4503C84.2296 37.5103 84.1796 37.5802 84.1296 37.6502C84.0796 37.7202 84.0396 37.8002 84.0096 37.8702C83.9996 37.9002 83.9896 37.9402 83.9696 38.0002C83.9596 38.0602 83.9396 38.1302 83.9196 38.2202C83.9196 38.2602 83.9096 38.3102 83.8996 38.3602C83.8996 38.4102 83.8696 38.4502 83.8396 38.4702C83.7696 38.5302 83.6996 38.5202 83.6296 38.4302L83.5496 38.2903L83.3796 38.0103C83.2996 37.8503 83.2796 37.7502 83.3396 37.7102L86.3096 35.2903C86.3696 35.2503 86.4096 35.2402 86.4396 35.2402C86.4496 35.2402 86.4696 35.2402 86.4996 35.2702C86.5296 35.2902 86.5596 35.3102 86.5996 35.3402C86.6396 35.3702 86.6796 35.4002 86.7296 35.4402C86.7796 35.4802 86.8196 35.5203 86.8696 35.5703L86.9996 35.6902C87.0596 35.7602 87.0596 35.8302 86.9996 35.8802C86.9796 35.8902 86.9596 35.9002 86.9296 35.9102C86.8996 35.9102 86.8796 35.9103 86.8496 35.9203C86.8196 35.9203 86.7996 35.9203 86.7796 35.9203C86.7596 35.9203 86.7396 35.9203 86.7296 35.9203C86.5796 35.9203 86.4696 35.9202 86.4196 35.9302C86.3496 35.9302 86.2696 35.9503 86.1996 35.9803C86.1296 36.0103 86.0496 36.0403 85.9796 36.0703C85.9096 36.1103 85.8396 36.1402 85.7796 36.1902C85.7096 36.2302 85.6496 36.2803 85.5996 36.3203C85.4596 36.4403 85.3896 36.5302 85.4096 36.5902C85.4196 36.6602 85.4896 36.7703 85.6096 36.9203L87.9696 39.8203V39.8503Z" fill="#474744"/>
<path d="M91.348 35.64C91.658 36.02 91.788 36.45 91.738 36.91C91.688 37.38 91.468 37.77 91.088 38.08C90.718 38.38 90.308 38.5 89.838 38.45C89.368 38.39 88.988 38.18 88.698 37.82C88.548 37.64 88.448 37.44 88.388 37.23C88.328 37.02 88.308 36.8 88.338 36.56C88.388 36.09 88.598 35.7 88.958 35.41C89.318 35.12 89.738 34.99 90.208 35.03C90.678 35.07 91.058 35.28 91.348 35.64ZM91.288 36.9C91.288 36.74 91.248 36.58 91.188 36.43C91.118 36.27 91.028 36.12 90.918 35.98C90.678 35.69 90.398 35.51 90.088 35.44C89.758 35.37 89.448 35.44 89.158 35.68C88.868 35.91 88.738 36.21 88.748 36.57C88.768 36.89 88.898 37.2 89.138 37.5C89.378 37.79 89.648 37.97 89.948 38.04C90.278 38.12 90.588 38.04 90.878 37.81C91.168 37.58 91.298 37.27 91.298 36.9H91.288Z" fill="#474744"/>
<path d="M91.5803 34.5301C91.5803 34.5301 91.5202 34.4401 91.5102 34.4001C91.5002 34.3501 91.4902 34.3101 91.5002 34.2601C91.5002 34.2101 91.5202 34.1701 91.5402 34.1301C91.5602 34.0901 91.5902 34.0501 91.6302 34.0201C91.7102 33.9501 91.8102 33.9201 91.9102 33.9301C92.0102 33.9401 92.0902 33.9901 92.1702 34.0801C92.2002 34.1201 92.2202 34.1601 92.2302 34.2101C92.2402 34.2601 92.2402 34.3001 92.2302 34.3501C92.2202 34.4001 92.2102 34.4401 92.1902 34.4801C92.1702 34.5201 92.1402 34.5601 92.1002 34.5901C92.0202 34.6601 91.9203 34.6901 91.8303 34.6701C91.7303 34.6601 91.6503 34.6101 91.5803 34.5301ZM92.8602 36.1001C92.8602 36.1001 92.8002 36.0101 92.7902 35.9701C92.7802 35.9301 92.7702 35.8801 92.7802 35.8301C92.7802 35.7801 92.8002 35.7401 92.8202 35.7001C92.8402 35.6601 92.8702 35.6201 92.9102 35.5901C92.9902 35.5201 93.0902 35.4901 93.1902 35.5001C93.2902 35.5001 93.3702 35.5601 93.4502 35.6501C93.4802 35.6901 93.5002 35.7301 93.5102 35.7801C93.5202 35.8301 93.5202 35.8701 93.5102 35.9201C93.5102 35.9701 93.4902 36.0101 93.4702 36.0501C93.4502 36.0901 93.4202 36.1301 93.3802 36.1601C93.3002 36.2301 93.2102 36.2601 93.1102 36.2401C93.0102 36.2301 92.9302 36.1801 92.8602 36.0901V36.1001Z" fill="#474744"/>
<defs>
<filter id="filter0_d_5862_61494" x="0" y="0.0400391" width="145.5" height="90" filterUnits="userSpaceOnUse" color-interpolation-filters="sRGB">
<feFlood flood-opacity="0" result="BackgroundImageFix"/>
<feColorMatrix in="SourceAlpha" type="matrix" values="0 0 0 0 0 0 0 0 0 0 0 0 0 0 0 0 0 0 127 0" result="hardAlpha"/>
<feOffset dx="2" dy="2"/>
<feGaussianBlur stdDeviation="2"/>
<feColorMatrix type="matrix" values="0 0 0 0 0 0 0 0 0 0 0 0 0 0 0 0 0 0 0.2 0"/>
<feBlend mode="normal" in2="BackgroundImageFix" result="effect1_dropShadow_5862_61494"/>
<feBlend mode="normal" in="SourceGraphic" in2="effect1_dropShadow_5862_61494" result="shape"/>
</filter>
</defs>
</svg>
