<svg width="1920" height="162" viewBox="0 0 1920 162" fill="none" xmlns="http://www.w3.org/2000/svg">
<path d="M249.77 67.8461C203.369 49.2896 135.888 69.3587 95.9148 87.6126C35.7489 115.093 -12.6051 161.983 -42.4165 220.884C-38.2844 212.723 -82.9121 179.446 -78.4156 170.556C-30.0272 74.9551 90.167 -9.70056 202.351 14.3355C215.552 17.1681 226.917 23.8647 236.927 32.6376C240.454 36.7078 244.085 41.3692 246.415 45.6732C252.211 56.4193 249.77 67.8461 249.77 67.8461Z" fill="url(#paint0_linear_5862_84914)"/>
<path d="M634.652 50.6162C632.074 58.0622 626.175 66.5945 626.175 66.5945C576.831 53.8202 515.833 62.8475 473.66 78.9908C410.235 103.274 369.588 157.472 312.88 191.918C293.031 203.97 254.172 225.139 232.955 207.476C220.992 197.514 208.321 176.043 200.675 162.656L200.112 161.549C199.486 160.401 198.895 159.26 198.386 158.153C196.811 154.722 195.835 151.498 195.285 148.425C198.578 161.873 211.346 173.251 220.854 170.508C230.521 167.717 252.797 157.094 252.797 157.094C290.247 139.913 330.371 100.428 349.017 84.7041C399.283 42.2972 455.413 13.854 522.289 11.6952C552.485 10.7189 584.469 14.3834 612.836 25.212C621.74 28.6084 627.948 33.0567 633.236 38.3782C633.449 38.5913 633.648 38.8252 633.861 39.0383C635.003 43.2804 635.676 47.6461 634.652 50.6162Z" fill="url(#paint1_linear_5862_84914)"/>
<path d="M1835.7 59.3753C1808.24 63.5349 1781.43 72.5553 1757.4 86.5809C1729.49 102.869 1708.91 127.434 1683.26 146.561C1662.25 162.223 1635.84 173.959 1609.18 167.359C1594.72 163.777 1585.9 155.437 1577.8 145.166L1577.83 145.248L1577.62 144.959C1574.64 141.164 1571.75 137.121 1568.7 132.941C1560.1 121.102 1548.59 108.293 1541.49 94.5908C1541.49 94.5908 1546.71 102.174 1557.45 109.05C1568.19 115.925 1571.09 116.716 1571.09 116.716C1596.22 123.68 1626.58 111.545 1647.26 96.227C1680.09 71.9022 1704.95 41.9602 1743.26 25.2257C1814.93 -6.08446 1898.91 2.40655 1963.16 46.4292C1979.27 57.464 1983.31 85.9004 1999.16 96.7565C1951.2 63.9062 1893.28 50.6712 1835.7 59.3753Z" fill="url(#paint2_linear_5862_84914)"/>
<path d="M1541.48 94.5973C1463.99 156.826 1363.74 196.49 1265.22 169.641C1212.21 155.19 1165.31 117.884 1110.67 109.537C1110.67 109.537 1101.95 107.977 1090.13 108.197C1078.31 108.41 1069.29 110.472 1069.29 110.472C1038.66 116.509 1002.55 133.182 996.939 158.916C996.939 158.916 993.027 171.58 1000.76 184.258C1002.44 187.008 1004.56 189.786 1006.83 192.467C990.785 177.569 978.272 156.29 968.454 140.009L968.111 139.39L967.877 139.053L968.001 139.177C943.738 97.4232 994.264 65.7486 1031.23 59.3408C1037.26 58.2958 1043.18 57.8489 1049.05 57.6976C1049.05 57.6976 1057.7 57.7045 1066.29 58.5639C1074.88 59.4233 1085.18 61.5271 1085.18 61.5271C1124.19 70.6163 1160.67 93.2842 1197.6 108.348C1326.7 161.006 1463.74 95.0167 1553.44 -8.6903e-05C1553.44 -8.6903e-05 1539.61 36.8585 1537.25 58.9901C1534.88 81.1286 1541.48 94.5973 1541.48 94.5973Z" fill="url(#paint3_linear_5862_84914)"/>
<path d="M195.27 148.417C189.034 113.628 243.473 99.9873 249.764 67.8452C249.764 67.8452 252.204 56.4184 246.402 45.6723C244.071 41.3615 240.441 36.7069 236.914 32.6367C238.969 34.438 240.984 36.2944 242.93 38.2539L242.785 37.9925L243.122 38.4601C257.347 52.912 268.664 71.3172 278.496 87.8523L278.654 88.1411L278.784 88.3267L278.702 88.2373C298.963 122.751 274.061 139.706 252.768 157.094C252.768 157.094 230.499 167.716 220.826 170.507C211.338 173.251 198.563 161.865 195.27 148.417Z" fill="url(#paint4_linear_5862_84914)"/>
<path d="M580.509 158.332C557.875 152.027 553.406 144.141 553.406 144.141C565.637 131.69 608.244 95.9519 626.175 66.6012C626.175 66.6012 632.074 58.0689 634.652 50.623C635.676 47.6528 635.002 43.287 633.84 39.0381C634.617 39.8287 635.394 40.6125 636.123 41.4513C641.424 47.5016 645.982 54.5625 651.751 62.6548C657.306 70.4445 663.349 77.2785 666.911 84.3738L667.11 84.6557L667.021 84.6008C671.002 92.6586 671.737 101.067 664.718 111.641C654.521 127.008 641.678 141.57 628.21 155.554C628.21 155.554 603.135 164.629 580.509 158.332Z" fill="url(#paint5_linear_5862_84914)"/>
<path d="M996.939 158.916C1027.6 168.218 1056.65 143.295 1069.29 110.473C1069.29 110.473 1078.32 108.417 1090.13 108.197C1101.95 107.984 1110.67 109.538 1110.67 109.538C1121.1 153.732 1095.42 212.516 1044.59 210.357C1030.17 209.745 1017.7 202.554 1006.83 192.461C1004.55 189.779 1002.43 187.002 1000.76 184.252C993.027 171.58 996.939 158.916 996.939 158.916Z" fill="url(#paint6_linear_5862_84914)"/>
<path d="M1066.29 58.5638C1057.7 57.7044 1049.05 57.6975 1049.05 57.6975C1041.27 55.9581 1033.25 54.8992 1025.18 54.2804C1010.32 53.146 995.275 53.5654 981.209 54.4385C930.146 57.6149 879.853 71.4413 834.201 94.5011C788.5 117.588 754.44 152.872 713.181 182.065C676.453 208.047 629.089 222.54 589.391 194.461C584.764 191.182 552.664 144.876 553.399 144.134C553.399 144.134 557.875 152.027 580.502 158.324C603.135 164.629 628.209 155.54 628.209 155.54C656.006 147.441 682.511 128.616 704.601 110.025C753.725 68.6911 804.376 34.899 866.934 17.422C917.969 3.16945 987.087 -8.33992 1037.11 15.2905C1044.86 18.9482 1052.15 24.311 1059 30.6225C1068.66 39.5192 1077.43 50.3685 1085.17 61.5202C1085.18 61.534 1074.88 59.4232 1066.29 58.5638Z" fill="url(#paint7_linear_5862_84914)"/>
<path d="M1541.47 94.5973C1541.47 94.5973 1534.88 81.1218 1537.25 58.997C1539.61 36.8654 1553.44 0.00683521 1553.44 0.00683521C1558.42 6.9784 1563.41 13.9431 1568.39 20.9147C1579 33.2077 1591.01 46.917 1589.44 50.3341C1579.67 71.4619 1570.45 94.0748 1571.09 116.722C1571.09 116.722 1568.19 115.931 1557.45 109.056C1546.71 102.181 1541.47 94.5973 1541.47 94.5973Z" fill="url(#paint8_linear_5862_84914)"/>
<defs>
<linearGradient id="paint0_linear_5862_84914" x1="-78.7344" y1="115.545" x2="250.281" y2="115.545" gradientUnits="userSpaceOnUse">
<stop stop-color="#652C91"/>
<stop offset="0.578389" stop-color="#B271B7"/>
<stop offset="1" stop-color="#D591C9"/>
</linearGradient>
<linearGradient id="paint1_linear_5862_84914" x1="195.285" y1="112.89" x2="635.156" y2="112.89" gradientUnits="userSpaceOnUse">
<stop stop-color="#652C91"/>
<stop offset="0.578389" stop-color="#B271B7"/>
<stop offset="1" stop-color="#D591C9"/>
</linearGradient>
<linearGradient id="paint2_linear_5862_84914" x1="1541.49" y1="87.8598" x2="1999.16" y2="87.8599" gradientUnits="userSpaceOnUse">
<stop stop-color="#652C91"/>
<stop offset="0.578389" stop-color="#B271B7"/>
<stop offset="1" stop-color="#D591C9"/>
</linearGradient>
<linearGradient id="paint3_linear_5862_84914" x1="961.652" y1="96.2337" x2="1553.44" y2="96.2338" gradientUnits="userSpaceOnUse">
<stop stop-color="#652C91"/>
<stop offset="0.578389" stop-color="#B271B7"/>
<stop offset="1" stop-color="#D591C9"/>
</linearGradient>
<linearGradient id="paint4_linear_5862_84914" x1="194.773" y1="101.778" x2="286.204" y2="101.778" gradientUnits="userSpaceOnUse">
<stop stop-color="#652C91"/>
<stop offset="0.578389" stop-color="#B271B7"/>
<stop offset="1" stop-color="#D591C9"/>
</linearGradient>
<linearGradient id="paint5_linear_5862_84914" x1="553.406" y1="99.7965" x2="670.015" y2="99.7965" gradientUnits="userSpaceOnUse">
<stop stop-color="#652C91"/>
<stop offset="0.578389" stop-color="#B271B7"/>
<stop offset="1" stop-color="#D591C9"/>
</linearGradient>
<linearGradient id="paint6_linear_5862_84914" x1="995.949" y1="159.296" x2="1112.96" y2="159.296" gradientUnits="userSpaceOnUse">
<stop stop-color="#652C91"/>
<stop offset="0.578389" stop-color="#B271B7"/>
<stop offset="1" stop-color="#D591C9"/>
</linearGradient>
<linearGradient id="paint7_linear_5862_84914" x1="553.387" y1="105.723" x2="1085.17" y2="105.723" gradientUnits="userSpaceOnUse">
<stop stop-color="#652C91"/>
<stop offset="0.578389" stop-color="#B271B7"/>
<stop offset="1" stop-color="#D591C9"/>
</linearGradient>
<linearGradient id="paint8_linear_5862_84914" x1="1536.73" y1="58.3645" x2="1589.58" y2="58.3645" gradientUnits="userSpaceOnUse">
<stop stop-color="#652C91"/>
<stop offset="0.578389" stop-color="#B271B7"/>
<stop offset="1" stop-color="#D591C9"/>
</linearGradient>
</defs>
</svg>
