<svg width="26" height="25" viewBox="0 0 26 25" fill="none" xmlns="http://www.w3.org/2000/svg">
<path d="M18.5609 6.11517C19.006 7.28274 19.4706 8.44545 19.9498 9.60329C20.1395 10.0606 20.5336 10.3817 20.9982 10.4619C22.173 10.6614 23.3479 10.8584 24.5228 11.053C25.6928 11.2501 26.1258 12.7728 25.272 13.6436C24.4109 14.5193 23.562 15.4022 22.7203 16.2949C22.3871 16.6476 22.2436 17.156 22.336 17.6522C22.572 18.9025 22.8298 20.1504 23.1047 21.3933C23.3771 22.6266 21.5041 24.3877 19.4682 23.2566C18.9233 22.6241 18.3833 21.9917 17.8457 21.352C17.4128 21.1233 16.9141 21.1355 16.5103 21.3836C15.4911 22.0112 14.4744 22.6436 13.4649 23.2833C13.0027 23.5752 11.0641 23.7212 10.6408 23.4633C10.1422 23.1593 11.2052 22.376 11.2708 21.6731C11.3949 20.3693 11.5384 19.0679 11.7063 17.769C11.7719 17.2533 11.6065 16.7328 11.2636 16.3703C10.3952 15.4557 9.53652 14.5338 8.6876 13.6022C7.83868 12.673 8.34706 11.0579 9.53165 10.8828C10.7187 10.7052 11.9057 10.5301 13.0927 10.3573C13.5622 10.2892 13.9782 9.97302 14.2068 9.51329C14.1849 9.51329 14.6617 5.38544 14.9438 5.25165C15.6444 4.88436 18.2374 5.27355 18.5584 6.12004L18.5609 6.11517Z" fill="url(#paint0_linear_5862_84417)"/>
<g style="mix-blend-mode:multiply" opacity="0.4">
<path d="M18.5609 6.11517C19.006 7.28274 19.4706 8.44545 19.9498 9.60329C20.1395 10.0606 20.5336 10.3817 20.9982 10.4619C22.173 10.6614 23.3479 10.8584 24.5228 11.053C25.6928 11.2501 26.1258 12.7728 25.272 13.6436C24.4109 14.5193 23.562 15.4022 22.7203 16.2949C22.3871 16.6476 22.2436 17.156 22.336 17.6522C22.572 18.9025 22.8298 20.1504 23.1047 21.3933C23.3771 22.6266 21.5041 24.3877 19.4682 23.2566C18.9233 22.6241 18.3833 21.9917 17.8457 21.352C17.4128 21.1233 16.9141 21.1355 16.5103 21.3836C15.4911 22.0112 14.4744 22.6436 13.4649 23.2833C13.0027 23.5752 11.0641 23.7212 10.6408 23.4633C10.1422 23.1593 11.2052 22.376 11.2708 21.6731C11.3949 20.3693 11.5384 19.0679 11.7063 17.769C11.7719 17.2533 11.6065 16.7328 11.2636 16.3703C10.3952 15.4557 9.53652 14.5338 8.6876 13.6022C7.83868 12.673 8.34706 11.0579 9.53165 10.8828C10.7187 10.7052 11.9057 10.5301 13.0927 10.3573C13.5622 10.2892 13.9782 9.97302 14.2068 9.51329C14.1849 9.51329 14.6617 5.38544 14.9438 5.25165C15.6444 4.88436 18.2374 5.27355 18.5584 6.12004L18.5609 6.11517Z" fill="#9E1F63"/>
</g>
<path style="mix-blend-mode:multiply" opacity="0.3" d="M10.7618 23.4755C10.7618 23.4755 12.7175 23.7017 13.3061 23.3539C13.8899 23.0036 16.5121 21.3739 16.517 21.3787C16.5121 21.3787 15.3737 19.2382 14.8726 19.3063C14.3448 19.3622 10.7423 23.4633 10.7618 23.4755Z" fill="url(#paint1_linear_5862_84417)"/>
<path style="mix-blend-mode:multiply" opacity="0.3" d="M19.4727 23.2541C19.4727 23.2541 20.65 24.0763 22.0827 23.2541C23.5154 22.4368 23.0654 21.2011 23.0678 21.1987C23.0678 21.1987 22.45 22.3882 21.5597 21.7241C20.9662 21.2798 20.6702 21.0576 20.6718 21.0576C20.2656 21.7873 19.8667 22.5171 19.4751 23.2517L19.4727 23.2541Z" fill="url(#paint2_linear_5862_84417)"/>
<path d="M16.5061 6.05692C16.9512 7.23179 17.4134 8.40179 17.895 9.56693C18.0847 10.0291 18.4788 10.3502 18.9434 10.4304C20.1183 10.6299 21.2931 10.8294 22.468 11.0264C23.638 11.2234 24.071 12.7583 23.2172 13.6364C22.3561 14.5194 21.5072 15.4072 20.6656 16.3048C20.3323 16.6599 20.1888 17.1707 20.2812 17.6694C20.5172 18.9294 20.775 20.1845 21.0523 21.4372C21.3296 22.6826 20.1766 23.6775 19.0796 23.1156C17.9801 22.5489 16.8855 21.9748 15.7934 21.3959C15.3604 21.1672 14.8618 21.177 14.458 21.4275C13.4388 22.0575 12.422 22.6948 11.4126 23.3394C10.408 23.984 9.09687 23.0281 9.2185 21.717C9.34255 20.4059 9.48606 19.0948 9.65147 17.7861C9.71715 17.268 9.55174 16.7426 9.20876 16.3778C8.34038 15.4559 7.48173 14.5291 6.63281 13.5926C5.78389 12.6586 6.29227 11.0313 7.4793 10.8561C8.66633 10.6786 9.85336 10.501 11.0404 10.3283C11.5099 10.2602 11.9258 9.94153 12.1545 9.47693C12.7309 8.30693 13.3245 7.14422 13.935 5.98881C14.548 4.83583 16.0682 4.88935 16.5085 6.05935L16.5061 6.05692Z" fill="url(#paint3_linear_5862_84417)"/>
<g style="mix-blend-mode:overlay" opacity="0.5">
<path d="M16.2831 6.73599C16.7087 7.84518 17.1514 8.94951 17.6087 10.049C17.7887 10.4844 18.1633 10.7884 18.6012 10.8638C19.7104 11.0511 20.8196 11.2384 21.9288 11.4209C22.9115 11.4865 13.6487 22.6077 9.43331 16.4803C8.61357 15.612 7.80114 14.7387 6.99844 13.8557C6.19573 12.9752 6.67006 11.4428 7.78898 11.2749C8.9079 11.1046 10.0268 10.9368 11.1457 10.7714C11.5884 10.7057 11.9801 10.4041 12.1941 9.9687C12.7341 8.86437 13.2887 7.76491 13.8579 6.67274C14.4295 5.58301 15.8622 5.62922 16.2855 6.73355L16.2831 6.73599Z" fill="white"/>
</g>
<g style="mix-blend-mode:color-dodge" opacity="0.8">
<g style="mix-blend-mode:color-dodge" opacity="0.3">
<path d="M13.2267 10.2333C13.2267 10.2333 13.2024 12.4006 13.7716 12.6536C14.297 12.892 16.2162 7.14898 15.6519 6.56762C15.0583 5.97654 13.6986 6.20276 13.2267 10.2333Z" fill="white"/>
</g>
<g style="mix-blend-mode:color-dodge" opacity="0.3">
<path d="M11.2283 11.2187C11.0093 11.2941 9.83204 12.7146 10.3988 13.0114C10.9631 13.3081 12.5831 14.0209 12.7753 13.5636C12.9602 13.1087 12.4834 10.776 11.2258 11.2187H11.2283Z" fill="white"/>
</g>
</g>
<path d="M15.2313 6.67695C15.3383 6.30722 15.0027 6.00316 14.6865 6.18316C14.3459 6.38019 13.8838 6.9056 13.497 8.25317C12.8938 10.3961 14.8592 7.93209 15.2338 6.67695H15.2313Z" fill="white"/>
<path style="mix-blend-mode:multiply" opacity="0.3" d="M19.2072 7.80281C18.9178 6.97334 18.3145 6.31902 17.5264 6.05875C16.9475 5.86658 16.4732 5.97604 16.9378 7.17524C17.8767 9.57362 18.5821 10.6609 19.3824 10.3252C19.9175 10.1015 19.5478 8.79281 19.2048 7.80281H19.2072Z" fill="url(#paint4_linear_5862_84417)"/>
<path style="mix-blend-mode:multiply" opacity="0.3" d="M22.0571 14.9107C21.7944 15.1224 21.5804 15.3948 21.449 15.7183C21.3152 16.0467 21.2617 16.4213 21.5804 16.594C22.1958 16.9248 25.5015 13.354 25.5866 13.1837C25.6547 13.0013 24.4239 12.4467 23.5628 13.4513C22.9887 14.1202 22.3904 14.6383 22.0547 14.9107H22.0571Z" fill="url(#paint5_linear_5862_84417)"/>
<g style="mix-blend-mode:overlay" opacity="0.5">
<path d="M22.8164 11.1333C22.8164 11.1333 24.074 11.9457 24.558 11.7973C25.1005 11.6319 25.0664 11.2646 25.0664 11.2646C25.0664 11.2646 26.0078 11.9214 25.6867 12.8725C25.6234 13.016 25.5578 13.1619 25.4945 13.3055C25.4945 13.3055 25.4094 12.1209 24.361 12.7022C23.3126 13.286 23.0888 13.7652 23.0888 13.7652C23.0864 13.7628 24.2248 11.9238 22.8164 11.1309V11.1333Z" fill="white"/>
</g>
<g style="mix-blend-mode:overlay" opacity="0.5">
<path d="M20.2642 17.5508C20.2642 17.5508 22.4655 19.5697 22.412 18.0324C22.5458 18.7329 22.6893 19.4335 22.8352 20.134C22.8352 20.1389 20.9404 18.2756 20.8966 20.7324C20.6704 19.6743 20.4587 18.6138 20.2617 17.5508H20.2642Z" fill="white"/>
</g>
<g style="mix-blend-mode:color-dodge" opacity="0.5">
<path d="M20.7715 16.1251C20.4285 16.4754 20.2704 16.9862 20.3531 17.4873C20.5623 18.7497 20.8007 20.0097 21.0731 21.2625C21.3431 22.5079 20.1999 23.51 19.098 22.953C17.9961 22.3887 16.9015 21.8146 15.8142 21.226C15.3836 20.9925 14.885 21.0046 14.4788 21.2576C13.4547 21.8998 12.4404 22.5541 11.4333 23.2181C10.7571 23.6657 9.93496 23.3714 9.51172 22.7122C9.93983 22.9992 10.4847 23.0527 10.9615 22.7389C11.9733 22.0749 12.9925 21.423 14.019 20.7833C14.4252 20.5279 14.9263 20.5206 15.3544 20.7541C16.4393 21.3452 17.5315 21.9265 18.6285 22.4933C19.7255 23.0552 20.8761 22.053 20.6134 20.8052C20.3507 19.5476 20.1172 18.2851 19.9177 17.0178C19.8374 16.5143 19.998 16.0035 20.3434 15.6532C21.2142 14.7654 22.0996 13.8897 23.002 13.0311C23.5591 12.4984 23.6296 11.7103 23.3328 11.1289C24.031 11.6494 24.1453 12.8 23.4155 13.503C22.5204 14.3641 21.6399 15.2373 20.7739 16.1251H20.7715Z" fill="white"/>
</g>
<g opacity="0.86">
<g style="mix-blend-mode:screen" opacity="0.54">
<path d="M11.9326 12.4783C11.8328 12.6096 11.8571 12.7969 11.9861 12.8966C12.1174 12.9964 12.3047 12.972 12.4044 12.8431C12.5042 12.7118 12.4799 12.5245 12.3509 12.4247C12.2196 12.325 12.0323 12.3493 11.9326 12.4783Z" fill="#A6FFFF"/>
</g>
<path style="mix-blend-mode:color-dodge" opacity="0.88" d="M2.59472 5.28341C-1.47961 10.5715 -0.494475 18.1607 4.79122 22.2327C10.0793 26.307 17.6686 25.3219 21.7405 20.0362C25.8148 14.748 24.8297 7.15882 19.5415 3.08691C14.2534 -0.987425 6.66663 -0.00228745 2.59229 5.28341H2.59472Z" fill="url(#paint6_radial_5862_84417)"/>
</g>
<defs>
<linearGradient id="paint0_linear_5862_84417" x1="14.2895" y1="24.0252" x2="11.8838" y2="34.2658" gradientUnits="userSpaceOnUse">
<stop stop-color="#FF7C13"/>
<stop offset="0.15" stop-color="#FF8114"/>
<stop offset="0.34" stop-color="#FF9116"/>
<stop offset="0.56" stop-color="#FFAB1B"/>
<stop offset="0.74" stop-color="#FFC721"/>
</linearGradient>
<linearGradient id="paint1_linear_5862_84417" x1="15.758" y1="20.2695" x2="12.0388" y2="23.0303" gradientUnits="userSpaceOnUse">
<stop stop-color="white"/>
<stop offset="0.08" stop-color="#ECE4EA"/>
<stop offset="0.26" stop-color="#C2A9BD"/>
<stop offset="0.44" stop-color="#A07897"/>
<stop offset="0.61" stop-color="#85527A"/>
<stop offset="0.76" stop-color="#723765"/>
<stop offset="0.9" stop-color="#672658"/>
<stop offset="1" stop-color="#632154"/>
</linearGradient>
<linearGradient id="paint2_linear_5862_84417" x1="22.8854" y1="21.9284" x2="20.3873" y2="22.4295" gradientUnits="userSpaceOnUse">
<stop stop-color="white"/>
<stop offset="0.08" stop-color="#ECE4EA"/>
<stop offset="0.26" stop-color="#C2A9BD"/>
<stop offset="0.44" stop-color="#A07897"/>
<stop offset="0.61" stop-color="#85527A"/>
<stop offset="0.76" stop-color="#723765"/>
<stop offset="0.9" stop-color="#672658"/>
<stop offset="1" stop-color="#632154"/>
</linearGradient>
<linearGradient id="paint3_linear_5862_84417" x1="5.23416" y1="4.29097" x2="18.345" y2="19.4305" gradientUnits="userSpaceOnUse">
<stop stop-color="#FF7C13"/>
<stop offset="0.15" stop-color="#FF8114"/>
<stop offset="0.34" stop-color="#FF9116"/>
<stop offset="0.56" stop-color="#FFAB1B"/>
<stop offset="0.74" stop-color="#FFC721"/>
</linearGradient>
<linearGradient id="paint4_linear_5862_84417" x1="16.7505" y1="8.1847" x2="19.6524" y2="8.1847" gradientUnits="userSpaceOnUse">
<stop stop-color="white"/>
<stop offset="0.08" stop-color="#ECE4EA"/>
<stop offset="0.26" stop-color="#C2A9BD"/>
<stop offset="0.44" stop-color="#A07897"/>
<stop offset="0.61" stop-color="#85527A"/>
<stop offset="0.76" stop-color="#723765"/>
<stop offset="0.9" stop-color="#672658"/>
<stop offset="1" stop-color="#632154"/>
</linearGradient>
<linearGradient id="paint5_linear_5862_84417" x1="21.3469" y1="14.7429" x2="25.5915" y2="14.7429" gradientUnits="userSpaceOnUse">
<stop stop-color="white"/>
<stop offset="0.08" stop-color="#ECE4EA"/>
<stop offset="0.26" stop-color="#C2A9BD"/>
<stop offset="0.44" stop-color="#A07897"/>
<stop offset="0.61" stop-color="#85527A"/>
<stop offset="0.76" stop-color="#723765"/>
<stop offset="0.9" stop-color="#672658"/>
<stop offset="1" stop-color="#632154"/>
</linearGradient>
<radialGradient id="paint6_radial_5862_84417" cx="0" cy="0" r="1" gradientUnits="userSpaceOnUse" gradientTransform="translate(12.1675 12.6669) rotate(-142.39) scale(12.0844)">
<stop stop-color="#FF00FF"/>
<stop offset="0.12" stop-color="#C600C6"/>
<stop offset="0.24" stop-color="#920092"/>
<stop offset="0.37" stop-color="#650065"/>
<stop offset="0.5" stop-color="#400040"/>
<stop offset="0.62" stop-color="#240024"/>
<stop offset="0.75" stop-color="#100010"/>
<stop offset="0.88" stop-color="#040004"/>
<stop offset="1"/>
</radialGradient>
</defs>
</svg>
