<svg width="87" height="187" viewBox="0 0 87 187" fill="none" xmlns="http://www.w3.org/2000/svg">
<g filter="url(#filter0_d_5862_61060)">
<path d="M74.5213 105.428L75.7213 105.408L76.0813 96.498L74.1712 96.618L73.3112 75.628L73.1513 71.818L72.9212 66.248L72.5713 57.668L72.9413 57.638L71.6813 36.008L42.2113 36.838V36.818C43.6413 35.828 45.0913 34.778 46.5213 33.678C46.6513 33.578 46.7912 33.478 46.9212 33.368C47.2313 33.128 47.5313 32.888 47.8313 32.648C48.1013 32.428 48.3813 32.218 48.6513 31.998C48.9113 31.788 49.1713 31.568 49.4313 31.348C49.7413 31.088 50.0513 30.828 50.3513 30.568C50.5813 30.368 50.8112 30.178 51.0312 29.978C51.3713 29.678 51.7113 29.368 52.0413 29.058C52.2213 28.888 52.4013 28.728 52.5813 28.558C53.0813 28.078 53.5713 27.598 54.0413 27.108C57.2313 23.848 65.0513 13.788 62.9613 8.81803C60.2813 3.03803 51.6113 4.72802 48.0713 7.93802C47.6613 8.29802 47.2613 8.68802 46.8813 9.10802C46.7613 9.24802 46.6413 9.39801 46.5213 9.53801C46.2713 9.83801 46.0113 10.138 45.7713 10.458C45.6313 10.638 45.5013 10.828 45.3713 11.018C45.1613 11.328 44.9513 11.638 44.7413 11.958C44.6113 12.168 44.4813 12.378 44.3613 12.598C44.1713 12.928 43.9813 13.268 43.8013 13.608C43.6813 13.838 43.5612 14.058 43.4512 14.288C43.2712 14.648 43.1013 15.018 42.9413 15.388C42.8413 15.618 42.7313 15.848 42.6313 16.088C42.4513 16.508 42.2913 16.938 42.1213 17.378C42.0513 17.578 41.9613 17.768 41.8913 17.968C41.6712 18.578 41.4712 19.188 41.2812 19.818C41.1813 20.148 41.0913 20.478 41.0013 20.808C40.9113 21.128 40.8213 21.448 40.7413 21.768C40.6413 22.138 40.5613 22.518 40.4713 22.888C40.4113 23.168 40.3413 23.448 40.2812 23.728C40.1912 24.128 40.1213 24.528 40.0413 24.938C39.9913 25.188 39.9513 25.438 39.9113 25.678C39.8413 26.108 39.7713 26.538 39.7113 26.968C39.6813 27.168 39.6613 27.368 39.6313 27.568C39.5713 28.038 39.5113 28.508 39.4613 28.978C39.4613 29.058 39.4513 29.138 39.4413 29.228C39.2713 30.998 39.2113 32.708 39.2513 34.328C38.6813 32.758 37.9713 31.128 37.1313 29.488C37.1313 29.488 37.1313 29.468 37.1113 29.458C36.8313 28.918 36.5513 28.378 36.2413 27.838C36.2413 27.828 36.2313 27.818 36.2213 27.808C35.6213 26.738 34.9713 25.668 34.2713 24.628C34.2613 24.608 34.2513 24.588 34.2313 24.578C33.9013 24.078 33.5613 23.588 33.2113 23.108C33.1713 23.058 33.1313 23.008 33.1013 22.948C32.7513 22.478 32.4013 22.008 32.0413 21.548C32.0113 21.508 31.9812 21.478 31.9512 21.438C31.5812 20.968 31.2012 20.518 30.8112 20.068C30.8112 20.068 30.8112 20.068 30.8112 20.058C30.4312 19.628 30.0512 19.218 29.6712 18.808C29.6112 18.748 29.5613 18.688 29.5013 18.628C29.1313 18.248 28.7513 17.868 28.3713 17.508C28.3013 17.448 28.2412 17.388 28.1712 17.328C27.7812 16.968 27.3813 16.618 26.9913 16.288C26.9613 16.258 26.9213 16.238 26.8913 16.208C26.5013 15.888 26.1113 15.588 25.7113 15.308C25.6613 15.268 25.6112 15.238 25.5612 15.198C25.1612 14.918 24.7613 14.658 24.3513 14.408C24.2713 14.358 24.2013 14.318 24.1213 14.268C23.7213 14.028 23.3113 13.818 22.9113 13.618C22.8413 13.588 22.7813 13.558 22.7113 13.528C22.2813 13.328 21.8613 13.148 21.4313 12.998C16.9713 11.298 8.27125 12.888 7.89125 19.248C7.76125 24.648 18.7113 31.158 22.8713 33.028C23.6913 33.408 24.5413 33.758 25.4113 34.098C25.6313 34.188 25.8613 34.268 26.0813 34.358C26.8113 34.638 27.5413 34.898 28.2913 35.158C28.4413 35.208 28.6013 35.268 28.7513 35.318C30.6813 35.968 32.6613 36.538 34.6313 37.058L5.03125 37.888L8.13126 62.418L9.05125 62.348C9.05125 62.348 9.05125 62.348 9.05125 62.358L9.09125 62.388L12.8513 100.528L12.3613 100.558L13.0713 106.278H13.4212L20.4313 177.318L46.4413 176.718V176.928L53.5612 177.058L53.5213 176.558L77.4613 176.008L74.5713 105.408L74.5213 105.428Z" fill="white" stroke="white" stroke-width="6" stroke-linecap="round" stroke-linejoin="round"/>
<path d="M6.73047 38.8078L20.4005 177.338L77.4105 176.028L71.6805 36.0278L6.73047 38.8078Z" fill="#AA9439"/>
<path d="M39.6087 38.3081C38.1187 29.4881 41.0487 14.0281 48.0787 7.95805C51.6187 4.74805 60.2887 3.05804 62.9687 8.83804C65.0587 13.818 57.2387 23.868 54.0487 27.128C49.9987 31.328 44.5487 35.318 39.7587 38.508C38.7787 36.748 53.6887 23.678 56.0287 20.108C58.6287 16.038 60.4687 8.80805 51.8287 11.408C45.8587 12.988 45.2487 18.078 44.0887 23.268C43.3087 26.008 42.2187 37.6481 39.9587 38.3681" fill="#CC5E5E"/>
<path d="M40.3701 38.1981C38.5501 29.4381 30.17 16.1081 21.42 13.0181C16.96 11.3181 8.26005 12.9081 7.88005 19.2681C7.75005 24.6681 18.7 31.1781 22.86 33.0481C28.16 35.4781 34.69 37.2081 40.31 38.4381C40.58 36.4381 21.93 29.7081 18.45 27.2281C14.55 24.3881 10.2001 18.3281 19.1801 17.5981C25.3101 16.8881 27.7401 21.4081 30.7101 25.8181C32.4401 28.0881 37.7 38.5281 40.06 38.3781" fill="#CC5E5E"/>
<path opacity="0.4" d="M9.11343 62.4581L73.3134 75.6381L72.4934 56.6081C72.4934 56.6081 14.4934 53.2081 9.02344 62.3781" fill="#937F2B"/>
<path d="M5.01172 37.9078L71.6817 36.0278L72.9417 57.6578L8.10172 62.4378L5.01172 37.9078Z" fill="#BCA74B"/>
<path d="M12.332 100.588L76.072 96.498L75.722 105.408L13.042 106.308L12.332 100.588Z" fill="#BF5252"/>
<path d="M59.8231 89.8179C57.9931 88.4179 51.2831 80.7979 53.4131 78.6679C56.0031 75.7579 58.9031 82.6079 59.2431 84.0879C59.5431 80.5679 64.2531 75.5279 64.6031 81.5179C64.7731 84.5179 61.7131 87.6979 59.8231 89.8079" fill="#E2E0D7"/>
<path d="M36.5731 77.648C34.7431 76.248 28.0331 68.628 30.1631 66.498C32.7431 63.588 35.6531 70.438 35.9831 71.918C36.2831 68.398 40.9931 63.358 41.3431 69.348C41.5131 72.3479 38.4431 75.528 36.5631 77.638" fill="#E2E0D7"/>
<path d="M26.1707 92.5279C24.3407 91.1279 17.6307 83.5079 19.7607 81.3779C22.3507 78.4679 25.2507 85.3179 25.5907 86.7979C25.8907 83.2779 30.6007 78.2379 30.9507 84.2279C31.1207 87.2279 28.0507 90.4079 26.1707 92.5179" fill="#E2E0D7"/>
<path d="M31.6903 131.528C29.8603 130.128 23.1503 122.508 25.2803 120.378C27.8703 117.468 30.7703 124.318 31.1103 125.798C31.4103 122.278 36.1203 117.238 36.4703 123.228C36.6403 126.228 33.5703 129.408 31.6903 131.518" fill="#E2E0D7"/>
<path d="M61.8817 125.258C60.0517 123.858 53.3417 116.238 55.4717 114.108C58.0617 111.198 60.9617 118.048 61.3017 119.528C61.6017 116.008 66.3117 110.968 66.6617 116.958C66.8317 119.958 63.7617 123.138 61.8817 125.248" fill="#E2E0D7"/>
<path d="M34.0536 163.438C32.2236 162.038 25.5136 154.418 27.6436 152.288C30.2336 149.378 33.1336 156.228 33.4736 157.708C33.7736 154.188 38.4836 149.148 38.8336 155.138C39.0036 158.128 35.9336 161.318 34.0536 163.428" fill="#E2E0D7"/>
<path d="M55.0809 146.188C53.2509 144.788 46.5409 137.168 48.6709 135.038C51.2509 132.138 54.1609 138.978 54.5009 140.458C54.7909 136.938 59.5109 131.898 59.8609 137.888C60.0309 140.888 56.9609 144.068 55.0809 146.178" fill="#E2E0D7"/>
<path d="M64.9715 169.658C63.1415 168.258 56.4315 160.638 58.5615 158.508C61.1415 155.598 64.0515 162.448 64.3915 163.928C64.6815 160.408 69.4015 155.368 69.7515 161.358C69.9215 164.358 66.8515 167.538 64.9715 169.648" fill="#E2E0D7"/>
<path d="M37.6523 36.508L46.4223 176.948L53.5223 177.078L42.0823 35.248L37.6523 36.508Z" fill="#CC5E5E"/>
<path d="M47.1711 98.3481L74.1611 96.6181L73.3011 75.6281L44.8711 69.7881L47.1711 98.3381V98.3481ZM59.2311 84.0881C59.5311 80.5681 64.2411 75.5281 64.5911 81.5181C64.7611 84.5181 61.7011 87.6981 59.8111 89.8081C57.9811 88.4081 51.2711 80.7881 53.4011 78.6581C55.9911 75.7481 58.8911 82.5981 59.2311 84.0781V84.0881Z" fill="#AA9439"/>
<path d="M37.4902 68.2781L33.9102 67.5381C35.0102 69.0781 35.8302 71.1681 35.9902 71.9181C36.0902 70.7181 36.7102 69.3381 37.4902 68.2781Z" fill="#AA9439"/>
<path d="M13.3906 106.298L20.4006 177.338L46.4106 176.738L41.9906 105.888L13.4006 106.298H13.3906ZM25.2906 120.378C27.8806 117.468 30.7806 124.318 31.1206 125.798C31.4206 122.278 36.1306 117.238 36.4806 123.228C36.6506 126.228 33.5806 129.408 31.7006 131.518C29.8706 130.118 23.1606 122.498 25.2906 120.368V120.378ZM27.6506 152.298C30.2406 149.388 33.1406 156.238 33.4806 157.718C33.7806 154.198 38.4906 149.158 38.8406 155.148C39.0106 158.138 35.9406 161.328 34.0606 163.438C32.2306 162.038 25.5206 154.418 27.6506 152.288V152.298Z" fill="#AA9439"/>
<path d="M50.0695 134.338C52.2095 134.408 54.2195 139.248 54.4995 140.468C54.7895 136.948 59.5095 131.908 59.8595 137.898C60.0295 140.898 56.9595 144.078 55.0795 146.188C54.1995 145.518 52.2295 143.438 50.6195 141.208L53.4695 176.578L77.4095 176.028L74.5195 105.428L47.7695 105.808L50.0695 134.338ZM69.7395 161.368C69.9095 164.368 66.8395 167.548 64.9595 169.658C63.1295 168.258 56.4195 160.638 58.5495 158.508C61.1295 155.598 64.0395 162.448 64.3795 163.928C64.6695 160.408 69.3895 155.368 69.7395 161.358V161.368ZM55.4695 114.118C58.0595 111.208 60.9595 118.058 61.2995 119.538C61.5995 116.018 66.3095 110.978 66.6595 116.968C66.8295 119.968 63.7595 123.148 61.8795 125.258C60.0495 123.858 53.3395 116.238 55.4695 114.108V114.118Z" fill="#AA9439"/>
<path d="M39.9608 73.488C38.9508 75.058 37.5908 76.508 36.5708 77.648C34.8008 76.298 28.4908 69.138 30.0008 66.748L9.10078 62.458L9.05078 62.418L12.8108 100.558L41.5208 98.718L39.9408 73.488H39.9608ZM26.1708 92.528C24.3408 91.128 17.6308 83.508 19.7608 81.378C22.3508 78.468 25.2508 85.318 25.5908 86.798C25.8908 83.278 30.6008 78.238 30.9508 84.228C31.1208 87.228 28.0508 90.408 26.1708 92.518V92.528Z" fill="#AA9439"/>
<path d="M73.1391 71.828L72.5591 57.688H72.5391L73.1391 71.828Z" fill="#AA9439"/>
<path d="M41.7286 35.1982C41.6686 35.2582 41.6086 35.3282 41.5586 35.3882L41.6786 35.3582C41.6986 35.3082 41.7086 35.2482 41.7286 35.1982Z" fill="#CC5E5E"/>
<path d="M41.5599 35.3981C41.6099 35.3381 41.6699 35.2681 41.7299 35.2081C42.8599 31.3581 43.5499 25.1781 44.0899 23.2781C45.2499 18.0881 45.8599 12.9981 51.8299 11.4181C60.4599 8.81806 58.6199 16.0481 56.0299 20.1181C54.2999 22.7581 45.6999 30.5881 41.7299 35.2081C41.7099 35.2581 41.6999 35.3181 41.6799 35.3681L42.0799 35.2581L42.2099 36.8481C46.3299 33.9781 50.6699 30.6381 54.0399 27.1481C57.2299 23.8881 65.0499 13.8281 62.9599 8.85807C60.2799 3.07807 51.6099 4.76806 48.0699 7.97806C42.0099 13.2081 38.9999 25.4281 39.2399 34.3481C39.4299 34.8781 39.6099 35.3981 39.7599 35.9181L41.5499 35.4081L41.5599 35.3981Z" fill="#CC5E5E"/>
<path d="M37.9217 36.4279C37.7117 36.3079 37.4917 36.1879 37.2617 36.0679C37.3917 36.2379 37.5217 36.3979 37.6517 36.5579V36.5079L37.9217 36.4279Z" fill="#CC5E5E"/>
<path d="M37.6483 36.5579C37.5183 36.3979 37.3883 36.2379 37.2583 36.0679C31.8783 33.2179 21.0183 29.0579 18.4383 27.2279C14.5383 24.3879 10.1883 18.3279 19.1683 17.5979C25.2983 16.8879 27.7283 21.4079 30.6983 25.8179C31.8983 27.3879 34.7983 32.8979 37.2483 36.0679C37.4783 36.1879 37.6983 36.3079 37.9083 36.4279L39.3283 36.0279C39.2883 35.4779 39.2483 34.9179 39.2383 34.3379C36.2083 25.9479 28.9483 15.6879 21.4083 13.0279C16.9483 11.3279 8.24834 12.9179 7.86834 19.2779C7.73834 24.6779 18.6883 31.1879 22.8483 33.0579C26.4283 34.6979 30.5583 36.0179 34.5983 37.0779L37.6683 36.9879L37.6383 36.5579H37.6483Z" fill="#CC5E5E"/>
<path d="M39.77 35.8981C39.61 35.3881 39.44 34.8581 39.25 34.3281C39.27 34.9081 39.3 35.4681 39.34 36.0181L39.77 35.8981Z" fill="#CC5E5E"/>
<path opacity="0.4" d="M73.3106 75.6381L73.1406 71.8281L73.3006 75.6381H73.3106Z" fill="#937F2B"/>
<path opacity="0.4" d="M9.03125 62.3679C9.03125 62.3679 9.03125 62.3679 9.03125 62.3779L9.07126 62.4079V62.3579H9.04126L9.03125 62.3679Z" fill="#937F2B"/>
<path d="M30.0008 66.7482C30.0508 66.6682 30.0908 66.5782 30.1608 66.5082C31.4508 65.0582 32.8108 66.0282 33.9008 67.5482L37.4808 68.2882C38.1108 67.4282 38.8608 66.7882 39.5208 66.6282L39.1208 60.1582L9.05078 62.3782V62.4282L9.10078 62.4682L30.0008 66.7582V66.7482Z" fill="#AA9439"/>
<path opacity="0.4" d="M30.0008 66.7482C30.0508 66.6682 30.0908 66.5782 30.1608 66.5082C31.4508 65.0582 32.8108 66.0282 33.9008 67.5482L37.4808 68.2882C38.1108 67.4282 38.8608 66.7882 39.5208 66.6282L39.1208 60.1582L9.05078 62.3782V62.4282L9.10078 62.4682L30.0008 66.7582V66.7482Z" fill="#937F2B"/>
<path d="M44.0586 59.788L44.8686 69.798L73.2986 75.638L73.1386 71.828L72.5386 57.688L44.0586 59.788Z" fill="#AA9439"/>
<path opacity="0.4" d="M44.0586 59.788L44.8686 69.798L73.2986 75.638L73.1386 71.828L72.5386 57.688L44.0586 59.788Z" fill="#937F2B"/>
<path d="M71.6809 36.0278L42.2109 36.8578L42.2409 37.2878L71.6809 36.0278Z" fill="#BCA74B"/>
<path d="M72.9397 57.6578L71.6797 36.0278L72.5597 57.6878L72.9397 57.6578Z" fill="#BCA74B"/>
<path d="M6.73001 38.8081L36.42 37.5381C35.82 37.3881 35.21 37.2381 34.6 37.0781L5 37.9081L8.10001 62.4381L9.02 62.3681C9.02 62.3681 9.04001 62.3481 9.04001 62.3381L6.72 38.8081H6.73001Z" fill="#BCA74B"/>
<path d="M43.76 56.0378C58.59 55.7878 72.49 56.6078 72.49 56.6078L72.54 57.6878H72.57L71.68 36.0278L42.25 37.2878L43.76 56.0378Z" fill="#BCA74B"/>
<path d="M38.8705 56.1578L37.7305 37.8478C37.3005 37.7478 36.8605 37.6378 36.4205 37.5278L6.73047 38.7978L9.05046 62.3278C11.6205 58.1778 25.0405 56.6178 38.8805 56.1578H38.8705Z" fill="#BCA74B"/>
<path d="M37.7094 37.478L37.6794 36.978L34.6094 37.068C35.2194 37.228 35.8194 37.388 36.4294 37.528L37.7194 37.468L37.7094 37.478Z" fill="#BCA74B"/>
<path d="M37.7119 37.478L36.4219 37.538C36.8619 37.648 37.3019 37.748 37.7319 37.858L37.7119 37.488V37.478Z" fill="#BCA74B"/>
<path d="M9.05125 62.3379C9.05125 62.3379 9.04125 62.3579 9.03125 62.3679H9.05125V62.3379Z" fill="#BCA74B"/>
<path d="M9.04906 62.3382V62.3682L39.1191 60.1482L38.8691 56.1582C25.0291 56.6182 11.6191 58.1782 9.03906 62.3282L9.04906 62.3382Z" fill="#BCA74B"/>
<path d="M72.5417 57.6881L72.4917 56.6081C72.4917 56.6081 58.5917 55.7981 43.7617 56.0381L44.0617 59.7781L72.5417 57.6781V57.6881Z" fill="#BCA74B"/>
<path d="M12.3281 100.588L13.0381 106.308L13.3881 106.298L12.8181 100.558L12.3281 100.588Z" fill="#BF5252"/>
<path d="M75.7202 105.408L76.0702 96.498L74.1602 96.618L74.5202 105.428L75.7202 105.408Z" fill="#BF5252"/>
<path d="M47.7719 105.808L74.5219 105.428L74.1619 96.6182L47.1719 98.3481L47.7719 105.808Z" fill="#BF5252"/>
<path d="M41.5303 98.708L12.8203 100.558L13.3903 106.298L41.9803 105.888L41.5303 98.708Z" fill="#BF5252"/>
<path d="M59.8192 89.8181C61.6992 87.7081 64.7692 84.5182 64.5992 81.5282C64.2492 75.5382 59.5392 80.5681 59.2392 84.0981C58.8992 82.6181 55.9992 75.7682 53.4092 78.6782C51.2792 80.8082 57.9892 88.4281 59.8192 89.8281V89.8181Z" fill="#E2E0D7"/>
<path d="M37.489 68.2783C36.709 69.3383 36.089 70.7183 35.989 71.9183C35.819 71.1783 34.9989 69.0783 33.9089 67.5383L30.009 66.7383C28.499 69.1383 34.7989 76.2883 36.5789 77.6383C37.5989 76.4983 38.9589 75.0383 39.9689 73.4783L39.6689 68.7183L37.4989 68.2683L37.489 68.2783Z" fill="#E2E0D7"/>
<path d="M39.5283 66.6182C38.8583 66.7882 38.1183 67.4282 37.4883 68.2782L39.6583 68.7281L39.5283 66.6182Z" fill="#E2E0D7"/>
<path d="M30.16 66.4981C30.09 66.5681 30.05 66.6581 30 66.7381L33.9 67.5381C32.81 66.0181 31.45 65.0481 30.16 66.4981Z" fill="#E2E0D7"/>
<path d="M25.579 86.7979C25.239 85.3179 22.339 78.4679 19.749 81.3779C17.619 83.5079 24.329 91.1279 26.159 92.5279C28.039 90.4179 31.109 87.2279 30.939 84.2379C30.589 78.2479 25.879 83.2779 25.579 86.8079V86.7979Z" fill="#E2E0D7"/>
<path d="M31.6903 131.528C33.5703 129.418 36.6403 126.228 36.4703 123.238C36.1203 117.248 31.4103 122.278 31.1103 125.808C30.7703 124.328 27.8703 117.478 25.2803 120.388C23.1503 122.518 29.8603 130.138 31.6903 131.538V131.528Z" fill="#E2E0D7"/>
<path d="M61.8817 125.258C63.7617 123.148 66.8317 119.958 66.6617 116.968C66.3117 110.978 61.6017 116.008 61.3017 119.538C60.9617 118.058 58.0617 111.208 55.4717 114.118C53.3417 116.248 60.0517 123.868 61.8817 125.268V125.258Z" fill="#E2E0D7"/>
<path d="M33.4696 157.718C33.1296 156.238 30.2296 149.388 27.6396 152.298C25.5096 154.428 32.2197 162.048 34.0497 163.448C35.9297 161.338 38.9996 158.148 38.8296 155.158C38.4796 149.168 33.7696 154.198 33.4696 157.728V157.718Z" fill="#E2E0D7"/>
<path d="M55.0803 146.188C56.9603 144.078 60.0303 140.888 59.8603 137.898C59.5103 131.908 54.8003 136.938 54.5003 140.468C54.2203 139.248 52.2103 134.418 50.0703 134.338L50.6203 141.208C52.2203 143.438 54.2003 145.518 55.0803 146.188Z" fill="#E2E0D7"/>
<path d="M64.3803 163.928C64.0403 162.448 61.1403 155.598 58.5503 158.508C56.4203 160.638 63.1203 168.258 64.9603 169.658C66.8403 167.548 69.9103 164.358 69.7403 161.368C69.3903 155.378 64.6803 160.408 64.3803 163.938V163.928Z" fill="#E2E0D7"/>
<path d="M42.2097 36.8579V36.8379C42.2097 36.8379 42.1897 36.8479 42.1797 36.8579H42.2097Z" fill="#CC5E5E"/>
<path d="M46.3984 176.738L46.4184 176.948L53.5184 177.078L53.4784 176.578L46.3984 176.738Z" fill="#CC5E5E"/>
<path d="M50.6283 141.208C48.8683 138.768 47.5683 136.158 48.6783 135.038C49.1383 134.518 49.6083 134.318 50.0783 134.328L47.7783 105.798L41.9883 105.878L46.4083 176.728L53.4883 176.568L50.6383 141.198L50.6283 141.208Z" fill="#CC5E5E"/>
<path d="M44.8692 69.7979L41.3192 69.0679C41.3192 69.1579 41.3392 69.2579 41.3392 69.3579C41.4192 70.7379 40.8092 72.1479 39.9492 73.4879L41.5292 98.7179L47.1692 98.3579L44.8692 69.8079V69.7979Z" fill="#CC5E5E"/>
<path d="M41.1311 36.8879C41.3211 36.4479 41.5111 35.9279 41.6811 35.3579L41.5611 35.3879C41.0811 35.9479 40.6811 36.4579 40.3711 36.8979L41.1311 36.8779V36.8879Z" fill="#CC5E5E"/>
<path d="M40.3695 36.9079C40.6795 36.4679 41.0795 35.9579 41.5595 35.3979L39.7695 35.9079C39.8695 36.2479 39.9695 36.5879 40.0595 36.9279H40.3695V36.9079Z" fill="#CC5E5E"/>
<path d="M41.6789 35.358C41.5089 35.928 41.3289 36.448 41.1289 36.888L42.1789 36.858C42.1789 36.858 42.1989 36.848 42.1989 36.838L42.0689 35.248L41.6689 35.358H41.6789Z" fill="#CC5E5E"/>
<path d="M39.4219 36.9378C39.3919 36.6378 39.3619 36.3378 39.3419 36.0278L37.9219 36.4278C38.2419 36.6078 38.5419 36.7878 38.8119 36.9478L39.4319 36.9278L39.4219 36.9378Z" fill="#CC5E5E"/>
<path d="M38.8084 36.9482C38.5384 36.7782 38.2384 36.6082 37.9184 36.4282L37.6484 36.5082V36.5582C37.7684 36.7082 37.8884 36.8482 38.0084 36.9782L38.8084 36.9582V36.9482Z" fill="#CC5E5E"/>
<path d="M37.6484 36.5581L37.6784 36.9881H38.0084C37.8884 36.8481 37.7684 36.7081 37.6484 36.5581Z" fill="#CC5E5E"/>
<path d="M40.0598 36.9179C39.9698 36.5879 39.8699 36.2479 39.7699 35.8979L39.3398 36.0179C39.3598 36.3279 39.3898 36.6279 39.4198 36.9279L40.0598 36.9079V36.9179Z" fill="#CC5E5E"/>
<path d="M41.3211 69.0681L44.8711 69.7981L44.0611 59.7881L39.1211 60.1481L39.5211 66.6181C40.4011 66.3981 41.1311 67.0181 41.3111 69.0681H41.3211Z" fill="#CC5E5E"/>
<path d="M41.5312 37.3179L42.2513 37.2879L42.2213 36.8579H42.1913C41.9713 37.0079 41.7512 37.1679 41.5312 37.3179Z" fill="#CC5E5E"/>
<path d="M40.3483 38.1181C40.3483 38.1181 40.3583 38.1681 40.3683 38.1981L40.2783 38.2481C40.2983 38.3181 40.3183 38.3781 40.3083 38.4381C40.2083 38.4181 40.1083 38.3881 40.0083 38.3681C39.9983 38.3681 39.9883 38.3681 39.9683 38.3681C39.8983 38.4181 39.8283 38.4681 39.7483 38.5181C39.7183 38.4681 39.7083 38.3981 39.7083 38.3281L39.6083 38.3081V38.2881C39.5983 38.2881 39.5783 38.2781 39.5683 38.2681C38.9683 38.1381 38.3583 37.9981 37.7383 37.8481L38.8783 56.1581C40.5083 56.1081 42.1383 56.0681 43.7583 56.0381L42.2483 37.2881L41.5283 37.3181C41.1383 37.5881 40.7583 37.8381 40.3783 38.0981C40.3783 38.0981 40.3583 38.1181 40.3483 38.1281V38.1181Z" fill="#CC5E5E"/>
<path d="M40.1484 37.248C40.1484 37.248 40.1684 37.328 40.1784 37.368L40.9084 37.338C40.9884 37.198 41.0584 37.0479 41.1284 36.8779L40.3684 36.8979C40.2884 37.0179 40.2184 37.1279 40.1484 37.2379V37.248Z" fill="#CC5E5E"/>
<path d="M41.5319 37.3179C41.7519 37.1679 41.9719 37.0079 42.1919 36.8579L41.1419 36.8879C41.0719 37.0479 40.9919 37.2079 40.9219 37.3479L41.5419 37.3179H41.5319Z" fill="#CC5E5E"/>
<path d="M40.3686 36.9082H40.0586C40.0886 37.0282 40.1186 37.1382 40.1486 37.2482C40.2186 37.1382 40.2886 37.0282 40.3686 36.9082Z" fill="#CC5E5E"/>
<path d="M39.5999 38.2881V38.3081L39.6998 38.3281C39.6598 38.3181 39.6298 38.3081 39.5898 38.2981L39.5999 38.2881Z" fill="#CC5E5E"/>
<path d="M40.3516 38.1179C40.3516 38.1179 40.3716 38.0979 40.3816 38.0879C40.3816 38.0879 40.3616 38.0979 40.3516 38.1079V38.1179Z" fill="#CC5E5E"/>
<path d="M40.3789 38.0881C40.7589 37.8281 41.1389 37.5781 41.5289 37.3081L40.9089 37.3381C40.7389 37.6481 40.5689 37.9081 40.3789 38.0881Z" fill="#CC5E5E"/>
<path d="M40.3797 38.0879C40.5697 37.9079 40.7397 37.6579 40.9097 37.3379L40.1797 37.3679C40.2397 37.6179 40.2997 37.8679 40.3497 38.1079C40.3497 38.1079 40.3697 38.0979 40.3797 38.0879Z" fill="#CC5E5E"/>
<path d="M39.7109 38.3281C39.7109 38.3981 39.7309 38.4581 39.7509 38.5181C39.8209 38.4681 39.9009 38.4181 39.9709 38.3681C39.9009 38.3681 39.8309 38.3581 39.7609 38.3381H39.7109V38.3281Z" fill="#CC5E5E"/>
<path d="M39.4886 37.3982C39.4686 37.2382 39.4486 37.0882 39.4286 36.9282L38.8086 36.9482C39.0586 37.1082 39.2786 37.2582 39.4786 37.3982H39.4886Z" fill="#CC5E5E"/>
<path d="M38.0097 36.978H37.6797L37.7097 37.478L38.4597 37.448C38.3197 37.308 38.1697 37.148 38.0097 36.978Z" fill="#CC5E5E"/>
<path d="M38.8117 36.9482L38.0117 36.9682C38.1617 37.1382 38.3117 37.2982 38.4617 37.4382L39.4817 37.3983C39.2917 37.2583 39.0617 37.1082 38.8117 36.9482Z" fill="#CC5E5E"/>
<path d="M39.4909 37.4079C39.4909 37.4079 39.4909 37.4079 39.4809 37.4079L38.4609 37.4479C38.8609 37.8379 39.2309 38.1279 39.5709 38.2679C39.5809 38.2679 39.6009 38.2679 39.6109 38.2679C39.5609 37.9879 39.5309 37.6879 39.5009 37.3979L39.4909 37.4079Z" fill="#CC5E5E"/>
<path d="M39.5986 38.2778C39.5986 38.2778 39.5786 38.2778 39.5586 38.2778C39.5686 38.2778 39.5886 38.2878 39.5986 38.2978V38.2778Z" fill="#CC5E5E"/>
<path d="M39.5592 38.2682C39.2192 38.1282 38.8492 37.8382 38.4492 37.4482L37.6992 37.4782L37.7192 37.8482C38.3392 37.9982 38.9492 38.1382 39.5492 38.2682H39.5592Z" fill="#CC5E5E"/>
<path d="M39.4805 37.4079H39.4905V37.3979L39.4805 37.4079Z" fill="#CC5E5E"/>
<path d="M40.0205 38.3383C40.0205 38.3383 39.9905 38.3583 39.9805 38.3683C39.9805 38.3683 40.0005 38.3683 40.0105 38.3683C40.0305 38.3683 40.0505 38.3683 40.0705 38.3683L40.2805 38.2483C40.2805 38.2483 40.2605 38.2082 40.2505 38.1982C40.1705 38.2582 40.1005 38.3083 40.0205 38.3383Z" fill="#CC5E5E"/>
<path d="M40.0117 38.368C40.1117 38.388 40.2117 38.418 40.3117 38.438C40.3117 38.378 40.3117 38.318 40.2817 38.248L40.0717 38.368C40.0717 38.368 40.0317 38.368 40.0117 38.368Z" fill="#CC5E5E"/>
<path d="M40.28 38.2482L40.37 38.1982C40.37 38.1982 40.36 38.1482 40.35 38.1182C40.32 38.1482 40.28 38.1682 40.25 38.1982C40.25 38.2182 40.27 38.2382 40.28 38.2482Z" fill="#CC5E5E"/>
<path d="M40.0719 37.378C40.0719 37.378 40.1319 37.288 40.1519 37.248C40.1219 37.138 40.0919 37.028 40.0619 36.918L39.4219 36.938C39.4419 37.098 39.4619 37.248 39.4819 37.408L40.0619 37.388L40.0719 37.378Z" fill="#CC5E5E"/>
<path d="M40.1803 37.3778C40.1803 37.3778 40.1603 37.2978 40.1503 37.2578C40.1203 37.2978 40.0903 37.3478 40.0703 37.3878H40.1803V37.3778Z" fill="#CC5E5E"/>
<path d="M39.7092 38.3181C39.7092 38.3181 39.7492 38.3281 39.7592 38.3381L39.9492 38.3681C39.8692 38.3481 39.7792 38.3281 39.6992 38.3081C39.6992 38.3081 39.6992 38.3181 39.6992 38.3281L39.7092 38.3181Z" fill="#CC5E5E"/>
<path d="M39.7116 38.3081C39.7116 38.3081 39.6416 38.2881 39.6016 38.2881C39.6416 38.2981 39.6716 38.3081 39.7116 38.3181C39.7116 38.3181 39.7116 38.3081 39.7116 38.2981V38.3081Z" fill="#CC5E5E"/>
<path d="M39.8783 37.7282C39.7683 37.6282 39.6383 37.5182 39.4883 37.4082C39.5283 37.6982 39.5583 37.9982 39.5983 38.2782C39.6383 38.2782 39.6683 38.2982 39.7083 38.2982C39.7083 38.1482 39.7683 37.9582 39.8783 37.7282Z" fill="#CC5E5E"/>
<path d="M39.9595 38.3581L39.7695 38.3281C39.8395 38.3481 39.9095 38.3581 39.9795 38.3581C39.9795 38.3581 39.9795 38.3581 39.9695 38.3581H39.9595Z" fill="#CC5E5E"/>
<path d="M39.8789 37.7281C40.0589 37.8881 40.1789 38.0382 40.2489 38.1782C40.2889 38.1582 40.3189 38.1282 40.3589 38.1082C40.3089 37.8682 40.2489 37.6182 40.1889 37.3682H40.0789C40.0089 37.4982 39.9389 37.6181 39.8889 37.7281H39.8789Z" fill="#CC5E5E"/>
<path d="M40.2495 38.198C40.2495 38.198 40.2495 38.198 40.2495 38.188C40.1695 38.238 40.0995 38.288 40.0195 38.338C40.0995 38.308 40.1795 38.258 40.2495 38.198Z" fill="#CC5E5E"/>
<path d="M40.0683 37.3781L39.4883 37.3982C39.6383 37.5082 39.7683 37.6181 39.8783 37.7181C39.9283 37.6081 39.9983 37.4882 40.0683 37.3682V37.3781Z" fill="#CC5E5E"/>
<path d="M40.2405 38.1779C40.2405 38.1779 40.2405 38.1779 40.2405 38.1879C40.2705 38.1579 40.3105 38.1379 40.3405 38.1079C40.3005 38.1279 40.2705 38.1579 40.2305 38.1779H40.2405Z" fill="#CC5E5E"/>
<path d="M39.9592 38.358C39.9592 38.358 39.9992 38.338 40.0092 38.328C40.0792 38.278 40.1592 38.228 40.2392 38.178C40.1692 38.038 40.0492 37.888 39.8692 37.728C39.7592 37.958 39.6992 38.148 39.6992 38.298C39.7792 38.318 39.8692 38.338 39.9492 38.358H39.9592Z" fill="#CC5E5E"/>
<path d="M39.9788 38.3679C39.9788 38.3679 40.0088 38.3479 40.0188 38.3379C39.9988 38.3379 39.9787 38.3579 39.9688 38.3679C39.9688 38.3679 39.9688 38.3679 39.9788 38.3679Z" fill="#CC5E5E"/>
<path d="M43.7589 56.0381C42.1389 56.0681 40.4989 56.1081 38.8789 56.1581L39.1289 60.1481L44.0689 59.7881L43.7689 56.0481L43.7589 56.0381Z" fill="#CC5E5E"/>
<path d="M41.5312 98.7082L41.9813 105.888L47.7713 105.808L47.1712 98.3481L41.5312 98.7082Z" fill="#CC5E5E"/>
<path d="M41.3202 69.068L39.6602 68.728L39.9602 73.488C40.8202 72.158 41.4302 70.738 41.3502 69.358C41.3502 69.258 41.3302 69.168 41.3302 69.068H41.3202Z" fill="#CC5E5E"/>
<path d="M41.3213 69.0681C41.1413 67.0181 40.4013 66.3981 39.5312 66.6181L39.6613 68.7281L41.3213 69.0681Z" fill="#CC5E5E"/>
<path d="M48.6809 135.038C47.5709 136.148 48.8709 138.768 50.6309 141.208L50.0809 134.338C49.6209 134.318 49.1409 134.528 48.6809 135.048V135.038Z" fill="#CC5E5E"/>
</g>
<defs>
<filter id="filter0_d_5862_61060" x="0.03125" y="0.000488281" width="86.4297" height="186.318" filterUnits="userSpaceOnUse" color-interpolation-filters="sRGB">
<feFlood flood-opacity="0" result="BackgroundImageFix"/>
<feColorMatrix in="SourceAlpha" type="matrix" values="0 0 0 0 0 0 0 0 0 0 0 0 0 0 0 0 0 0 127 0" result="hardAlpha"/>
<feOffset dx="2" dy="2"/>
<feGaussianBlur stdDeviation="2"/>
<feColorMatrix type="matrix" values="0 0 0 0 0 0 0 0 0 0 0 0 0 0 0 0 0 0 0.2 0"/>
<feBlend mode="normal" in2="BackgroundImageFix" result="effect1_dropShadow_5862_61060"/>
<feBlend mode="normal" in="SourceGraphic" in2="effect1_dropShadow_5862_61060" result="shape"/>
</filter>
</defs>
</svg>
